<svg xmlns="http://www.w3.org/2000/svg" width="1280" height="256.231" viewBox="0 0 1280 256.231">
  <g id="Group_165" data-name="Group 165" transform="translate(1885 2044)">
    <path id="Path_348" data-name="Path 348" d="M0-68.022H1280l0,88.879C1126.411-5.511,967.182-7.421,812.425,18.235,658.764,43.708,513.693,94.44,363.615,130.483A2373.52,2373.52,0,0,1,0,188.209Z" transform="translate(-605 -1855.791) rotate(180)" fill="#fff"/>
    <path id="Path_351" data-name="Path 351" d="M749.628,789.4c165.254-36.433,319.8-100.275,480.582-148.18q121.667-36.169,246.45-60.016A2373.514,2373.514,0,0,0,1186.421,631.9c-150.078,36.043-295.149,86.775-448.81,112.248-154.757,25.656-313.986,23.746-467.575-2.622v73.494C429.324,831.8,592.321,824.086,749.628,789.4Z" transform="translate(-2155.036 -2618.203)" fill="#aa58a4" opacity="0.105" style="isolation: isolate"/>
  </g>
</svg>
