<svg id="hospital-sign" xmlns="http://www.w3.org/2000/svg" width="88" height="88" viewBox="0 0 88 88">
  <g id="Group_8" data-name="Group 8" transform="translate(21.141 14.266)">
    <g id="Group_7" data-name="Group 7">
      <path id="Path_12" data-name="Path 12" d="M124.719,83a1.719,1.719,0,1,0,1.719,1.719A1.719,1.719,0,0,0,124.719,83Z" transform="translate(-123 -83)" fill="#aa58a4"/>
    </g>
  </g>
  <g id="Group_10" data-name="Group 10">
    <g id="Group_9" data-name="Group 9">
      <path id="Path_13" data-name="Path 13" d="M44,0C20.285,0,0,20.247,0,44,0,67.721,20.249,88,44,88c23.715,0,44-20.247,44-44C88,20.279,67.751,0,44,0Zm0,84.563C22.013,84.563,3.438,65.987,3.438,44S22.013,3.438,44,3.438,84.563,22.013,84.563,44,65.987,84.563,44,84.563Z" fill="#aa58a4"/>
    </g>
  </g>
  <g id="Group_12" data-name="Group 12" transform="translate(7.391 7.391)">
    <g id="Group_11" data-name="Group 11">
      <path id="Path_14" data-name="Path 14" d="M79.609,43a38.455,38.455,0,0,0-16,3.49,1.719,1.719,0,1,0,1.479,3.1,34.9,34.9,0,0,1,14.516-3.155c17.981,0,33.172,15.191,33.172,33.172S97.59,112.781,79.609,112.781,46.438,97.59,46.438,79.609A33.741,33.741,0,0,1,54.7,57.4a1.719,1.719,0,1,0-2.567-2.286,36.826,36.826,0,0,0,27.472,61.1,37.018,37.018,0,0,0,36.609-36.609A37.018,37.018,0,0,0,79.609,43Z" transform="translate(-43 -43)" fill="#aa58a4"/>
    </g>
  </g>
  <g id="Group_14" data-name="Group 14" transform="translate(21.656 21.656)">
    <g id="Group_13" data-name="Group 13">
      <path id="Path_15" data-name="Path 15" d="M168.969,139.75H156.938V127.719A1.719,1.719,0,0,0,155.219,126h-13.75a1.719,1.719,0,0,0-1.719,1.719V139.75H127.719A1.719,1.719,0,0,0,126,141.469v13.75a1.719,1.719,0,0,0,1.719,1.719H139.75v12.031a1.719,1.719,0,0,0,1.719,1.719h13.75a1.719,1.719,0,0,0,1.719-1.719V156.938h12.031a1.719,1.719,0,0,0,1.719-1.719v-13.75A1.719,1.719,0,0,0,168.969,139.75ZM167.25,153.5H155.219a1.719,1.719,0,0,0-1.719,1.719V167.25H143.188V155.219a1.719,1.719,0,0,0-1.719-1.719H129.438V143.188h12.031a1.719,1.719,0,0,0,1.719-1.719V129.438H153.5v12.031a1.719,1.719,0,0,0,1.719,1.719H167.25Z" transform="translate(-126 -126)" fill="#aa58a4"/>
    </g>
  </g>
</svg>
