<svg id="Group_151" data-name="Group 151" xmlns="http://www.w3.org/2000/svg" width="165.696" height="128.087" viewBox="0 0 165.696 128.087">
  <path id="Path_254" data-name="Path 254" d="M1459.031,541.136h-127.15A11.866,11.866,0,0,0,1320.012,553V663.724h135.034a25.162,25.162,0,0,0,25.163-25.158V562.31A21.174,21.174,0,0,0,1459.031,541.136Zm-133.519,13.5a8,8,0,0,1,8-8H1364.6a21.1,21.1,0,0,0-6.98,15.679v95.919h-32.1Z" transform="translate(-1314.513 -535.637)" fill="#3c0749" opacity="0.1"/>
  <path id="Path_255" data-name="Path 255" d="M1457.734,539.84H1337.328a18.61,18.61,0,0,0-18.611,18.611V662.432h101.172v0h37.846a21.174,21.174,0,0,0,21.178-21.174V561.018A21.175,21.175,0,0,0,1457.734,539.84Zm-133.519,18.611a13.126,13.126,0,0,1,13.112-13.112H1363.3a21.088,21.088,0,0,0-6.976,15.679v95.915h-32.109Z" transform="translate(-1318.716 -539.84)" fill="#aa58a4"/>
  <g id="Group_147" data-name="Group 147" transform="translate(43.103 5.499)" opacity="0.3">
    <path id="Path_256" data-name="Path 256" d="M1330.17,554.38v94.15h90.42a15.7,15.7,0,0,0,15.679-15.679V552.615a15.6,15.6,0,0,0-3.781-10.184h-90.373A11.95,11.95,0,0,0,1330.17,554.38Z" transform="translate(-1324.671 -536.936)" fill="#aa58a4"/>
    <path id="Path_257" data-name="Path 257" d="M1424.793,541.136h-80.236a15.7,15.7,0,0,0-15.683,15.679V652.73h5.5V558.58a11.95,11.95,0,0,1,11.945-11.949h90.373A15.644,15.644,0,0,0,1424.793,541.136Z" transform="translate(-1328.874 -541.136)" fill="#3c0749"/>
  </g>
  <g id="Group_148" data-name="Group 148" transform="translate(15.925 15.708)">
    <path id="Path_258" data-name="Path 258" d="M1333.7,564.585v2.589l-6.662,1.914a4.9,4.9,0,0,1-1.125.182v.166a5.16,5.16,0,0,1,1.137.165l6.649,1.782v2.588c-3.645.84-7.341,1.553-11,2.045a13.7,13.7,0,0,1-.216-2.342l6.717-1.086a8.44,8.44,0,0,1,1.188-.119v-.161a8.512,8.512,0,0,1-1.154-.216l-6.649-1.8v-2.245l6.666-1.731a7.681,7.681,0,0,1,1.138-.212v-.17a9.257,9.257,0,0,1-1.138-.127l-6.768-1.175a12.1,12.1,0,0,1,.216-2.16C1326.4,563.032,1330.007,563.762,1333.7,564.585Z" transform="translate(-1322.42 -482.147)" fill="#aa58a4"/>
    <path id="Path_259" data-name="Path 259" d="M1333.918,564.564c0,2.873-1.583,4.782-5.661,4.782-4.1,0-5.788-1.977-5.788-4.765,0-2.873,1.583-4.786,5.724-4.786C1332.237,559.794,1333.918,561.776,1333.918,564.564Zm-9.369.017c0,1.485.806,2.147,3.645,2.147,2.741,0,3.645-.662,3.645-2.164,0-1.519-.857-2.147-3.645-2.147C1325.355,562.416,1324.549,563.146,1324.549,564.58Z" transform="translate(-1322.469 -490.832)" fill="#aa58a4"/>
    <path id="Path_260" data-name="Path 260" d="M1333.835,559.885l-1.684.759a13.054,13.054,0,0,0-2.656,1.532v1.006h4.222v2.376h-11a31.167,31.167,0,0,1-.233-3.679c0-2.045.959-3.742,3.318-3.742a3.107,3.107,0,0,1,2.953,2.011,8,8,0,0,1,2.343-1.634l2.491-1.188A13.433,13.433,0,0,1,1333.835,559.885Zm-9.39,2.16c0,.429.017.794.051,1.137h3.166v-.938a1.5,1.5,0,0,0-1.68-1.651A1.341,1.341,0,0,0,1324.445,562.044Z" transform="translate(-1322.433 -498.837)" fill="#aa58a4"/>
    <path id="Path_261" data-name="Path 261" d="M1333.792,557.371l-4.786,2.788,1.273,1.04h3.412v2.41h-11.117V561.2h4.88v-.115a25.951,25.951,0,0,1-3.212-2.177l-1.752-1.371a13.106,13.106,0,0,1,.25-2.508l4.417,3.581c1.935-1.256,4.193-2.576,6.42-3.764A17.71,17.71,0,0,1,1333.792,557.371Z" transform="translate(-1322.407 -506.88)" fill="#aa58a4"/>
    <path id="Path_262" data-name="Path 262" d="M1324.651,553.065v3.908h2.589v-3.25h2.13v3.25h4.256v2.44h-11.117V552.9A14.475,14.475,0,0,1,1324.651,553.065Z" transform="translate(-1322.342 -513.195)" fill="#aa58a4"/>
    <path id="Path_263" data-name="Path 263" d="M1333.918,555.04c0,2.873-1.583,4.786-5.661,4.786-4.1,0-5.788-1.982-5.788-4.77,0-2.868,1.583-4.782,5.724-4.782C1332.237,550.275,1333.918,552.252,1333.918,555.04Zm-9.369.017c0,1.485.806,2.147,3.645,2.147,2.741,0,3.645-.662,3.645-2.164s-.857-2.143-3.645-2.143C1325.355,552.9,1324.549,553.623,1324.549,555.057Z" transform="translate(-1322.469 -521.705)" fill="#aa58a4"/>
    <path id="Path_264" data-name="Path 264" d="M1333.835,550.361l-1.684.76a13.02,13.02,0,0,0-2.656,1.536v1.006h4.222v2.376h-11a31.223,31.223,0,0,1-.233-3.679c0-2.045.959-3.747,3.318-3.747a3.113,3.113,0,0,1,2.953,2.011,7.993,7.993,0,0,1,2.343-1.63l2.491-1.188A13.388,13.388,0,0,1,1333.835,550.361Zm-9.39,2.164c0,.429.017.789.051,1.137h3.166v-.942a1.5,1.5,0,0,0-1.68-1.651A1.343,1.343,0,0,0,1324.445,552.526Z" transform="translate(-1322.433 -529.709)" fill="#aa58a4"/>
    <path id="Path_265" data-name="Path 265" d="M1333.918,548.732c0,3.233-1.977,4.965-5.742,4.965-3.976,0-5.707-2.126-5.707-4.8a8.366,8.366,0,0,1,.526-3.038,15.955,15.955,0,0,1,2.177.331,6.26,6.26,0,0,0-.561,2.576c0,1.286.743,2.308,3.548,2.308,2.69,0,3.615-.794,3.615-2.41a5.355,5.355,0,0,0-.777-2.686,11.938,11.938,0,0,1,2.177-.348A6.635,6.635,0,0,1,1333.918,548.732Z" transform="translate(-1322.469 -536.77)" fill="#aa58a4"/>
    <path id="Path_266" data-name="Path 266" d="M1333.625,543.725v6.6h-11.117v-6.5a16.119,16.119,0,0,1,2.143.161v3.9h2.245v-2.839h2.113v2.839h2.474v-4.341A16.859,16.859,0,0,1,1333.625,543.725Z" transform="translate(-1322.342 -543.542)" fill="#aa58a4"/>
  </g>
  <g id="Group_149" data-name="Group 149" transform="translate(65.949 67.027)">
    <path id="Path_267" data-name="Path 267" d="M1341.719,566.793h-6.929V555.676h6.862a18.188,18.188,0,0,1-.2,2.457h-3.73v1.782h2.737v2.423h-2.737v2.016h4.193A18.412,18.412,0,0,1,1341.719,566.793Z" transform="translate(-1332.536 -555.506)" fill="#fff"/>
    <path id="Path_268" data-name="Path 268" d="M1343.147,566.843c.029.726.411,1.04.972,1.04a5.853,5.853,0,0,0,1.748-.4,15.6,15.6,0,0,1,.331,2.41,9.306,9.306,0,0,1-2.359.378,3.241,3.241,0,0,1-3.416-3.348c-2.3-.526-3.628-2.245-3.628-5.512,0-3.793,1.977-5.775,4.914-5.775,2.954,0,4.9,1.735,4.9,5.729C1346.609,564.513,1345.255,566.3,1343.147,566.843Zm-1.451-8.813c-1.226,0-1.8.743-1.8,3.352,0,2.44.544,3.314,1.812,3.314s1.8-.806,1.8-3.314C1343.507,558.755,1342.85,558.029,1341.7,558.029Z" transform="translate(-1326.03 -555.636)" fill="#fff"/>
    <path id="Path_269" data-name="Path 269" d="M1343.992,566.959c-2.753,0-4.438-1.188-4.438-4.8v-6.483h2.941v6.81c0,1.5.361,1.914,1.532,1.914,1.12,0,1.6-.463,1.6-1.914v-6.81h2.818v6.483C1348.448,565.228,1347.095,566.959,1343.992,566.959Z" transform="translate(-1317.082 -555.506)" fill="#fff"/>
    <path id="Path_270" data-name="Path 270" d="M1342.213,566.793V555.676h2.936v11.117Z" transform="translate(-1308.458 -555.506)" fill="#fff"/>
    <path id="Path_271" data-name="Path 271" d="M1350.865,558.133H1348.6v8.661h-2.937v-8.661h-2.393v-2.457h7.8A18.994,18.994,0,0,1,1350.865,558.133Z" transform="translate(-1305.017 -555.506)" fill="#fff"/>
    <path id="Path_272" data-name="Path 272" d="M1351.3,562.831v4.027h-2.941v-4.01a57.415,57.415,0,0,1-3.149-6.946,20.989,20.989,0,0,1,3.034-.246l1.29,3.484a8.305,8.305,0,0,1,.31,1.137h.2a10.051,10.051,0,0,1,.3-1.175l1.256-3.446a18.919,18.919,0,0,1,2.787.246A66.931,66.931,0,0,1,1351.3,562.831Z" transform="translate(-1298.738 -555.571)" fill="#fff"/>
    <path id="Path_273" data-name="Path 273" d="M1355.6,567.055l-.679-.891a4.964,4.964,0,0,1-2.885.925c-2.427,0-3.781-1.337-3.781-3.285,0-1.515.5-2.406,2.347-3.416a3.246,3.246,0,0,1-.662-1.914c0-1.731,1.09-2.839,3.1-2.839,1.879,0,3.051.845,3.051,2.478,0,1.12-.48,1.977-1.994,2.92.343.479,1.005,1.353,1.269,1.68.513-.543,1.239-1.366,2.325-2.7a26.29,26.29,0,0,1,.251,3.234,14.485,14.485,0,0,1-1.155,1.285l1.715,2.228A17.122,17.122,0,0,1,1355.6,567.055Zm-4.655-3.594c0,.823.377,1.286,1.239,1.286a2.554,2.554,0,0,0,1.337-.395c-.547-.645-1.319-1.651-1.731-2.2A1.345,1.345,0,0,0,1350.948,563.461Zm2.113-5.86c-.4,0-.645.216-.645.708a1.785,1.785,0,0,0,.462,1.023c.645-.327.857-.692.857-1.137C1353.735,557.8,1353.489,557.6,1353.061,557.6Z" transform="translate(-1288.856 -555.636)" fill="#fff"/>
    <path id="Path_274" data-name="Path 274" d="M1341.187,570.68h-6.929V559.563h6.865a18.207,18.207,0,0,1-.2,2.457h-3.73V563.8h2.741v2.423h-2.741v2.015h4.193A17.73,17.73,0,0,1,1341.187,570.68Z" transform="translate(-1334.258 -542.9)" fill="#fff"/>
    <path id="Path_275" data-name="Path 275" d="M1342.616,570.73c.034.726.411,1.039.972,1.039a5.9,5.9,0,0,0,1.752-.4,15.588,15.588,0,0,1,.327,2.41,9.092,9.092,0,0,1-2.359.378,3.241,3.241,0,0,1-3.416-3.348c-2.291-.526-3.628-2.245-3.628-5.508,0-3.8,1.981-5.779,4.918-5.779,2.954,0,4.9,1.735,4.9,5.728C1346.083,568.4,1344.729,570.186,1342.616,570.73Zm-1.452-8.814c-1.222,0-1.8.743-1.8,3.352,0,2.44.544,3.314,1.816,3.314,1.252,0,1.8-.806,1.8-3.314C1342.981,562.646,1342.319,561.916,1341.165,561.916Z" transform="translate(-1327.752 -543.029)" fill="#fff"/>
    <path id="Path_276" data-name="Path 276" d="M1343.462,570.846c-2.758,0-4.438-1.188-4.438-4.8v-6.484h2.936v6.811c0,1.5.365,1.914,1.532,1.914,1.125,0,1.6-.463,1.6-1.914v-6.811h2.822v6.484C1347.918,569.115,1346.564,570.846,1343.462,570.846Z" transform="translate(-1318.801 -542.9)" fill="#fff"/>
    <path id="Path_277" data-name="Path 277" d="M1348.272,570.765l-.675-2.656h-2.758l-.658,2.656a13.713,13.713,0,0,1-2.775-.25c.895-3.73,1.964-7.277,3.2-10.952h3.365c1.206,3.7,2.325,7.638,3.153,10.952A14.93,14.93,0,0,1,1348.272,570.765Zm-1.833-7.18a5.54,5.54,0,0,1-.148-1.171h-.195a5.54,5.54,0,0,1-.149,1.171l-.53,2.181H1347Z" transform="translate(-1311.076 -542.9)" fill="#fff"/>
    <path id="Path_278" data-name="Path 278" d="M1350.618,570.68H1344V559.563h2.936v8.593h3.862A21.247,21.247,0,0,1,1350.618,570.68Z" transform="translate(-1302.652 -542.9)" fill="#fff"/>
    <path id="Path_279" data-name="Path 279" d="M1346.013,570.68V559.563h2.936V570.68Z" transform="translate(-1296.134 -542.9)" fill="#fff"/>
    <path id="Path_280" data-name="Path 280" d="M1354.661,562.02H1352.4v8.66h-2.941v-8.66h-2.388v-2.457h7.8A18.316,18.316,0,0,1,1354.661,562.02Z" transform="translate(-1292.693 -542.9)" fill="#fff"/>
    <path id="Path_281" data-name="Path 281" d="M1355.1,566.722v4.023h-2.936v-4.01a57.832,57.832,0,0,1-3.152-6.946,21.035,21.035,0,0,1,3.038-.246l1.285,3.484a8.87,8.87,0,0,1,.315,1.137h.2a8.419,8.419,0,0,1,.3-1.171l1.252-3.45a18.87,18.87,0,0,1,2.787.246A66.11,66.11,0,0,1,1355.1,566.722Z" transform="translate(-1286.417 -542.964)" fill="#fff"/>
  </g>
  <path id="Path_282" data-name="Path 282" d="M1369.116,555.787c-.013-.131-.03-.263-.047-.395a12.032,12.032,0,0,0-2.762-6.458c-.183-.216-.373-.433-.577-.636a12.573,12.573,0,0,0-1.146-1.04,12.057,12.057,0,0,0-5.563-2.4l-.051-.008-.055-.008a12.137,12.137,0,0,0-1.748-.14,12.478,12.478,0,0,0-4.243.675,11.683,11.683,0,0,0-5.542,3.989,11.964,11.964,0,0,0-2.427,6.178,14.129,14.129,0,0,0,.374,5.329l.06.191c.06.2.131.4.2.6a11.786,11.786,0,0,0,1.022,2.139,12.268,12.268,0,0,0,2.381,2.792c1.018.891,2.075,1.736,3.1,2.622a2.474,2.474,0,0,1,1.036,1.774c.012.276.2.221.348.148a8.813,8.813,0,0,0,.959-.543,2.883,2.883,0,0,0,.166-4.973c-.814-.552-1.634-1.1-2.393-1.731-.174-.144-.339-.293-.505-.441a6.638,6.638,0,0,1-1.9-2.86c-.369-1.159-.076-1.625,1.116-1.676,1.213-.055,2.427-.14,3.641-.161,1.082-.021,2.164-.026,3.247-.021,1.731.013,3.462.063,5.189.17.128.008.238.013.344.025.929.076,1.154.263.967,1.5l-.017.106a1.2,1.2,0,0,1-.051.17,5.11,5.11,0,0,1-.327.823,6.088,6.088,0,0,1-2.168,2.38c-.735.488-1.5.921-2.245,1.4a1.687,1.687,0,0,0-.072,2.911,2.669,2.669,0,0,0,2.894.191,10.792,10.792,0,0,0,5.541-5.38,12.881,12.881,0,0,0,1.048-3.009A13.658,13.658,0,0,0,1369.116,555.787Zm-7.749,11.185a.673.673,0,0,1-.683-.662.654.654,0,0,1,1.306-.051A.645.645,0,0,1,1361.367,566.972Zm2.605-10.091a3.621,3.621,0,0,1-.611.034c-.28-.034-.772-.068-1.247-.157-.8-.148-1.125-.764-1.379-1.46a4.084,4.084,0,0,0-1.948-2.414,3.745,3.745,0,0,0-5.155,1.7l-.076.161c-.166.344-.306.7-.463,1.052a1.568,1.568,0,0,1-1.3.985,6.346,6.346,0,0,1-1.676.106c-.552-.063-.755-.305-.713-.853l.008-.047c.013-.174.034-.352.06-.526a7.46,7.46,0,0,1,5.164-6,7.851,7.851,0,0,1,3.369-.31c.1.013.2.026.306.042a7.666,7.666,0,0,1,4.306,2.262,7.362,7.362,0,0,1,1.219,1.714,7.9,7.9,0,0,1,.785,2.61C1364.711,556.47,1364.567,556.784,1363.973,556.881Z" transform="translate(-1233.925 -524.085)" fill="#fff"/>
  <g id="Group_150" data-name="Group 150" transform="translate(66.182 23.244)">
    <path id="Path_283" data-name="Path 283" d="M1334.313,565.905v-4.888h6.055V550.333l-5.453.641a22.139,22.139,0,0,1-.454-4.324l6.094-1.243h4.664v15.611h4.327a30.312,30.312,0,0,1-.377,4.888Z" transform="translate(-1334.313 -545.033)" fill="#fff"/>
    <path id="Path_284" data-name="Path 284" d="M1346.12,566.568c-4.706,0-8.05-3.047-8.05-10.646,0-7.26,3.5-10.6,8.05-10.6,4.888,0,8.049,3.157,8.049,10.6C1354.169,562.8,1351.084,566.568,1346.12,566.568Zm0-16.74c-2.334,0-2.86,2.109-2.86,6.094,0,4.175.488,6.17,2.86,6.17s2.855-2.181,2.855-6.17C1348.975,552.01,1348.564,549.829,1346.12,549.829Z" transform="translate(-1322.129 -545.318)" fill="#fff"/>
  </g>
</svg>
