<svg xmlns="http://www.w3.org/2000/svg" width="864" height="288" viewBox="0 0 864 288">
  <g id="Group_164" data-name="Group 164" transform="translate(-208 -964)">
    <rect id="Rectangle_295" data-name="Rectangle 295" width="864" height="288" rx="144" transform="translate(208 964)" fill="#c1c1c1" opacity="0.097"/>
    <g id="Group_144" data-name="Group 144" transform="translate(-813.535 378.451)">
      <g id="Group_123" data-name="Group 123" transform="translate(1608.909 725.823)" opacity="0.25">
        <path id="Path_125" data-name="Path 125" d="M1399.629,699.921v-2.739h9.511v2.739Zm0,5.223V702.4h9.511v2.741Z" transform="translate(-1399.629 -697.182)" fill="#aa58a4"/>
      </g>
      <g id="Group_124" data-name="Group 124" transform="translate(1269.346 673.49)">
        <path id="Path_126" data-name="Path 126" d="M1247.2,688.537a.586.586,0,0,0-.581.606.623.623,0,0,0,.631.608.6.6,0,0,0,.573-.657A.578.578,0,0,0,1247.2,688.537Z" transform="translate(-1164.679 -650.76)" fill="#aa58a4"/>
        <path id="Path_127" data-name="Path 127" d="M1249.336,705.881c0-.364-.225-.546-.621-.546-.364,0-.591.2-.591.652a1.647,1.647,0,0,0,.426.94C1249.141,706.623,1249.336,706.29,1249.336,705.881Z" transform="translate(-1163.652 -639.274)" fill="#aa58a4"/>
        <path id="Path_128" data-name="Path 128" d="M1232.984,714.911h-.182a4.81,4.81,0,0,1-.137,1.078l-.485,2h1.457l-.517-2A5.224,5.224,0,0,1,1232.984,714.911Z" transform="translate(-1174.552 -632.727)" fill="#aa58a4"/>
        <path id="Path_129" data-name="Path 129" d="M1253.728,683.251a6.718,6.718,0,0,0-1.121-1.574,7.03,7.03,0,0,0-3.957-2.078c-.093-.015-.187-.029-.281-.04a7.123,7.123,0,0,0-1.505-.032,7.48,7.48,0,0,0-1.589.315,6.85,6.85,0,0,0-4.741,5.516c-.025.158-.044.32-.057.483l-.005.04c-.041.5.147.724.652.786a5.989,5.989,0,0,0,1.541-.1,1.44,1.44,0,0,0,1.2-.906c.14-.322.269-.65.421-.966.024-.049.046-.1.071-.146a3.443,3.443,0,0,1,4.736-1.564,3.732,3.732,0,0,1,1.788,2.219c.236.636.532,1.2,1.268,1.342.44.082.889.113,1.15.145a3.321,3.321,0,0,0,.559-.034c.546-.091.677-.379.593-1.01A7.292,7.292,0,0,0,1253.728,683.251Z" transform="translate(-1168.889 -656.938)" fill="#aa58a4"/>
        <path id="Path_130" data-name="Path 130" d="M1248.459,710.2a2.351,2.351,0,0,0,1.229-.364c-.5-.591-1.212-1.515-1.593-2.016a1.232,1.232,0,0,0-.773,1.2C1247.323,709.775,1247.671,710.2,1248.459,710.2Z" transform="translate(-1164.2 -637.575)" fill="#aa58a4"/>
        <path id="Path_131" data-name="Path 131" d="M1291.124,666.1h-73.713a19.458,19.458,0,0,0-19.457,19.457v93.17h93.17a19.457,19.457,0,0,0,19.457-19.457V685.557A19.457,19.457,0,0,0,1291.124,666.1ZM1230.4,755.879h-6.366V745.662h6.305a16.591,16.591,0,0,1-.182,2.258h-3.425v1.638h2.516v2.228h-2.516v1.85h3.849A16.748,16.748,0,0,1,1230.4,755.879Zm-5.6-63.375a20.6,20.6,0,0,1-.416-3.975l5.6-1.14h4.285v14.34h3.974a27.551,27.551,0,0,1-.347,4.492h-13.648v-4.492h5.563v-9.814Zm6.516,41.9v2.227H1228.8v1.85h3.851a16.746,16.746,0,0,1-.182,2.243H1226.1V730.509h6.305a16.555,16.555,0,0,1-.182,2.258H1228.8V734.4Zm7.267,22.353a5.369,5.369,0,0,0,1.606-.365,13.82,13.82,0,0,1,.3,2.214,8.424,8.424,0,0,1-2.167.349,2.977,2.977,0,0,1-3.137-3.076c-2.108-.485-3.335-2.063-3.335-5.063,0-3.487,1.818-5.307,4.517-5.307s4.5,1.593,4.5,5.26c0,2.9-1.244,4.534-3.184,5.034C1237.718,756.47,1238.067,756.758,1238.582,756.758Zm1.812-12.956a2.978,2.978,0,0,1-3.138-3.076c-2.106-.485-3.334-2.062-3.334-5.063,0-3.487,1.818-5.307,4.516-5.307,2.714,0,4.5,1.593,4.5,5.26,0,2.9-1.243,4.534-3.184,5.034.032.667.38.954.9.954a5.377,5.377,0,0,0,1.606-.365,14.192,14.192,0,0,1,.3,2.214A8.424,8.424,0,0,1,1240.394,743.8Zm-1.5-47.014c0-6.669,3.213-9.744,7.4-9.744,4.492,0,7.395,2.9,7.395,9.744,0,6.324-2.834,9.779-7.395,9.779C1241.966,706.566,1238.892,703.768,1238.892,696.787Zm11.889,54.832c0,2.818-1.241,4.41-4.091,4.41-2.532,0-4.078-1.091-4.078-4.41v-5.957h2.7v6.26c0,1.379.333,1.758,1.409,1.758,1.031,0,1.47-.424,1.47-1.758v-6.26h2.591Zm-2.024-10.744c-2.53,0-4.076-1.091-4.076-4.41v-5.957h2.7v6.26c0,1.379.333,1.758,1.409,1.758,1.032,0,1.472-.424,1.472-1.758v-6.26h2.591v5.957C1252.85,739.284,1251.607,740.875,1248.756,740.875Zm9.449,15.079-.621-2.441h-2.532l-.606,2.441a12.76,12.76,0,0,1-2.546-.227c.818-3.426,1.8-6.686,2.94-10.065h3.093c1.106,3.4,2.137,7.018,2.894,10.065A13.735,13.735,0,0,1,1258.205,755.955Zm-3.16-15.229V730.509h2.7v10.217Zm4.135-7.959v-2.258h7.169a17.284,17.284,0,0,1-.2,2.258h-2.076v7.959h-2.7v-7.959Zm20.972.2c0-1.591,1-2.608,2.85-2.608,1.728,0,2.8.775,2.8,2.275,0,1.03-.439,1.818-1.833,2.684.318.44.924,1.243,1.167,1.546.47-.5,1.137-1.258,2.137-2.487a24.223,24.223,0,0,1,.227,2.972,13.113,13.113,0,0,1-1.061,1.182l1.576,2.047a15.755,15.755,0,0,1-2.667.273l-.621-.818a4.551,4.551,0,0,1-2.654.847c-2.228,0-3.47-1.227-3.47-3.016,0-1.394.455-2.212,2.152-3.138A2.994,2.994,0,0,1,1280.153,732.964Zm7.3-34.265a11.756,11.756,0,0,1-.962,2.766,9.924,9.924,0,0,1-5.092,4.943,2.46,2.46,0,0,1-2.66-.177,1.549,1.549,0,0,1,.069-2.674c.68-.438,1.387-.837,2.059-1.286a5.615,5.615,0,0,0,2-2.187,5.073,5.073,0,0,0,.3-.754,1.318,1.318,0,0,0,.044-.157l.015-.1c.172-1.137-.034-1.308-.886-1.381-.1-.008-.2-.015-.317-.022-1.589-.1-3.179-.143-4.768-.155q-1.492-.01-2.984.017c-1.115.02-2.227.1-3.342.15-1.1.049-1.367.475-1.029,1.542a6.1,6.1,0,0,0,1.749,2.625c.15.138.3.274.461.406.7.579,1.453,1.083,2.2,1.59a2.65,2.65,0,0,1-.152,4.57,8.218,8.218,0,0,1-.882.5c-.133.067-.31.12-.318-.135a2.272,2.272,0,0,0-.953-1.63c-.939-.815-1.911-1.589-2.845-2.408a11.283,11.283,0,0,1-2.187-2.568,10.56,10.56,0,0,1-.939-1.965c-.066-.18-.128-.362-.185-.547-.017-.059-.035-.118-.052-.177a12.907,12.907,0,0,1-.343-4.894,11.042,11.042,0,0,1,4.4-7.816,10.787,10.787,0,0,1,2.921-1.525,11.68,11.68,0,0,1,5.506-.493l.049.008.047.008a11.076,11.076,0,0,1,5.113,2.206,11.732,11.732,0,0,1,1.051.953c.187.192.362.387.53.586a11.061,11.061,0,0,1,2.541,5.937c.015.12.031.239.042.362A12.6,12.6,0,0,1,1287.45,698.7Zm-19.351,57.18h-6.076V745.662h2.7v7.9h3.547A18.838,18.838,0,0,1,1268.1,755.879Zm-1.372-25.219a18.807,18.807,0,0,1,2.788-.229l1.182,3.2a7.851,7.851,0,0,1,.288,1.046h.184a8.59,8.59,0,0,1,.271-1.078l1.153-3.169a17.3,17.3,0,0,1,2.561.229,60.867,60.867,0,0,1-2.834,6.366v3.7h-2.7v-3.684A53,53,0,0,1,1266.727,730.66Zm5.827,25.219h-2.7V745.662h2.7Zm8.412-7.959h-2.078v7.959h-2.7V747.92h-2.2v-2.258h7.171A17.3,17.3,0,0,1,1280.966,747.92Zm6.166,4.26v3.7h-2.7v-3.684a52.688,52.688,0,0,1-2.9-6.381,18.822,18.822,0,0,1,2.79-.229l1.182,3.2a7.858,7.858,0,0,1,.288,1.046h.182a8.572,8.572,0,0,1,.273-1.078l1.152-3.169a17.349,17.349,0,0,1,2.563.229A61.23,61.23,0,0,1,1287.132,752.18Zm-68.1-75.977a10.976,10.976,0,0,0-10.975,10.976v86.5h-5.051V685.557a14.422,14.422,0,0,1,14.406-14.406h73.713a14.372,14.372,0,0,1,10.934,5.051Z" transform="translate(-1197.954 -666.1)" fill="#aa58a4"/>
        <path id="Path_132" data-name="Path 132" d="M1221.432,714.569c-1.123,0-1.653.682-1.653,3.078,0,2.243.5,3.046,1.668,3.046,1.152,0,1.652-.742,1.652-3.046C1223.1,715.237,1222.493,714.569,1221.432,714.569Z" transform="translate(-1183.032 -632.961)" fill="#aa58a4"/>
        <path id="Path_133" data-name="Path 133" d="M1222.66,705.569c-1.121,0-1.652.682-1.652,3.078,0,2.243.5,3.046,1.667,3.046,1.152,0,1.653-.742,1.653-3.046C1224.328,706.237,1223.72,705.569,1222.66,705.569Z" transform="translate(-1182.192 -639.115)" fill="#aa58a4"/>
        <path id="Path_134" data-name="Path 134" d="M1230.351,686.6c0-3.593-.379-5.6-2.625-5.6-2.144,0-2.627,1.936-2.627,5.6,0,3.835.45,5.667,2.627,5.667S1230.351,690.263,1230.351,686.6Z" transform="translate(-1179.394 -655.912)" fill="#aa58a4"/>
        <path id="Path_135" data-name="Path 135" d="M1289.073,669.1H1215.36a14.422,14.422,0,0,0-14.406,14.406v88.119H1206v-86.5a10.976,10.976,0,0,1,10.975-10.976h83.027A14.373,14.373,0,0,0,1289.073,669.1Z" transform="translate(-1195.903 -664.049)" fill="#aa58a4"/>
        <path id="Path_136" data-name="Path 136" d="M1289.073,669.1H1215.36a14.422,14.422,0,0,0-14.406,14.406v88.119H1206v-86.5a10.976,10.976,0,0,1,10.975-10.976h83.027A14.373,14.373,0,0,0,1289.073,669.1Z" transform="translate(-1195.903 -664.049)" fill="#3c0749" opacity="0.3"/>
        <path id="Path_137" data-name="Path 137" d="M1260.233,686.931a11.061,11.061,0,0,0-2.541-5.937c-.169-.2-.344-.394-.53-.586a11.741,11.741,0,0,0-1.051-.953A11.078,11.078,0,0,0,1251,677.25l-.047-.008-.049-.008a11.679,11.679,0,0,0-5.506.493,10.784,10.784,0,0,0-2.921,1.525,11.042,11.042,0,0,0-4.4,7.816,12.91,12.91,0,0,0,.344,4.895c.017.059.035.118.052.177.057.185.12.367.185.547a10.548,10.548,0,0,0,.939,1.965,11.28,11.28,0,0,0,2.187,2.568c.934.818,1.906,1.593,2.845,2.408a2.272,2.272,0,0,1,.953,1.63c.008.254.185.2.318.135a8.25,8.25,0,0,0,.882-.5,2.65,2.65,0,0,0,.152-4.57c-.749-.507-1.5-1.01-2.2-1.589-.158-.131-.312-.268-.462-.406a6.1,6.1,0,0,1-1.749-2.625c-.339-1.067-.069-1.493,1.029-1.542,1.115-.05,2.228-.13,3.342-.15q1.493-.025,2.984-.017c1.59.012,3.179.057,4.768.155.116.007.219.013.317.022.852.072,1.057.244.886,1.381l-.015.1a1.314,1.314,0,0,1-.044.157,5.071,5.071,0,0,1-.3.754,5.614,5.614,0,0,1-2,2.187c-.672.45-1.379.849-2.059,1.286a1.549,1.549,0,0,0-.069,2.674,2.461,2.461,0,0,0,2.66.177,9.925,9.925,0,0,0,5.092-4.943,11.755,11.755,0,0,0,.961-2.766,12.6,12.6,0,0,0,.2-3.883C1260.263,687.17,1260.248,687.051,1260.233,686.931Zm-7.077,10.638a.623.623,0,0,1-.631-.608.586.586,0,0,1,.581-.606.577.577,0,0,1,.623.557A.6.6,0,0,1,1253.156,697.569Zm2.393-9.272a3.326,3.326,0,0,1-.559.034c-.261-.032-.711-.062-1.15-.145-.736-.14-1.032-.706-1.268-1.342a3.732,3.732,0,0,0-1.788-2.219,3.443,3.443,0,0,0-4.736,1.564c-.025.049-.047.1-.071.146-.152.317-.281.645-.421.966a1.441,1.441,0,0,1-1.2.906,5.994,5.994,0,0,1-1.541.1c-.505-.062-.692-.283-.651-.786l0-.04c.014-.163.032-.325.057-.483a6.85,6.85,0,0,1,4.741-5.516,7.483,7.483,0,0,1,1.589-.315,7.128,7.128,0,0,1,1.505.032c.094.012.188.025.281.04a7.031,7.031,0,0,1,3.957,2.078,6.712,6.712,0,0,1,1.121,1.574,7.3,7.3,0,0,1,.721,2.4C1256.225,687.918,1256.094,688.206,1255.548,688.3Z" transform="translate(-1170.582 -658.578)" fill="#fff"/>
        <path id="Path_138" data-name="Path 138" d="M1213.569,693.084v4.492h13.648a27.577,27.577,0,0,0,.347-4.492h-3.973v-14.34h-4.285l-5.6,1.14a20.6,20.6,0,0,0,.416,3.975l5.009-.589v9.814Z" transform="translate(-1187.278 -657.455)" fill="#fff"/>
        <path id="Path_139" data-name="Path 139" d="M1237.058,688.283c0-6.843-2.9-9.744-7.395-9.744-4.182,0-7.4,3.074-7.4,9.744,0,6.981,3.075,9.779,7.4,9.779C1234.224,698.061,1237.058,694.607,1237.058,688.283Zm-10.021,0c0-3.662.483-5.6,2.627-5.6,2.246,0,2.625,2.005,2.625,5.6,0,3.664-.448,5.667-2.625,5.667S1227.036,692.118,1227.036,688.283Z" transform="translate(-1181.33 -657.595)" fill="#fff"/>
        <path id="Path_140" data-name="Path 140" d="M1220.8,706.612a16.593,16.593,0,0,0,.182-2.258h-6.306v10.217h6.366a16.725,16.725,0,0,0,.182-2.243h-3.851v-1.85h2.515V708.25h-2.515v-1.638Z" transform="translate(-1186.523 -639.945)" fill="#fff"/>
        <path id="Path_141" data-name="Path 141" d="M1226.046,715.512c-.515,0-.864-.288-.9-.954,1.941-.5,3.184-2.138,3.184-5.034,0-3.667-1.788-5.26-4.5-5.26-2.7,0-4.516,1.82-4.516,5.307,0,3,1.228,4.578,3.334,5.063a2.978,2.978,0,0,0,3.139,3.076,8.422,8.422,0,0,0,2.167-.349,14.159,14.159,0,0,0-.3-2.214A5.374,5.374,0,0,1,1226.046,715.512Zm-2.214-2.926c-1.167,0-1.667-.8-1.667-3.046,0-2.4.53-3.078,1.652-3.078,1.061,0,1.668.669,1.668,3.078C1225.485,711.843,1224.983,712.585,1223.832,712.585Z" transform="translate(-1183.349 -640.007)" fill="#fff"/>
        <path id="Path_142" data-name="Path 142" d="M1233.875,704.354h-2.591v6.26c0,1.333-.439,1.758-1.472,1.758-1.076,0-1.409-.379-1.409-1.758v-6.26h-2.7v5.957c0,3.318,1.546,4.41,4.076,4.41,2.85,0,4.093-1.591,4.093-4.41Z" transform="translate(-1178.979 -639.945)" fill="#fff"/>
        <rect id="Rectangle_293" data-name="Rectangle 293" width="2.698" height="10.216" transform="translate(57.091 64.409)" fill="#fff"/>
        <path id="Path_143" data-name="Path 143" d="M1239.214,714.571v-7.959h2.076a17.283,17.283,0,0,0,.2-2.258h-7.169v2.258h2.2v7.959Z" transform="translate(-1173.091 -639.945)" fill="#fff"/>
        <path id="Path_144" data-name="Path 144" d="M1244.393,714.6v-3.7a60.834,60.834,0,0,0,2.834-6.366,17.3,17.3,0,0,0-2.561-.229l-1.153,3.169a8.592,8.592,0,0,0-.271,1.078h-.184a7.89,7.89,0,0,0-.288-1.046l-1.182-3.2a18.812,18.812,0,0,0-2.788.229,52.951,52.951,0,0,0,2.894,6.381V714.6Z" transform="translate(-1170.027 -639.977)" fill="#fff"/>
        <path id="Path_145" data-name="Path 145" d="M1245.856,711.767c0,1.788,1.243,3.016,3.47,3.016a4.55,4.55,0,0,0,2.654-.847l.621.818a15.762,15.762,0,0,0,2.667-.273l-1.576-2.047a13.141,13.141,0,0,0,1.061-1.182,24.2,24.2,0,0,0-.227-2.972c-1,1.229-1.667,1.987-2.137,2.487-.242-.3-.848-1.106-1.167-1.546,1.394-.865,1.833-1.653,1.833-2.684,0-1.5-1.076-2.275-2.8-2.275-1.85,0-2.85,1.017-2.85,2.608a2.992,2.992,0,0,0,.606,1.758C1246.311,709.555,1245.856,710.373,1245.856,711.767Zm4.41-5.7c.4,0,.621.182.621.546,0,.409-.2.742-.786,1.045a1.646,1.646,0,0,1-.426-.94C1249.675,706.265,1249.9,706.068,1250.266,706.068Zm-1.167,4.184c.381.5,1.091,1.424,1.593,2.015a2.351,2.351,0,0,1-1.229.364c-.788,0-1.137-.424-1.137-1.182A1.232,1.232,0,0,1,1249.1,710.252Z" transform="translate(-1165.203 -640.007)" fill="#fff"/>
        <path id="Path_146" data-name="Path 146" d="M1216.142,719.478h2.516V717.25h-2.516v-1.638h3.425a16.574,16.574,0,0,0,.182-2.258h-6.305v10.217h6.366a16.749,16.749,0,0,0,.182-2.243h-3.849Z" transform="translate(-1187.364 -633.792)" fill="#fff"/>
        <path id="Path_147" data-name="Path 147" d="M1227.106,718.523c0-3.667-1.79-5.26-4.5-5.26s-4.517,1.82-4.517,5.307c0,3,1.227,4.578,3.335,5.063a2.977,2.977,0,0,0,3.137,3.076,8.42,8.42,0,0,0,2.167-.349,13.835,13.835,0,0,0-.3-2.214,5.367,5.367,0,0,1-1.606.365c-.515,0-.864-.288-.894-.955C1225.862,723.057,1227.106,721.419,1227.106,718.523Zm-4.5,3.063c-1.168,0-1.669-.8-1.669-3.046,0-2.4.53-3.078,1.653-3.078,1.061,0,1.667.668,1.667,3.078C1224.256,720.843,1223.756,721.586,1222.6,721.586Z" transform="translate(-1184.189 -633.854)" fill="#fff"/>
        <path id="Path_148" data-name="Path 148" d="M1230.055,719.614c0,1.334-.439,1.758-1.47,1.758-1.076,0-1.409-.379-1.409-1.758v-6.26h-2.7v5.957c0,3.319,1.545,4.41,4.078,4.41,2.85,0,4.091-1.591,4.091-4.41v-5.957h-2.591Z" transform="translate(-1179.82 -633.792)" fill="#fff"/>
        <path id="Path_149" data-name="Path 149" d="M1232.934,713.354c-1.136,3.379-2.121,6.639-2.94,10.065a12.761,12.761,0,0,0,2.546.227l.606-2.441h2.532l.621,2.441a13.733,13.733,0,0,0,2.622-.227c-.758-3.047-1.788-6.669-2.894-10.065Zm.743,5.7.485-2a4.789,4.789,0,0,0,.136-1.078h.182a5.215,5.215,0,0,0,.136,1.078l.517,2Z" transform="translate(-1176.048 -633.792)" fill="#fff"/>
        <path id="Path_150" data-name="Path 150" d="M1238.7,713.354h-2.7v10.217h6.077a18.862,18.862,0,0,0,.168-2.319H1238.7Z" transform="translate(-1171.937 -633.792)" fill="#fff"/>
        <rect id="Rectangle_294" data-name="Rectangle 294" width="2.698" height="10.216" transform="translate(71.903 79.563)" fill="#fff"/>
        <path id="Path_151" data-name="Path 151" d="M1243.115,715.612h2.2v7.959h2.7v-7.959h2.078a17.279,17.279,0,0,0,.2-2.258h-7.171Z" transform="translate(-1167.077 -633.792)" fill="#fff"/>
        <path id="Path_152" data-name="Path 152" d="M1252.311,716.477a8.551,8.551,0,0,0-.273,1.078h-.182a7.852,7.852,0,0,0-.288-1.046l-1.182-3.2a18.826,18.826,0,0,0-2.79.229,52.693,52.693,0,0,0,2.9,6.381V723.6h2.7v-3.7a61.234,61.234,0,0,0,2.835-6.366,17.347,17.347,0,0,0-2.563-.229Z" transform="translate(-1164.012 -633.823)" fill="#fff"/>
      </g>
      <g id="Group_125" data-name="Group 125" transform="translate(1093.535 673.777)">
        <path id="Path_153" data-name="Path 153" d="M1125.483,712.468a.581.581,0,0,0-.416-.606,12.361,12.361,0,0,1-2.728-1.418,2.741,2.741,0,0,0-.229,1.291,6.748,6.748,0,0,0,.485,4.226,8.156,8.156,0,0,0,4.83,3.628c2.394.825,4.923.87,7.407,1.175,1.207.147,2.534-.076,3.5,1,.223.246.631.524.936.21.332-.344.094-.8-.143-1.121a4.286,4.286,0,0,0-1.879-1.406,20.912,20.912,0,0,0-5.8-1.15C1127.79,717.953,1125.767,716.027,1125.483,712.468Z" transform="translate(-1074.077 -636.069)" fill="none"/>
        <path id="Path_154" data-name="Path 154" d="M1124.288,708.683c.234.384.517.906,1.024.754.379-.113.894-.345.9-.919.015-.749.005-1.5.005-2.337a8.662,8.662,0,0,0-1.935,1.315C1123.871,707.853,1124.061,708.309,1124.288,708.683Z" transform="translate(-1072.677 -638.984)" fill="none"/>
        <path id="Path_155" data-name="Path 155" d="M1142.352,712.337a3.786,3.786,0,0,0-2.627-5.62,10.341,10.341,0,0,0-4.442.03c-1.9.332-1.861.349-1.908,2.286-.02.761.1.993.908.711a4.071,4.071,0,0,1,1.542-.04,1.163,1.163,0,0,1,1.187,1.2,2.5,2.5,0,0,1-1.718,2.748,9.943,9.943,0,0,1-6.467.487c-2.713-.685-3.827-1.859-3.5-4.554.153-1.273.606-2.542,1.844-2.963,1.261-.431,1.426-1.16,1.283-2.233a3.366,3.366,0,0,1,0-.411c0-.549-.03-1.1.008-1.645.037-.517-.153-.6-.615-.488a10.245,10.245,0,0,0-4.271,2.068,7.222,7.222,0,0,0,1.278,12.212,14.3,14.3,0,0,0,13.243.1A8.556,8.556,0,0,0,1142.352,712.337Z" transform="translate(-1074.907 -641.978)" fill="none"/>
        <path id="Path_156" data-name="Path 156" d="M1122.3,695.414a38.905,38.905,0,0,0,9.931,4.326,55.967,55.967,0,0,1,7.248,2.48c1.589.748,3.017,1.726,3.354,3.6a11.669,11.669,0,0,1-.062,3.342,10.228,10.228,0,0,1-6.134,8.685c-1.185.549-1.847,1.074-1.467,2.2,0,.734.022,1.256-.007,1.776-.02.4.091.534.51.448a15.706,15.706,0,0,0,12.008-9.582,12.62,12.62,0,0,0,.909-7.587c-.662-3.31-2.834-5.332-5.773-6.674-2.92-1.333-6.076-1.714-9.181-2.325a20.891,20.891,0,0,1-8.614-3.376,7.818,7.818,0,0,1-2.245-9.991,5.543,5.543,0,0,1,6.679-2.689,5.387,5.387,0,0,1,4.1,3.871.806.806,0,0,1-.367,1.031c-1.4.933-1.707,1.817-.978,3.68a11.707,11.707,0,0,0,2.526,3.665c1.022,1.089,1.847.945,2.458-.441a18.473,18.473,0,0,0,1.315-4.723,1.987,1.987,0,0,0-.919-2.12,3.587,3.587,0,0,1-1.638-2.356,8.135,8.135,0,0,0-3.384-4.344,9.55,9.55,0,0,0-11.8,2.049,10.074,10.074,0,0,0-2.595,7.467A8.672,8.672,0,0,0,1122.3,695.414Z" transform="translate(-1076.688 -658.872)" fill="none"/>
        <path id="Path_157" data-name="Path 157" d="M1126.725,715.947c.237.054.46.167.7.226,1.475.372,1.475.37,1.475-1.13v-1.032c-.057-.628.327-1.655-.138-2.069-.433-.382-1.44-.1-2.189-.152-.482-.034-.685.073-.65.613a16.007,16.007,0,0,1,0,2.379A.94.94,0,0,0,1126.725,715.947Z" transform="translate(-1071.4 -635.184)" fill="none"/>
        <path id="Path_158" data-name="Path 158" d="M1153.213,693.056q-7.728-.015-15.457-.007c-.21,0-.419.02-.68.035a14.815,14.815,0,0,1-.894,9.469c1.691-1.263,3.234-2.517,4.878-3.623a17.587,17.587,0,0,1,8.474-3.169,5.552,5.552,0,0,0,4.108-1.842c.172-.211.426-.44.307-.717C1153.81,692.884,1153.46,693.056,1153.213,693.056Z" transform="translate(-1064.376 -647.989)" fill="none"/>
        <path id="Path_159" data-name="Path 159" d="M1138.312,707.382c.581.032.66.236.657.731-.017,3.1-.008,6.2-.008,9.3,0,2.169.022,2.175,2.258,2.054.537-.03.726-.177.721-.761-.031-3.731,0-7.462-.029-11.193,0-.534.168-.759.668-.874a7.977,7.977,0,0,0,3.807-2.081c2.6-2.507,3.369-5.7,3.258-9.164a2.354,2.354,0,0,0-2.556-2.352h-22.629q-8.476,0-16.952.007c-.2,0-.475-.126-.6.1-.142.252.06.461.207.66a4.5,4.5,0,0,0,2.088,1.478,26.041,26.041,0,0,0,3.911.7,21.057,21.057,0,0,1,8.55,4.292,37.5,37.5,0,0,0,7.029,4.711A25.191,25.191,0,0,0,1138.312,707.382Z" transform="translate(-1084.428 -647.986)" fill="none"/>
        <path id="Path_160" data-name="Path 160" d="M1149.414,724.9a10.131,10.131,0,0,0-3.854-.845,5.355,5.355,0,0,1-2.754-.577,7.907,7.907,0,0,0-2.527-1.056,28.374,28.374,0,0,1-3.772-.97,1.948,1.948,0,0,1-1.426-2.1c0-.578-.019-1.153.007-1.728.015-.335-.089-.439-.43-.508a16.4,16.4,0,0,1-2.541-.453c0,.948-.041,1.852.01,2.751a1.923,1.923,0,0,1-1.344,2.005,10.238,10.238,0,0,1-1.7.527,13.177,13.177,0,0,0-4.607,1.468,2.886,2.886,0,0,1-1.434.5c-1.086.087-2.179.158-3.25.34a5.1,5.1,0,0,0-2.931,1.342H1150.2C1150.068,725.169,1149.7,725.06,1149.414,724.9Z" transform="translate(-1077.585 -631.814)" fill="none"/>
        <path id="Path_161" data-name="Path 161" d="M1204.6,703.6c-11.821.03-23.643.013-35.464.039-.737,0-.936-.169-.934-.924q.041-17.489.019-34.981c0-1.389,0-1.389-1.381-1.46h-34.577c-1.374.071-1.374.071-1.374,1.47q0,17.53.017,35.06c0,.68-.156.852-.845.85q-14.646-.038-29.292-.017c-2.167,0-4.334.022-6.5-.015-.593-.01-.724.175-.71.736.03,1.315-.01,2.632-.022,3.947v32.107c-.037.48.214.564.645.561,2.084-.022,4.17-.01,6.255-.01q14.81,0,29.622-.017c.685,0,.849.163.849.849q-.035,17.53-.017,35.062c0,1.4,0,1.4,1.374,1.47h24.7q5.6-.015,11.192-.029c.017-.328.049-.655.049-.982q.005-17.739-.015-35.481c0-.724.17-.891.891-.891q17.735.04,35.471.017c.328,0,.656-.027.983-.042l.026-.5V708.291c-.005-1.234-.062-2.47,0-3.7C1205.6,703.823,1205.424,703.594,1204.6,703.6Zm-66.981-15.832a9.55,9.55,0,0,1,11.8-2.049,8.135,8.135,0,0,1,3.384,4.344,3.587,3.587,0,0,0,1.638,2.356,1.987,1.987,0,0,1,.919,2.12,18.457,18.457,0,0,1-1.315,4.723c-.611,1.386-1.436,1.531-2.458.441a11.712,11.712,0,0,1-2.526-3.665c-.729-1.864-.422-2.748.978-3.68a.806.806,0,0,0,.367-1.031,5.387,5.387,0,0,0-4.1-3.871,5.543,5.543,0,0,0-6.679,2.689,7.818,7.818,0,0,0,2.244,9.991,20.9,20.9,0,0,0,8.614,3.376c3.1.611,6.262.992,9.182,2.325,2.939,1.342,5.112,3.364,5.773,6.674a12.62,12.62,0,0,1-.909,7.587,15.706,15.706,0,0,1-12.008,9.582c-.419.086-.53-.047-.51-.448.028-.52.007-1.042.007-1.776-.381-1.128.281-1.653,1.466-2.2a10.227,10.227,0,0,0,6.134-8.685,11.664,11.664,0,0,0,.062-3.342c-.337-1.879-1.765-2.857-3.354-3.6a56.009,56.009,0,0,0-7.248-2.48,38.913,38.913,0,0,1-9.931-4.325,8.672,8.672,0,0,1-4.121-7.58A10.074,10.074,0,0,1,1137.621,687.765Zm10.432,55.724c-.035-.54.168-.647.65-.613.749.054,1.756-.231,2.189.152.465.414.081,1.441.138,2.069v1.032c0,1.5,0,1.5-1.475,1.13-.236-.059-.458-.172-.7-.226a.939.939,0,0,1-.808-1.165A16.006,16.006,0,0,0,1148.054,743.489Zm2.851,5.007a20.913,20.913,0,0,1,5.8,1.15,4.282,4.282,0,0,1,1.879,1.406c.238.316.475.778.143,1.121-.3.313-.714.035-.936-.21-.968-1.073-2.295-.85-3.5-1-2.483-.3-5.013-.35-7.407-1.175a8.158,8.158,0,0,1-4.831-3.628,6.748,6.748,0,0,1-.485-4.226,2.737,2.737,0,0,1,.229-1.292,12.367,12.367,0,0,0,2.728,1.418.581.581,0,0,1,.416.606C1145.225,746.229,1147.247,748.155,1150.9,748.5Zm5.817-7.984a14.3,14.3,0,0,1-13.242-.1A7.222,7.222,0,0,1,1142.2,728.2a10.245,10.245,0,0,1,4.271-2.068c.462-.108.652-.029.615.488-.039.545-.008,1.1-.008,1.645a3.342,3.342,0,0,0,0,.411c.143,1.072-.022,1.8-1.283,2.233-1.238.421-1.69,1.69-1.844,2.963-.325,2.7.79,3.869,3.5,4.554a9.943,9.943,0,0,0,6.467-.487,2.5,2.5,0,0,0,1.718-2.748,1.163,1.163,0,0,0-1.187-1.2,4.07,4.07,0,0,0-1.542.04c-.8.283-.928.05-.908-.711.047-1.938.012-1.955,1.907-2.286a10.342,10.342,0,0,1,4.442-.03,3.786,3.786,0,0,1,2.627,5.62A8.554,8.554,0,0,1,1156.721,740.513Zm-9.648-4.708c-.01.574-.525.807-.9.919-.507.152-.79-.37-1.024-.754s-.418-.83,0-1.187a8.659,8.659,0,0,1,1.935-1.315C1147.079,734.3,1147.089,735.056,1147.074,735.8Zm-16.308-17.236a21.054,21.054,0,0,0-8.55-4.292,26.068,26.068,0,0,1-3.911-.7,4.5,4.5,0,0,1-2.088-1.478c-.147-.2-.349-.408-.207-.66.129-.231.4-.1.6-.1q8.476-.013,16.952-.007h22.629a2.354,2.354,0,0,1,2.556,2.352c.111,3.463-.655,6.657-3.258,9.164a7.974,7.974,0,0,1-3.807,2.081c-.5.115-.672.34-.668.874.025,3.731,0,7.462.029,11.193,0,.584-.183.731-.721.761-2.236.121-2.258.115-2.258-2.054,0-3.1-.008-6.2.008-9.3,0-.5-.076-.7-.657-.731a25.19,25.19,0,0,1-9.624-2.387A37.5,37.5,0,0,1,1130.765,718.569Zm2.049,41.487a5.1,5.1,0,0,1,2.931-1.342c1.071-.182,2.164-.253,3.25-.34a2.885,2.885,0,0,0,1.434-.5,13.179,13.179,0,0,1,4.607-1.468,10.228,10.228,0,0,0,1.7-.527,1.923,1.923,0,0,0,1.344-2.005c-.051-.9-.01-1.8-.01-2.751a16.4,16.4,0,0,0,2.541.453c.34.069.445.173.43.508-.025.574-.007,1.15-.007,1.728a1.948,1.948,0,0,0,1.426,2.1,28.363,28.363,0,0,0,3.771.97,7.9,7.9,0,0,1,2.527,1.056,5.355,5.355,0,0,0,2.754.577,10.13,10.13,0,0,1,3.854.845c.291.155.655.264.784.694ZM1182.8,712.2a5.552,5.552,0,0,1-4.108,1.842,17.587,17.587,0,0,0-8.474,3.169c-1.643,1.106-3.187,2.36-4.878,3.623a14.816,14.816,0,0,0,.894-9.469c.261-.015.47-.035.68-.035q7.729,0,15.457.007c.247,0,.6-.172.736.146C1183.226,711.761,1182.972,711.99,1182.8,712.2Z" transform="translate(-1093.535 -666.271)" fill="#009c00"/>
      </g>
      <g id="Group_130" data-name="Group 130" transform="translate(1442.385 733.335)">
        <path id="Path_162" data-name="Path 162" d="M1357.184,702.94H1306.73a4.708,4.708,0,0,0-4.708,4.709v43.935H1355.6a9.985,9.985,0,0,0,9.984-9.984V711.343A8.4,8.4,0,0,0,1357.184,702.94ZM1304.2,708.3a3.175,3.175,0,0,1,3.175-3.174h12.333a8.374,8.374,0,0,0-2.768,6.221V749.4H1304.2Z" transform="translate(-1299.84 -700.758)" fill="#3c0749" opacity="0.1"/>
        <path id="Path_163" data-name="Path 163" d="M1355.888,701.644h-47.777a7.385,7.385,0,0,0-7.385,7.385v41.259h55.162a8.4,8.4,0,0,0,8.4-8.4V710.047A8.4,8.4,0,0,0,1355.888,701.644Zm-52.98,7.385a5.208,5.208,0,0,1,5.2-5.2h10.306a8.369,8.369,0,0,0-2.77,6.221v38.059h-12.739Z" transform="translate(-1300.726 -701.644)" fill="#aa58a4"/>
        <g id="Group_126" data-name="Group 126" transform="translate(17.103 2.182)" opacity="0.3">
          <path id="Path_164" data-name="Path 164" d="M1312.18,708.976v37.358h35.876a6.227,6.227,0,0,0,6.221-6.221V708.275a6.186,6.186,0,0,0-1.5-4.039h-35.86A4.739,4.739,0,0,0,1312.18,708.976Z" transform="translate(-1309.998 -702.054)" fill="#aa58a4"/>
          <path id="Path_165" data-name="Path 165" d="M1348.943,702.94h-31.838a6.229,6.229,0,0,0-6.221,6.221V747.22h2.182V709.862a4.739,4.739,0,0,1,4.74-4.74h35.86A6.2,6.2,0,0,0,1348.943,702.94Z" transform="translate(-1310.884 -702.94)" fill="#3c0749"/>
        </g>
        <g id="Group_127" data-name="Group 127" transform="translate(6.317 6.235)">
          <path id="Path_166" data-name="Path 166" d="M1308.946,725.116v1.027l-2.645.759a2,2,0,0,1-.444.072v.066a2.05,2.05,0,0,1,.451.064l2.638.707v1.029c-1.446.333-2.913.615-4.366.812a5.445,5.445,0,0,1-.086-.929l2.664-.433a3.652,3.652,0,0,1,.471-.046v-.066a3.222,3.222,0,0,1-.458-.086l-2.637-.712v-.891l2.644-.687a3.158,3.158,0,0,1,.451-.086v-.066a3.757,3.757,0,0,1-.451-.052l-2.684-.465a4.591,4.591,0,0,1,.086-.857C1306.045,724.5,1307.479,724.787,1308.946,725.116Z" transform="translate(-1304.467 -692.404)" fill="#aa58a4"/>
          <path id="Path_167" data-name="Path 167" d="M1309.022,723.491c0,1.138-.628,1.9-2.246,1.9s-2.3-.786-2.3-1.892c0-1.138.63-1.9,2.273-1.9C1308.354,721.6,1309.022,722.384,1309.022,723.491Zm-3.719.005c0,.589.322.852,1.448.852,1.086,0,1.446-.263,1.446-.857s-.34-.852-1.446-.852C1305.625,722.639,1305.3,722.927,1305.3,723.5Z" transform="translate(-1304.478 -694.235)" fill="#aa58a4"/>
          <path id="Path_168" data-name="Path 168" d="M1308.994,720.145l-.667.3a5.125,5.125,0,0,0-1.054.61v.4h1.675v.943h-4.366a12.359,12.359,0,0,1-.093-1.46c0-.812.38-1.487,1.317-1.487a1.236,1.236,0,0,1,1.172.8,3.179,3.179,0,0,1,.93-.647l.989-.471A5.318,5.318,0,0,1,1308.994,720.145Zm-3.724.857c0,.172.007.315.02.453h1.256v-.374a.6.6,0,0,0-.669-.655A.531.531,0,0,0,1305.27,721Z" transform="translate(-1304.47 -695.923)" fill="#aa58a4"/>
          <path id="Path_169" data-name="Path 169" d="M1308.982,717.651l-1.9,1.106.5.414h1.355v.955h-4.411v-.955h1.936v-.047a9.992,9.992,0,0,1-1.276-.864l-.693-.544a5.347,5.347,0,0,1,.1-.995l1.754,1.421c.766-.5,1.664-1.02,2.547-1.492A6.993,6.993,0,0,1,1308.982,717.651Z" transform="translate(-1304.464 -697.618)" fill="#aa58a4"/>
          <path id="Path_170" data-name="Path 170" d="M1305.368,714.769v1.552h1.027v-1.29h.845v1.29h1.689v.968h-4.411V714.7A5.733,5.733,0,0,1,1305.368,714.769Z" transform="translate(-1304.451 -698.95)" fill="#aa58a4"/>
          <path id="Path_171" data-name="Path 171" d="M1309.022,713.971c0,1.14-.628,1.9-2.246,1.9s-2.3-.785-2.3-1.891c0-1.14.63-1.9,2.273-1.9C1308.354,712.079,1309.022,712.865,1309.022,713.971Zm-3.719.007c0,.589.322.852,1.448.852,1.086,0,1.446-.263,1.446-.859s-.34-.852-1.446-.852C1305.625,713.12,1305.3,713.409,1305.3,713.978Z" transform="translate(-1304.478 -700.744)" fill="#aa58a4"/>
          <path id="Path_172" data-name="Path 172" d="M1308.994,710.626l-.667.3a5.124,5.124,0,0,0-1.054.608v.4h1.675v.941h-4.366a12.34,12.34,0,0,1-.093-1.46c0-.812.38-1.485,1.317-1.485a1.234,1.234,0,0,1,1.172.8,3.15,3.15,0,0,1,.93-.648l.989-.471A5.336,5.336,0,0,1,1308.994,710.626Zm-3.724.857c0,.17.007.315.02.453h1.256v-.374a.6.6,0,0,0-.669-.655A.531.531,0,0,0,1305.27,711.483Z" transform="translate(-1304.47 -702.432)" fill="#aa58a4"/>
          <path id="Path_173" data-name="Path 173" d="M1309.022,708.665c0,1.283-.786,1.972-2.278,1.972-1.578,0-2.266-.845-2.266-1.906a3.3,3.3,0,0,1,.21-1.2,6.34,6.34,0,0,1,.864.131,2.455,2.455,0,0,0-.222,1.02c0,.512.295.916,1.408.916,1.066,0,1.434-.313,1.434-.955a2.116,2.116,0,0,0-.31-1.068,4.914,4.914,0,0,1,.865-.138A2.642,2.642,0,0,1,1309.022,708.665Z" transform="translate(-1304.478 -703.92)" fill="#aa58a4"/>
          <path id="Path_174" data-name="Path 174" d="M1308.929,705.419v2.618h-4.411v-2.58a6.377,6.377,0,0,1,.85.066v1.546h.891v-1.126h.837v1.126h.984v-1.722A6.385,6.385,0,0,1,1308.929,705.419Z" transform="translate(-1304.451 -705.347)" fill="#aa58a4"/>
        </g>
        <g id="Group_128" data-name="Group 128" transform="translate(26.168 26.598)">
          <path id="Path_175" data-name="Path 175" d="M1319.549,721.893H1316.8V717.48h2.724a7.164,7.164,0,0,1-.078.975h-1.48v.707h1.086v.963h-1.086v.8h1.662A7.343,7.343,0,0,1,1319.549,721.893Z" transform="translate(-1315.906 -717.414)" fill="#fff"/>
          <path id="Path_176" data-name="Path 176" d="M1321.325,721.886c.013.288.163.412.387.412a2.383,2.383,0,0,0,.694-.157,5.982,5.982,0,0,1,.13.955,3.611,3.611,0,0,1-.935.152,1.285,1.285,0,0,1-1.355-1.328c-.911-.211-1.441-.891-1.441-2.187,0-1.505.786-2.292,1.952-2.292s1.945.687,1.945,2.271C1322.7,720.963,1322.163,721.67,1321.325,721.886Zm-.576-3.5c-.485,0-.714.295-.714,1.328,0,.97.217,1.315.721,1.315s.714-.32.714-1.315C1321.469,718.678,1321.207,718.391,1320.749,718.391Z" transform="translate(-1314.534 -717.441)" fill="#fff"/>
          <path id="Path_177" data-name="Path 177" d="M1323.325,721.957c-1.093,0-1.761-.471-1.761-1.9V717.48h1.165v2.7c0,.6.145.759.61.759.444,0,.635-.184.635-.759v-2.7h1.12v2.573C1325.093,721.27,1324.556,721.957,1323.325,721.957Z" transform="translate(-1312.647 -717.414)" fill="#fff"/>
          <path id="Path_178" data-name="Path 178" d="M1324.223,721.893V717.48h1.165v4.413Z" transform="translate(-1310.829 -717.414)" fill="#fff"/>
          <path id="Path_179" data-name="Path 179" d="M1328.3,718.455h-.9v3.438h-1.165v-3.438h-.949v-.975h3.1A7.543,7.543,0,0,1,1328.3,718.455Z" transform="translate(-1310.104 -717.414)" fill="#fff"/>
          <path id="Path_180" data-name="Path 180" d="M1329.635,720.309v1.6h-1.165v-1.591a23.061,23.061,0,0,1-1.251-2.756,8.132,8.132,0,0,1,1.206-.1l.51,1.382a3.422,3.422,0,0,1,.124.451h.079a3.649,3.649,0,0,1,.118-.465l.5-1.369a7.482,7.482,0,0,1,1.106.1A26.418,26.418,0,0,1,1329.635,720.309Z" transform="translate(-1308.781 -717.428)" fill="#fff"/>
          <path id="Path_181" data-name="Path 181" d="M1333.18,721.972l-.268-.354a1.969,1.969,0,0,1-1.147.365c-.961,0-1.5-.53-1.5-1.3,0-.6.2-.957.929-1.356a1.306,1.306,0,0,1-.261-.759,1.08,1.08,0,0,1,1.229-1.126c.747,0,1.212.335,1.212.982,0,.446-.19.786-.793,1.16.138.189.4.535.505.667.2-.215.49-.544.923-1.074a10.465,10.465,0,0,1,.1,1.283,5.491,5.491,0,0,1-.458.512l.682.884A6.8,6.8,0,0,1,1333.18,721.972Zm-1.845-1.428c0,.327.15.51.49.51a1.02,1.02,0,0,0,.532-.156c-.217-.256-.525-.655-.689-.871A.532.532,0,0,0,1331.334,720.544Zm.837-2.323c-.156,0-.254.084-.254.281a.713.713,0,0,0,.184.406c.256-.131.34-.274.34-.451C1332.44,718.3,1332.343,718.221,1332.171,718.221Z" transform="translate(-1306.697 -717.441)" fill="#fff"/>
          <path id="Path_182" data-name="Path 182" d="M1319.018,725.78h-2.75v-4.413h2.723a7.2,7.2,0,0,1-.078.975h-1.48v.707h1.086v.963h-1.086v.8h1.664A7.328,7.328,0,0,1,1319.018,725.78Z" transform="translate(-1316.268 -714.757)" fill="#fff"/>
          <path id="Path_183" data-name="Path 183" d="M1320.795,725.773c.011.29.163.412.386.412a2.32,2.32,0,0,0,.693-.156,6.131,6.131,0,0,1,.131.955,3.638,3.638,0,0,1-.936.152,1.286,1.286,0,0,1-1.355-1.328c-.911-.211-1.44-.891-1.44-2.187,0-1.505.785-2.292,1.95-2.292s1.945.687,1.945,2.271C1322.168,724.85,1321.631,725.557,1320.795,725.773Zm-.576-3.5c-.485,0-.714.295-.714,1.328,0,.97.216,1.317.719,1.317s.714-.322.714-1.317C1320.937,722.565,1320.677,722.278,1320.219,722.278Z" transform="translate(-1314.896 -714.783)" fill="#fff"/>
          <path id="Path_184" data-name="Path 184" d="M1322.795,725.846c-1.094,0-1.761-.473-1.761-1.906v-2.573h1.165v2.7c0,.6.143.759.608.759.446,0,.636-.183.636-.759v-2.7h1.118v2.573C1324.561,725.157,1324.024,725.846,1322.795,725.846Z" transform="translate(-1313.009 -714.757)" fill="#fff"/>
          <path id="Path_185" data-name="Path 185" d="M1326.141,725.812l-.27-1.054h-1.093l-.263,1.054a5.551,5.551,0,0,1-1.1-.1c.353-1.48.78-2.887,1.271-4.347h1.335c.476,1.466.923,3.031,1.249,4.347A5.9,5.9,0,0,1,1326.141,725.812Zm-.728-2.847a2.216,2.216,0,0,1-.059-.465h-.079a2.011,2.011,0,0,1-.059.465l-.209.864h.628Z" transform="translate(-1311.381 -714.757)" fill="#fff"/>
          <path id="Path_186" data-name="Path 186" d="M1328.638,725.78h-2.625v-4.413h1.165v3.411h1.532A8.453,8.453,0,0,1,1328.638,725.78Z" transform="translate(-1309.605 -714.757)" fill="#fff"/>
          <path id="Path_187" data-name="Path 187" d="M1328.022,725.78v-4.413h1.167v4.413Z" transform="translate(-1308.232 -714.757)" fill="#fff"/>
          <path id="Path_188" data-name="Path 188" d="M1332.094,722.342h-.9v3.438h-1.165v-3.438h-.948v-.975h3.1A7.5,7.5,0,0,1,1332.094,722.342Z" transform="translate(-1307.505 -714.757)" fill="#fff"/>
          <path id="Path_189" data-name="Path 189" d="M1333.435,724.2v1.6h-1.165V724.2a22.785,22.785,0,0,1-1.251-2.756,8.092,8.092,0,0,1,1.2-.1l.512,1.382a3.663,3.663,0,0,1,.124.451h.077a3.938,3.938,0,0,1,.118-.465l.5-1.369a7.509,7.509,0,0,1,1.106.1A26.465,26.465,0,0,1,1333.435,724.2Z" transform="translate(-1306.182 -714.77)" fill="#fff"/>
        </g>
        <path id="Path_190" data-name="Path 190" d="M1336.495,710.9c-.005-.052-.012-.1-.019-.157a4.782,4.782,0,0,0-1.1-2.564c-.074-.086-.15-.17-.231-.253a4.544,4.544,0,0,0-.453-.411,4.775,4.775,0,0,0-2.209-.953l-.02,0-.02,0a4.821,4.821,0,0,0-.7-.057,4.9,4.9,0,0,0-1.682.269,4.688,4.688,0,0,0-1.263.658,4.766,4.766,0,0,0-1.9,3.376,5.576,5.576,0,0,0,.148,2.115l.024.076c.024.081.051.158.079.236a4.46,4.46,0,0,0,.406.848,4.834,4.834,0,0,0,.944,1.11c.4.354.823.689,1.229,1.041a.98.98,0,0,1,.411.7c0,.109.081.088.138.057a3.4,3.4,0,0,0,.38-.215,1.144,1.144,0,0,0,.066-1.973c-.323-.219-.648-.436-.951-.685-.069-.057-.135-.116-.2-.177a2.635,2.635,0,0,1-.756-1.133c-.147-.461-.029-.645.445-.667s.963-.056,1.443-.064c.429-.007.86-.01,1.288-.007.687.005,1.374.025,2.061.066l.136.01c.367.032.456.106.382.6l-.006.044a.479.479,0,0,1-.018.067,2.092,2.092,0,0,1-.13.325,2.436,2.436,0,0,1-.862.946c-.289.194-.594.365-.889.554a.669.669,0,0,0-.03,1.155,1.065,1.065,0,0,0,1.15.077,4.285,4.285,0,0,0,2.2-2.136,5.087,5.087,0,0,0,.416-1.194A5.463,5.463,0,0,0,1336.495,710.9Zm-3.075,4.438a.269.269,0,0,1-.273-.263.255.255,0,0,1,.251-.263.251.251,0,0,1,.269.242A.258.258,0,0,1,1333.42,715.342Zm1.034-4.005a1.306,1.306,0,0,1-.242.015c-.113-.013-.307-.027-.5-.062-.317-.06-.445-.3-.547-.579a1.613,1.613,0,0,0-.773-.959,1.485,1.485,0,0,0-2.044.677l-.032.062c-.066.138-.121.28-.182.418a.627.627,0,0,1-.519.392,2.587,2.587,0,0,1-.665.042c-.219-.027-.3-.123-.281-.34l0-.017c.006-.071.015-.14.025-.209a2.96,2.96,0,0,1,2.049-2.383,3.285,3.285,0,0,1,.685-.136,3.2,3.2,0,0,1,.65.013c.041.005.081.012.121.018a3.037,3.037,0,0,1,1.709.9,2.911,2.911,0,0,1,.485.679,3.177,3.177,0,0,1,.312,1.035C1334.745,711.173,1334.69,711.3,1334.454,711.336Z" transform="translate(-1282.851 -698.323)" fill="#fff"/>
        <g id="Group_129" data-name="Group 129" transform="translate(26.259 9.223)">
          <path id="Path_191" data-name="Path 191" d="M1316.322,715.345V713.4h2.4v-4.238l-2.166.254a8.94,8.94,0,0,1-.178-1.717l2.417-.492h1.85V713.4h1.716a11.838,11.838,0,0,1-.15,1.941Z" transform="translate(-1316.322 -707.061)" fill="#fff"/>
          <path id="Path_192" data-name="Path 192" d="M1323.273,715.554c-1.865,0-3.194-1.209-3.194-4.223,0-2.881,1.389-4.209,3.194-4.209,1.94,0,3.194,1.253,3.194,4.209C1326.467,714.062,1325.243,715.554,1323.273,715.554Zm0-6.641c-.924,0-1.133.835-1.133,2.418,0,1.657.194,2.446,1.133,2.446s1.135-.865,1.135-2.446C1324.408,709.779,1324.243,708.913,1323.273,708.913Z" transform="translate(-1313.753 -707.122)" fill="#fff"/>
        </g>
      </g>
      <g id="Group_135" data-name="Group 135" transform="translate(1479.152 675.444)">
        <path id="Path_193" data-name="Path 193" d="M1379.021,668.557h-50.454a4.709,4.709,0,0,0-4.708,4.709V717.2h53.581a9.984,9.984,0,0,0,9.984-9.984V676.96A8.4,8.4,0,0,0,1379.021,668.557Zm-52.981,5.356a3.174,3.174,0,0,1,3.175-3.174h12.333a8.374,8.374,0,0,0-2.768,6.221v38.059h-12.74Z" transform="translate(-1321.677 -666.375)" fill="#3c0749" opacity="0.1"/>
        <path id="Path_194" data-name="Path 194" d="M1377.724,667.261h-47.778a7.384,7.384,0,0,0-7.383,7.385V715.9h55.161a8.4,8.4,0,0,0,8.4-8.4V675.664A8.4,8.4,0,0,0,1377.724,667.261Zm-52.979,7.385a5.208,5.208,0,0,1,5.2-5.2h10.308a8.37,8.37,0,0,0-2.77,6.221v38.059h-12.739Z" transform="translate(-1322.563 -667.261)" fill="#aa58a4"/>
        <g id="Group_131" data-name="Group 131" transform="translate(17.103 2.182)" opacity="0.3">
          <path id="Path_195" data-name="Path 195" d="M1334.016,674.593v37.358h35.878a6.227,6.227,0,0,0,6.222-6.221V673.892a6.191,6.191,0,0,0-1.5-4.039h-35.86A4.74,4.74,0,0,0,1334.016,674.593Z" transform="translate(-1331.835 -667.671)" fill="#aa58a4"/>
          <path id="Path_196" data-name="Path 196" d="M1370.78,668.557h-31.837a6.228,6.228,0,0,0-6.221,6.221v38.059h2.181V675.479a4.74,4.74,0,0,1,4.741-4.74h35.86A6.207,6.207,0,0,0,1370.78,668.557Z" transform="translate(-1332.721 -668.557)" fill="#3c0749"/>
        </g>
        <g id="Group_132" data-name="Group 132" transform="translate(26.168 26.598)">
          <path id="Path_197" data-name="Path 197" d="M1341.384,687.51h-2.749V683.1h2.724a7.227,7.227,0,0,1-.079.975h-1.48v.707h1.088v.963H1339.8v.8h1.663A6.994,6.994,0,0,1,1341.384,687.51Z" transform="translate(-1337.743 -683.031)" fill="#fff"/>
          <path id="Path_198" data-name="Path 198" d="M1343.161,687.5c.014.288.163.413.385.413a2.386,2.386,0,0,0,.7-.157,6.158,6.158,0,0,1,.13.955,3.619,3.619,0,0,1-.936.152,1.284,1.284,0,0,1-1.354-1.328c-.911-.21-1.441-.891-1.441-2.187,0-1.505.786-2.292,1.952-2.292s1.945.687,1.945,2.271C1344.537,686.58,1344,687.287,1343.161,687.5Zm-.576-3.5c-.485,0-.714.295-.714,1.328,0,.97.216,1.317.721,1.317s.714-.322.714-1.317C1343.306,684.3,1343.044,684.008,1342.586,684.008Z" transform="translate(-1336.371 -683.058)" fill="#fff"/>
          <path id="Path_199" data-name="Path 199" d="M1345.162,687.574c-1.094,0-1.761-.471-1.761-1.9V683.1h1.165v2.7c0,.6.145.759.608.759.446,0,.636-.184.636-.759v-2.7h1.12v2.573C1346.93,686.887,1346.393,687.574,1345.162,687.574Z" transform="translate(-1334.484 -683.031)" fill="#fff"/>
          <path id="Path_200" data-name="Path 200" d="M1346.06,687.51V683.1h1.165v4.413Z" transform="translate(-1332.666 -683.031)" fill="#fff"/>
          <path id="Path_201" data-name="Path 201" d="M1350.132,684.072h-.9v3.438h-1.167v-3.438h-.948V683.1h3.1A7.525,7.525,0,0,1,1350.132,684.072Z" transform="translate(-1331.94 -683.031)" fill="#fff"/>
          <path id="Path_202" data-name="Path 202" d="M1351.472,685.926v1.6h-1.165v-1.591a23.062,23.062,0,0,1-1.251-2.756,8.1,8.1,0,0,1,1.205-.1l.51,1.382a3.636,3.636,0,0,1,.125.451h.079a3.651,3.651,0,0,1,.116-.465l.5-1.369a7.481,7.481,0,0,1,1.106.1A26.415,26.415,0,0,1,1351.472,685.926Z" transform="translate(-1330.618 -683.045)" fill="#fff"/>
          <path id="Path_203" data-name="Path 203" d="M1355.017,687.589l-.267-.354a1.97,1.97,0,0,1-1.147.365c-.962,0-1.5-.53-1.5-1.3,0-.6.2-.956.929-1.355a1.3,1.3,0,0,1-.263-.759,1.082,1.082,0,0,1,1.231-1.127c.748,0,1.213.335,1.213.982,0,.446-.191.786-.793,1.16.138.189.4.535.505.667.2-.216.49-.544.923-1.074a10.439,10.439,0,0,1,.1,1.283,5.748,5.748,0,0,1-.458.512l.682.884A6.823,6.823,0,0,1,1355.017,687.589Zm-1.847-1.428c0,.327.151.51.492.51a1.008,1.008,0,0,0,.53-.156c-.216-.256-.524-.655-.687-.871A.532.532,0,0,0,1353.17,686.161Zm.839-2.324c-.157,0-.254.084-.254.281a.718.718,0,0,0,.182.406c.256-.131.34-.274.34-.451C1354.276,683.915,1354.178,683.837,1354.008,683.837Z" transform="translate(-1328.534 -683.058)" fill="#fff"/>
          <path id="Path_204" data-name="Path 204" d="M1340.854,691.4H1338.1v-4.413h2.723a7.218,7.218,0,0,1-.078.975h-1.48v.707h1.086v.963h-1.086v.8h1.663A7.264,7.264,0,0,1,1340.854,691.4Z" transform="translate(-1338.105 -680.374)" fill="#fff"/>
          <path id="Path_205" data-name="Path 205" d="M1342.63,691.39c.013.29.163.413.387.413a2.328,2.328,0,0,0,.694-.157,6.2,6.2,0,0,1,.131.955,3.636,3.636,0,0,1-.936.151,1.287,1.287,0,0,1-1.356-1.328c-.911-.21-1.439-.891-1.439-2.187,0-1.505.785-2.292,1.95-2.292s1.945.687,1.945,2.271C1344.005,690.467,1343.468,691.174,1342.63,691.39Zm-.576-3.5c-.485,0-.714.295-.714,1.328,0,.97.217,1.317.721,1.317s.714-.322.714-1.317C1342.775,688.182,1342.512,687.895,1342.054,687.895Z" transform="translate(-1336.733 -680.4)" fill="#fff"/>
          <path id="Path_206" data-name="Path 206" d="M1344.631,691.463c-1.093,0-1.761-.473-1.761-1.906v-2.573h1.165v2.7c0,.6.145.759.609.759.445,0,.635-.184.635-.759v-2.7h1.12v2.573C1346.4,690.774,1345.862,691.463,1344.631,691.463Z" transform="translate(-1334.847 -680.374)" fill="#fff"/>
          <path id="Path_207" data-name="Path 207" d="M1347.975,691.429l-.268-1.054h-1.093l-.263,1.054a5.428,5.428,0,0,1-1.1-.1c.354-1.48.779-2.888,1.269-4.347h1.335c.478,1.466.924,3.031,1.251,4.347A5.923,5.923,0,0,1,1347.975,691.429Zm-.726-2.847a2.191,2.191,0,0,1-.059-.465h-.079a2.115,2.115,0,0,1-.059.465l-.209.864h.628Z" transform="translate(-1333.218 -680.374)" fill="#fff"/>
          <path id="Path_208" data-name="Path 208" d="M1350.476,691.4h-2.627v-4.413h1.165V690.4h1.532A8.48,8.48,0,0,1,1350.476,691.4Z" transform="translate(-1331.443 -680.374)" fill="#fff"/>
          <path id="Path_209" data-name="Path 209" d="M1349.859,691.4v-4.413h1.165V691.4Z" transform="translate(-1330.069 -680.374)" fill="#fff"/>
          <path id="Path_210" data-name="Path 210" d="M1353.932,687.959h-.9V691.4h-1.165v-3.438h-.95v-.975h3.1A7.487,7.487,0,0,1,1353.932,687.959Z" transform="translate(-1329.343 -680.374)" fill="#fff"/>
          <path id="Path_211" data-name="Path 211" d="M1355.272,689.813v1.6h-1.165V689.82a22.79,22.79,0,0,1-1.251-2.756,8.092,8.092,0,0,1,1.2-.1l.51,1.382a3.183,3.183,0,0,1,.125.451h.079a3.667,3.667,0,0,1,.118-.465l.5-1.369a7.526,7.526,0,0,1,1.106.1A26.348,26.348,0,0,1,1355.272,689.813Z" transform="translate(-1328.02 -680.387)" fill="#fff"/>
        </g>
        <path id="Path_212" data-name="Path 212" d="M1358.331,676.52c0-.054-.012-.1-.018-.157a4.772,4.772,0,0,0-1.1-2.564c-.072-.086-.148-.17-.229-.253a5.024,5.024,0,0,0-.453-.412,4.778,4.778,0,0,0-2.209-.951l-.02-.005-.022,0a5.027,5.027,0,0,0-.694-.056,4.92,4.92,0,0,0-1.684.269,4.66,4.66,0,0,0-1.261.658,4.765,4.765,0,0,0-1.9,3.376,5.559,5.559,0,0,0,.148,2.113l.022.078c.025.079.052.158.081.236a4.465,4.465,0,0,0,.406.848,4.83,4.83,0,0,0,.945,1.11c.4.354.823.689,1.227,1.039a.981.981,0,0,1,.412.705c0,.109.081.086.138.057a3.4,3.4,0,0,0,.381-.216,1.144,1.144,0,0,0,.066-1.973c-.323-.219-.65-.436-.951-.685-.069-.057-.135-.116-.2-.177a2.633,2.633,0,0,1-.756-1.133c-.146-.461-.03-.645.445-.667s.961-.056,1.443-.064c.429-.007.859-.01,1.288-.007.687.005,1.374.024,2.061.066l.136.01c.367.03.456.1.382.6l-.007.044a.539.539,0,0,1-.018.067,2.215,2.215,0,0,1-.13.325,2.429,2.429,0,0,1-.862.945c-.29.2-.6.367-.889.556a.669.669,0,0,0-.031,1.155,1.062,1.062,0,0,0,1.15.076,4.281,4.281,0,0,0,2.2-2.135,5.06,5.06,0,0,0,.414-1.194A5.4,5.4,0,0,0,1358.331,676.52Zm-3.074,4.438a.268.268,0,0,1-.273-.263.254.254,0,0,1,.251-.263.251.251,0,0,1,.269.241A.258.258,0,0,1,1355.257,680.959Zm1.034-4.005a1.439,1.439,0,0,1-.243.015c-.113-.014-.307-.027-.5-.064-.318-.059-.446-.3-.547-.578a1.613,1.613,0,0,0-.773-.96,1.487,1.487,0,0,0-2.046.677l-.03.062c-.066.136-.121.278-.182.417a.622.622,0,0,1-.519.391,2.6,2.6,0,0,1-.665.044c-.219-.027-.3-.123-.281-.34l0-.017c.007-.071.014-.14.025-.209a2.958,2.958,0,0,1,2.047-2.382,3.188,3.188,0,0,1,.687-.136,3.1,3.1,0,0,1,.65.013c.041.005.081.012.121.018a3.04,3.04,0,0,1,1.709.9,2.89,2.89,0,0,1,.485.679,3.172,3.172,0,0,1,.312,1.035C1356.582,676.79,1356.526,676.914,1356.291,676.953Z" transform="translate(-1304.688 -663.94)" fill="#fff"/>
        <g id="Group_133" data-name="Group 133" transform="translate(26.259 9.223)">
          <path id="Path_213" data-name="Path 213" d="M1338.159,680.96v-1.94h2.4v-4.238l-2.164.252a8.875,8.875,0,0,1-.18-1.716l2.419-.492h1.851v6.193h1.716a11.818,11.818,0,0,1-.15,1.94Z" transform="translate(-1338.159 -672.678)" fill="#fff"/>
          <path id="Path_214" data-name="Path 214" d="M1345.11,681.171c-1.865,0-3.194-1.209-3.194-4.223,0-2.881,1.387-4.209,3.194-4.209,1.94,0,3.194,1.254,3.194,4.209C1348.3,679.679,1347.08,681.171,1345.11,681.171Zm0-6.642c-.926,0-1.135.837-1.135,2.419,0,1.657.194,2.447,1.135,2.447s1.135-.866,1.135-2.447C1346.245,675.4,1346.08,674.529,1345.11,674.529Z" transform="translate(-1335.59 -672.739)" fill="#fff"/>
        </g>
        <g id="Group_134" data-name="Group 134" transform="translate(6.317 11.19)">
          <path id="Path_215" data-name="Path 215" d="M1329.4,689.929v.453h1.382v.955h-4.368a12.371,12.371,0,0,1-.091-1.446,1.36,1.36,0,0,1,1.478-1.494A1.448,1.448,0,0,1,1329.4,689.929Zm-2.31.02c0,.143.007.275.019.433h1.5v-.367c0-.439-.281-.662-.811-.662C1327.367,689.353,1327.093,689.582,1327.093,689.949Z" transform="translate(-1326.307 -664)" fill="#aa58a4"/>
          <path id="Path_216" data-name="Path 216" d="M1330.831,686.944l-.668.3a5.168,5.168,0,0,0-1.054.609v.4h1.677v.943h-4.368a12.755,12.755,0,0,1-.091-1.46c0-.812.38-1.485,1.315-1.485a1.232,1.232,0,0,1,1.172.8,3.154,3.154,0,0,1,.931-.648l.988-.471A5.448,5.448,0,0,1,1330.831,686.944Zm-3.724.857c0,.17.005.315.019.451h1.258v-.372a.6.6,0,0,0-.669-.655A.53.53,0,0,0,1327.107,687.8Z" transform="translate(-1326.307 -665.687)" fill="#aa58a4"/>
          <path id="Path_217" data-name="Path 217" d="M1330.8,684.545l-1.086.3v1.264l1.086.3a4.445,4.445,0,0,1-.079.884c-1.419-.387-2.866-.825-4.366-1.328v-1.074c1.473-.471,2.958-.918,4.366-1.3A4.462,4.462,0,0,1,1330.8,684.545Zm-3.083.85a1.964,1.964,0,0,1-.374.052v.066a2.046,2.046,0,0,1,.374.045l1.192.328v-.818Z" transform="translate(-1326.288 -667.287)" fill="#aa58a4"/>
          <path id="Path_218" data-name="Path 218" d="M1330.859,682.667c0,1.283-.786,1.97-2.278,1.97-1.579,0-2.266-.844-2.266-1.906a3.3,3.3,0,0,1,.21-1.2,6.322,6.322,0,0,1,.864.131,2.45,2.45,0,0,0-.222,1.02c0,.51.294.918,1.407.918,1.066,0,1.433-.315,1.433-.956a2.121,2.121,0,0,0-.308-1.067,4.773,4.773,0,0,1,.865-.136A2.656,2.656,0,0,1,1330.859,682.667Z" transform="translate(-1326.315 -668.759)" fill="#aa58a4"/>
          <path id="Path_219" data-name="Path 219" d="M1327.206,679.5v.943h3.561v.968h-3.561v.983h-.852v-2.967A6.047,6.047,0,0,1,1327.206,679.5Z" transform="translate(-1326.288 -670.133)" fill="#aa58a4"/>
          <path id="Path_220" data-name="Path 220" d="M1330.767,679.393h-4.413v-.97h4.413Z" transform="translate(-1326.288 -670.819)" fill="#aa58a4"/>
          <path id="Path_221" data-name="Path 221" d="M1330.859,677.224c0,1.285-.786,1.972-2.278,1.972-1.579,0-2.266-.845-2.266-1.9a3.314,3.314,0,0,1,.21-1.206,6.37,6.37,0,0,1,.864.131,2.451,2.451,0,0,0-.222,1.02c0,.512.294.918,1.407.918,1.066,0,1.433-.315,1.433-.956a2.115,2.115,0,0,0-.308-1.067,4.918,4.918,0,0,1,.865-.138A2.666,2.666,0,0,1,1330.859,677.224Z" transform="translate(-1326.315 -672.481)" fill="#aa58a4"/>
          <path id="Path_222" data-name="Path 222" d="M1330.767,673.978V676.6h-4.413v-2.58a6.121,6.121,0,0,1,.852.067v1.544h.891V674.5h.837v1.127h.983v-1.721A6.681,6.681,0,0,1,1330.767,673.978Z" transform="translate(-1326.288 -673.907)" fill="#aa58a4"/>
        </g>
      </g>
      <g id="Group_140" data-name="Group 140" transform="translate(1518.254 733.335)">
        <path id="Path_223" data-name="Path 223" d="M1402.244,702.94h-50.453a4.709,4.709,0,0,0-4.709,4.709v43.935h53.582a9.983,9.983,0,0,0,9.983-9.984V711.343A8.4,8.4,0,0,0,1402.244,702.94Zm-52.98,5.356a3.174,3.174,0,0,1,3.175-3.174h12.333a8.369,8.369,0,0,0-2.768,6.221V749.4h-12.74Z" transform="translate(-1344.901 -700.758)" fill="#3c0749" opacity="0.1"/>
        <path id="Path_224" data-name="Path 224" d="M1400.949,701.644H1353.17a7.384,7.384,0,0,0-7.383,7.385v41.259h55.162a8.4,8.4,0,0,0,8.4-8.4V710.047A8.4,8.4,0,0,0,1400.949,701.644Zm-52.981,7.385a5.208,5.208,0,0,1,5.2-5.2h10.306a8.375,8.375,0,0,0-2.768,6.221v38.059h-12.74Z" transform="translate(-1345.787 -701.644)" fill="#aa58a4"/>
        <g id="Group_136" data-name="Group 136" transform="translate(17.103 2.182)" opacity="0.3">
          <path id="Path_225" data-name="Path 225" d="M1357.24,708.976v37.358h35.878a6.229,6.229,0,0,0,6.222-6.221V708.275a6.19,6.19,0,0,0-1.5-4.039h-35.858A4.74,4.74,0,0,0,1357.24,708.976Z" transform="translate(-1355.059 -702.054)" fill="#aa58a4"/>
          <path id="Path_226" data-name="Path 226" d="M1394,702.94h-31.838a6.228,6.228,0,0,0-6.221,6.221V747.22h2.181V709.862a4.74,4.74,0,0,1,4.741-4.74h35.858A6.2,6.2,0,0,0,1394,702.94Z" transform="translate(-1355.945 -702.94)" fill="#3c0749"/>
        </g>
        <g id="Group_137" data-name="Group 137" transform="translate(26.168 26.598)">
          <path id="Path_227" data-name="Path 227" d="M1364.608,721.893h-2.75V717.48h2.724a7.249,7.249,0,0,1-.079.975h-1.48v.707h1.088v.963h-1.088v.8h1.663A7.269,7.269,0,0,1,1364.608,721.893Z" transform="translate(-1360.967 -717.414)" fill="#fff"/>
          <path id="Path_228" data-name="Path 228" d="M1366.386,721.886c.013.288.163.412.385.412a2.371,2.371,0,0,0,.694-.157,6.151,6.151,0,0,1,.131.955,3.632,3.632,0,0,1-.936.152,1.287,1.287,0,0,1-1.356-1.328c-.909-.211-1.439-.891-1.439-2.187,0-1.505.785-2.292,1.95-2.292s1.945.687,1.945,2.271C1367.759,720.963,1367.222,721.67,1366.386,721.886Zm-.576-3.5c-.485,0-.714.295-.714,1.328,0,.97.215,1.315.719,1.315s.714-.32.714-1.315C1366.529,718.678,1366.268,718.391,1365.81,718.391Z" transform="translate(-1359.595 -717.441)" fill="#fff"/>
          <path id="Path_229" data-name="Path 229" d="M1368.385,721.957c-1.093,0-1.76-.471-1.76-1.9V717.48h1.165v2.7c0,.6.143.759.608.759.446,0,.635-.184.635-.759v-2.7h1.12v2.573C1370.152,721.27,1369.617,721.957,1368.385,721.957Z" transform="translate(-1357.708 -717.414)" fill="#fff"/>
          <path id="Path_230" data-name="Path 230" d="M1369.283,721.893V717.48h1.165v4.413Z" transform="translate(-1355.891 -717.414)" fill="#fff"/>
          <path id="Path_231" data-name="Path 231" d="M1373.356,718.455h-.9v3.438h-1.165v-3.438h-.949v-.975h3.1A7.543,7.543,0,0,1,1373.356,718.455Z" transform="translate(-1355.165 -717.414)" fill="#fff"/>
          <path id="Path_232" data-name="Path 232" d="M1374.7,720.309v1.6h-1.165v-1.591a22.813,22.813,0,0,1-1.251-2.756,8.094,8.094,0,0,1,1.2-.1l.512,1.382a3.392,3.392,0,0,1,.123.451h.079a3.985,3.985,0,0,1,.118-.465l.5-1.369a7.5,7.5,0,0,1,1.106.1A26.343,26.343,0,0,1,1374.7,720.309Z" transform="translate(-1353.842 -717.428)" fill="#fff"/>
          <path id="Path_233" data-name="Path 233" d="M1378.241,721.972l-.268-.354a1.973,1.973,0,0,1-1.147.365c-.963,0-1.5-.53-1.5-1.3,0-.6.2-.957.929-1.356a1.3,1.3,0,0,1-.261-.759,1.082,1.082,0,0,1,1.231-1.126c.748,0,1.21.335,1.21.982,0,.446-.188.786-.791,1.16.137.189.4.535.505.667.2-.215.49-.544.921-1.074a10.466,10.466,0,0,1,.1,1.283,5.746,5.746,0,0,1-.458.512l.68.884A6.8,6.8,0,0,1,1378.241,721.972Zm-1.847-1.428c0,.327.151.51.492.51a1.013,1.013,0,0,0,.53-.156c-.216-.256-.524-.655-.687-.871A.532.532,0,0,0,1376.394,720.544Zm.838-2.323c-.157,0-.256.084-.256.281a.723.723,0,0,0,.183.406c.256-.131.34-.274.34-.451C1377.5,718.3,1377.4,718.221,1377.233,718.221Z" transform="translate(-1351.758 -717.441)" fill="#fff"/>
          <path id="Path_234" data-name="Path 234" d="M1364.078,725.78h-2.749v-4.413h2.723a6.977,6.977,0,0,1-.079.975h-1.478v.707h1.086v.963h-1.086v.8h1.662A7.257,7.257,0,0,1,1364.078,725.78Z" transform="translate(-1361.329 -714.757)" fill="#fff"/>
          <path id="Path_235" data-name="Path 235" d="M1365.855,725.773c.013.29.163.412.386.412a2.332,2.332,0,0,0,.7-.156,6.2,6.2,0,0,1,.131.955,3.639,3.639,0,0,1-.936.152,1.288,1.288,0,0,1-1.357-1.328c-.909-.211-1.439-.891-1.439-2.187,0-1.505.786-2.292,1.951-2.292s1.945.687,1.945,2.271C1367.23,724.85,1366.693,725.557,1365.855,725.773Zm-.576-3.5c-.485,0-.714.295-.714,1.328,0,.97.216,1.317.721,1.317s.714-.322.714-1.317C1366,722.565,1365.737,722.278,1365.279,722.278Z" transform="translate(-1359.958 -714.783)" fill="#fff"/>
          <path id="Path_236" data-name="Path 236" d="M1367.855,725.846c-1.093,0-1.761-.473-1.761-1.906v-2.573h1.165v2.7c0,.6.145.759.609.759.445,0,.635-.183.635-.759v-2.7h1.12v2.573C1369.623,725.157,1369.086,725.846,1367.855,725.846Z" transform="translate(-1358.071 -714.757)" fill="#fff"/>
          <path id="Path_237" data-name="Path 237" d="M1371.2,725.812l-.268-1.054h-1.094l-.261,1.054a5.54,5.54,0,0,1-1.1-.1c.352-1.48.779-2.887,1.269-4.347h1.335c.478,1.466.924,3.031,1.251,4.347A5.922,5.922,0,0,1,1371.2,725.812Zm-.727-2.847a2.353,2.353,0,0,1-.059-.465h-.077a2.208,2.208,0,0,1-.059.465l-.209.864h.628Z" transform="translate(-1356.442 -714.757)" fill="#fff"/>
          <path id="Path_238" data-name="Path 238" d="M1373.7,725.78h-2.625v-4.413h1.165v3.411h1.532A8.012,8.012,0,0,1,1373.7,725.78Z" transform="translate(-1354.667 -714.757)" fill="#fff"/>
          <path id="Path_239" data-name="Path 239" d="M1373.083,725.78v-4.413h1.165v4.413Z" transform="translate(-1353.292 -714.757)" fill="#fff"/>
          <path id="Path_240" data-name="Path 240" d="M1377.156,722.342h-.9v3.438h-1.165v-3.438h-.949v-.975h3.1A7.472,7.472,0,0,1,1377.156,722.342Z" transform="translate(-1352.567 -714.757)" fill="#fff"/>
          <path id="Path_241" data-name="Path 241" d="M1378.5,724.2v1.6h-1.165V724.2a23.091,23.091,0,0,1-1.251-2.756,8.134,8.134,0,0,1,1.206-.1l.51,1.382a3.4,3.4,0,0,1,.125.451H1378a3.694,3.694,0,0,1,.118-.465l.5-1.369a7.483,7.483,0,0,1,1.106.1A26.361,26.361,0,0,1,1378.5,724.2Z" transform="translate(-1351.244 -714.77)" fill="#fff"/>
        </g>
        <path id="Path_242" data-name="Path 242" d="M1381.556,710.9c-.005-.052-.012-.1-.019-.157a4.783,4.783,0,0,0-1.1-2.564c-.072-.086-.148-.17-.229-.253a5.022,5.022,0,0,0-.453-.411,4.784,4.784,0,0,0-2.209-.953l-.02,0-.022,0a4.81,4.81,0,0,0-.694-.057,4.909,4.909,0,0,0-1.684.269,4.732,4.732,0,0,0-3.162,4.034,5.641,5.641,0,0,0,.148,2.115l.023.076c.026.081.052.158.079.236a4.573,4.573,0,0,0,.408.848,4.826,4.826,0,0,0,.943,1.11c.4.354.823.689,1.229,1.041a.983.983,0,0,1,.413.7c0,.109.079.088.136.057a3.279,3.279,0,0,0,.382-.215,1.145,1.145,0,0,0,.066-1.973c-.323-.219-.65-.436-.951-.685-.069-.057-.135-.116-.2-.177a2.616,2.616,0,0,1-.756-1.133c-.147-.461-.03-.645.445-.667s.961-.056,1.443-.064c.429-.007.859-.01,1.288-.007.687.005,1.374.025,2.061.066l.137.01c.367.032.456.106.382.6l-.007.044a.421.421,0,0,1-.019.067,2.22,2.22,0,0,1-.13.325,2.448,2.448,0,0,1-.862.946c-.291.194-.6.365-.889.554a.669.669,0,0,0-.031,1.155,1.063,1.063,0,0,0,1.148.077,4.288,4.288,0,0,0,2.2-2.136,5.065,5.065,0,0,0,.414-1.194A5.452,5.452,0,0,0,1381.556,710.9Zm-3.074,4.438a.268.268,0,0,1-.273-.263.254.254,0,0,1,.251-.263.251.251,0,0,1,.269.242A.259.259,0,0,1,1378.481,715.342Zm1.032-4.005a1.271,1.271,0,0,1-.24.015c-.113-.013-.306-.027-.5-.062-.318-.06-.446-.3-.547-.579a1.618,1.618,0,0,0-.773-.959,1.487,1.487,0,0,0-2.046.677l-.03.062c-.066.138-.121.28-.182.418a.627.627,0,0,1-.519.392,2.589,2.589,0,0,1-.665.042c-.219-.027-.3-.123-.281-.34l0-.017a2.078,2.078,0,0,1,.025-.209,2.958,2.958,0,0,1,2.048-2.383,3.319,3.319,0,0,1,.685-.136,3.22,3.22,0,0,1,.651.013c.04.005.081.012.121.018a3.038,3.038,0,0,1,1.709.9,2.928,2.928,0,0,1,.485.679,3.171,3.171,0,0,1,.31,1.035C1379.806,711.173,1379.749,711.3,1379.513,711.336Z" transform="translate(-1327.913 -698.323)" fill="#fff"/>
        <g id="Group_138" data-name="Group 138" transform="translate(26.259 9.223)">
          <path id="Path_243" data-name="Path 243" d="M1361.383,715.345V713.4h2.4v-4.238l-2.163.254a8.907,8.907,0,0,1-.18-1.717l2.419-.492h1.851V713.4h1.716a11.824,11.824,0,0,1-.15,1.941Z" transform="translate(-1361.383 -707.061)" fill="#fff"/>
          <path id="Path_244" data-name="Path 244" d="M1368.334,715.554c-1.866,0-3.194-1.209-3.194-4.223,0-2.881,1.387-4.209,3.194-4.209,1.94,0,3.194,1.253,3.194,4.209C1371.528,714.062,1370.3,715.554,1368.334,715.554Zm0-6.641c-.926,0-1.134.835-1.134,2.418,0,1.657.194,2.446,1.134,2.446s1.133-.865,1.133-2.446C1369.467,709.779,1369.3,708.913,1368.334,708.913Z" transform="translate(-1358.814 -707.122)" fill="#fff"/>
        </g>
        <g id="Group_139" data-name="Group 139" transform="translate(6.317 12.747)">
          <path id="Path_245" data-name="Path 245" d="M1354.082,723.547a3.345,3.345,0,0,1-.2,1.206,5.283,5.283,0,0,1-.832-.19,3.187,3.187,0,0,0,.222-1.138c0-.36-.17-.519-.465-.519-.721,0-.556,1.827-1.943,1.827-.865,0-1.323-.687-1.323-1.655a4.778,4.778,0,0,1,.111-.976,5.42,5.42,0,0,1,.825.111,4.418,4.418,0,0,0-.125,1.022c0,.347.163.5.453.5.653,0,.576-1.82,1.911-1.82C1353.637,721.917,1354.082,722.6,1354.082,723.547Z" transform="translate(-1349.539 -700.53)" fill="#aa58a4"/>
          <path id="Path_246" data-name="Path 246" d="M1354.082,720.847c0,1.283-.785,1.972-2.278,1.972-1.578,0-2.265-.845-2.265-1.906a3.3,3.3,0,0,1,.209-1.2,6.088,6.088,0,0,1,.865.13,2.462,2.462,0,0,0-.222,1.022c0,.51.295.916,1.407.916,1.066,0,1.433-.313,1.433-.956a2.123,2.123,0,0,0-.308-1.066,4.924,4.924,0,0,1,.864-.138A2.646,2.646,0,0,1,1354.082,720.847Z" transform="translate(-1349.539 -702.104)" fill="#aa58a4"/>
          <path id="Path_247" data-name="Path 247" d="M1353.991,719.52h-4.413v-.968h4.413Z" transform="translate(-1349.512 -702.831)" fill="#aa58a4"/>
          <path id="Path_248" data-name="Path 248" d="M1353.991,716.357v2.618h-4.413V716.4a6.349,6.349,0,0,1,.85.066v1.546h.891v-1.127h.838v1.127h.982v-1.722A6.413,6.413,0,0,1,1353.991,716.357Z" transform="translate(-1349.512 -704.381)" fill="#aa58a4"/>
          <path id="Path_249" data-name="Path 249" d="M1353.965,713.731a7.261,7.261,0,0,1,.066.923l-2.573,1.414a3.3,3.3,0,0,1-.51.2l.005.066c.2-.02.387-.034.532-.034H1354v.871h-4.368a9.241,9.241,0,0,1-.065-1.009l2.409-1.322a2.688,2.688,0,0,1,.51-.209l-.007-.065a4.9,4.9,0,0,1-.549.032h-2.344v-.871Z" transform="translate(-1349.52 -706.127)" fill="#aa58a4"/>
          <path id="Path_250" data-name="Path 250" d="M1354.082,712.533c0,1.283-.785,1.97-2.278,1.97-1.578,0-2.265-.844-2.265-1.9a3.318,3.318,0,0,1,.209-1.205,6.349,6.349,0,0,1,.865.131,2.461,2.461,0,0,0-.222,1.022c0,.51.295.916,1.407.916,1.066,0,1.433-.315,1.433-.956a2.135,2.135,0,0,0-.308-1.068,4.922,4.922,0,0,1,.864-.136A2.64,2.64,0,0,1,1354.082,712.533Z" transform="translate(-1349.539 -707.788)" fill="#aa58a4"/>
          <path id="Path_251" data-name="Path 251" d="M1353.991,709.286V711.9h-4.413v-2.579a6.369,6.369,0,0,1,.85.066v1.546h.891v-1.126h.838v1.126h.982v-1.721A6.7,6.7,0,0,1,1353.991,709.286Z" transform="translate(-1349.512 -709.215)" fill="#aa58a4"/>
        </g>
      </g>
      <g id="Group_141" data-name="Group 141" transform="translate(1232.221 724.302)" opacity="0.25">
        <path id="Path_252" data-name="Path 252" d="M1182.724,703.147v4.135H1179.6v-4.135h-3.7V700.34h3.7v-4.061h3.122v4.061h3.652v2.807Z" transform="translate(-1175.904 -696.279)" fill="#aa58a4"/>
      </g>
      <g id="Group_142" data-name="Group 142" transform="translate(1407.377 724.302)" opacity="0.25">
        <path id="Path_253" data-name="Path 253" d="M1286.755,703.147v4.135h-3.12v-4.135h-3.7V700.34h3.7v-4.061h3.12v4.061h3.652v2.807Z" transform="translate(-1279.934 -696.279)" fill="#aa58a4"/>
      </g>
      <g id="Group_143" data-name="Group 143" transform="translate(1643.327 655.292)">
        <path id="Path_46" data-name="Path 46" d="M1461.447,704.046v5.218a1.953,1.953,0,0,0,1.953,1.953h9.371v9.372a1.952,1.952,0,0,0,1.952,1.951h5.218a1.953,1.953,0,0,0,1.953-1.951h0V711.22h9.371a1.952,1.952,0,0,0,1.952-1.952h0v-5.218a1.951,1.951,0,0,0-1.952-1.951h-9.371v-9.373a1.953,1.953,0,0,0-1.953-1.951h-5.218a1.952,1.952,0,0,0-1.952,1.951h0V702.1H1463.4A1.952,1.952,0,0,0,1461.447,704.046Z" transform="translate(-1391.782 -631.032)" fill="#aa58a4"/>
        <path id="Path_47" data-name="Path 47" d="M1515.151,714.921l-.079.02c-4.351,1.157-8.664,2.457-12.914,3.674a13.55,13.55,0,0,1-.034,2.859,4.561,4.561,0,0,1-4.236,3.778,74.588,74.588,0,0,1-9-.039,28.228,28.228,0,0,1-5.928-1.03,10.711,10.711,0,0,1,2.283-.508c3.293-.012,6.587.094,9.882.111a12.143,12.143,0,0,0,3.061-.264,2.955,2.955,0,0,0,2.162-2.97,2.533,2.533,0,0,0-2.172-2.847l-.025,0c-2.911-.51-5.876-.7-8.8-1.128-3.11-.458-6.2-1.089-9.3-1.542a28.242,28.242,0,0,0-5.686-.45,6.277,6.277,0,0,0-3.131,1.431c-6.386,4.9-13.7,7.839-21.26,10.288a3.382,3.382,0,0,0-.9.451c1.586,3.909,4.849,5.97,8.45,7.657.424.2.874.345,1.3.554,2.428,1.175,4.5,1.478,6.972-.541,3.379-2.76,7.754-3.356,12.02-3.327,5.265.034,10.528.416,15.788.727a7.048,7.048,0,0,0,4.44-.956q4.359-2.768,8.905-5.238c.222-.12.443-.241.67-.36q2.789-1.493,5.646-2.859c1.4-.672,2.8-1.335,4.226-1.95a3.943,3.943,0,0,0,.906-.486,1.753,1.753,0,0,0,.173-.16,2.084,2.084,0,0,0,.493-1.02,3.279,3.279,0,0,0-3.9-3.871Z" transform="translate(-1400.247 -614.76)" fill="#aa58a4"/>
        <path id="Path_48" data-name="Path 48" d="M1520.579,719.261c-.2-2.691-.972-4.639-3.955-5.77-4.08-1.549-6.784-5.039-8.893-8.743-2.6-4.576-4.9-9.326-7.263-14.035a7.043,7.043,0,0,0-3.049-3.367q-4.581-2.389-8.989-5.091l-.647-.4q-2.685-1.669-5.3-3.457c-1.281-.876-2.557-1.758-3.8-2.686a3.875,3.875,0,0,0-.875-.542,1.886,1.886,0,0,0-.221-.072,2.1,2.1,0,0,0-1.131.084,3.283,3.283,0,0,0-1.4,5.314l.059.057c3.177,3.189,6.461,6.275,9.64,9.346a13.467,13.467,0,0,1,2.49-1.4,4.565,4.565,0,0,1,5.391,1.78,74.291,74.291,0,0,1,4.465,7.809,28.247,28.247,0,0,1,2.071,5.644,10.653,10.653,0,0,1-1.583-1.721c-1.66-2.846-3.209-5.755-4.849-8.612a12.04,12.04,0,0,0-1.76-2.519,2.957,2.957,0,0,0-3.652-.387,2.534,2.534,0,0,0-1.383,3.305l.01.023c1.016,2.776,2.332,5.437,3.425,8.19,1.162,2.923,2.155,5.91,3.321,8.829a28.153,28.153,0,0,0,2.455,5.149,6.254,6.254,0,0,0,2.8,1.994c7.441,3.079,13.642,7.947,19.54,13.268a3.349,3.349,0,0,0,.844.554c2.589-3.331,2.744-7.188,2.406-11.148C1520.712,720.193,1520.616,719.729,1520.579,719.261Z" transform="translate(-1383.054 -641.779)" fill="#aa58a4"/>
        <path id="Path_49" data-name="Path 49" d="M1452.068,733.982l.02-.078c1.175-4.347,2.206-8.733,3.275-13.022a13.6,13.6,0,0,1-2.458-1.458,4.564,4.564,0,0,1-1.153-5.558,74.175,74.175,0,0,1,4.533-7.772,28.2,28.2,0,0,1,3.856-4.619,10.646,10.646,0,0,1-.7,2.231c-1.636,2.859-3.376,5.659-5.033,8.5a12.163,12.163,0,0,0-1.3,2.785,2.955,2.955,0,0,0,1.492,3.356,2.531,2.531,0,0,0,3.551-.458l.017-.02c1.9-2.265,3.541-4.738,5.376-7.058,1.95-2.465,4.041-4.82,5.989-7.285a28.5,28.5,0,0,0,3.233-4.7,6.284,6.284,0,0,0,.325-3.431c-1.052-7.984.062-15.788,1.721-23.555a3.386,3.386,0,0,0,.06-1.01c-4.179-.579-7.6,1.217-10.856,3.489-.386.269-.737.586-1.125.849-2.233,1.517-3.532,3.16-3.021,6.309.7,4.309-.973,8.395-3.128,12.074-2.662,4.538-5.625,8.912-8.523,13.31a7.043,7.043,0,0,0-1.392,4.322q.222,5.165.083,10.335c-.007.252-.013.507-.022.759q-.1,3.159-.347,6.316c-.116,1.549-.241,3.093-.423,4.635a3.829,3.829,0,0,0-.032,1.027,1.815,1.815,0,0,0,.051.231,2.107,2.107,0,0,0,.638.938,3.282,3.282,0,0,0,4.634-.279A3.318,3.318,0,0,0,1452.068,733.982Z" transform="translate(-1402.302 -644.742)" fill="#aa58a4"/>
        <path id="Path_50" data-name="Path 50" d="M1550.336,659.8a9.009,9.009,0,0,0-7.8-4.506H1466.9a9.005,9.005,0,0,0-7.8,4.506l-37.818,65.5a9.011,9.011,0,0,0,0,9.011l37.818,65.5a9,9,0,0,0,7.8,4.505h75.634a9.009,9.009,0,0,0,7.8-4.505l37.816-65.5a9.012,9.012,0,0,0,0-9.011Zm31.913,71.1-37.816,65.5a2.2,2.2,0,0,1-1.9,1.1H1466.9a2.2,2.2,0,0,1-1.9-1.1l-37.814-65.5a2.2,2.2,0,0,1,0-2.194L1465,663.2a2.2,2.2,0,0,1,1.9-1.1h75.636a2.2,2.2,0,0,1,1.9,1.1l37.816,65.5a2.2,2.2,0,0,1,0,2.194Z" transform="translate(-1420.071 -655.292)" fill="#aa58a4"/>
      </g>
    </g>
  </g>
</svg>
