<svg xmlns="http://www.w3.org/2000/svg" width="32" height="32" viewBox="0 0 32 32">
  <g id="Group_162" data-name="Group 162" transform="translate(-4857 -2810)">
    <rect id="Rectangle_357" data-name="Rectangle 357" width="32" height="32" rx="3" transform="translate(4857 2810)" fill="#aa58a4"/>
    <path id="Path_352" data-name="Path 352" d="M95.325.125a9.513,9.513,0,0,1,4.459,1.938,10.106,10.106,0,0,1,.908.834,9.755,9.755,0,0,1,2.69,6.024,10.669,10.669,0,0,1-1,5.818,8.626,8.626,0,0,1-4.4,4.326,2.1,2.1,0,0,1-2.3-.155,1.364,1.364,0,0,1,.059-2.34c.588-.383,1.2-.731,1.78-1.125A4.68,4.68,0,0,0,99.5,12.872a1.146,1.146,0,0,0,.038-.136c.192-1.2-.034-1.255-1.026-1.316-2.232-.137-4.465-.159-6.7-.12-.963.017-1.925.087-2.888.13s-1.181.416-.889,1.349a5.673,5.673,0,0,0,1.91,2.654c.6.506,1.256.946,1.9,1.39a2.333,2.333,0,0,1-.131,4,7.071,7.071,0,0,1-.762.437c-.114.059-.267.1-.275-.118a1.993,1.993,0,0,0-.823-1.427c-.811-.712-1.651-1.391-2.459-2.107a9.458,9.458,0,0,1-2.907-4.6,11.47,11.47,0,0,1-.3-4.284,9.693,9.693,0,0,1,1.927-4.969,9.241,9.241,0,0,1,4.4-3.2A9.786,9.786,0,0,1,95.283.119l.042.007m3.49,9.7c.881.01,1.089-.205,1-.913a6.442,6.442,0,0,0-.623-2.1,6.079,6.079,0,0,0-7.3-2.983,5.988,5.988,0,0,0-4.152,5.285c-.035.441.126.634.563.688a5.1,5.1,0,0,0,1.331-.087,1.248,1.248,0,0,0,1.037-.793c.14-.325.266-.658.426-.974a2.957,2.957,0,0,1,4.092-1.37,3.262,3.262,0,0,1,1.546,1.943c.2.557.459,1.052,1.095,1.173.38.072.768.1.993.127m-1.583,8.085a.52.52,0,0,0,.495-.574.5.5,0,0,0-.538-.489.51.51,0,0,0-.5.531.541.541,0,0,0,.545.532" transform="translate(4778.958 2815.537)" fill="#fff"/>
  </g>
</svg>
