<svg xmlns="http://www.w3.org/2000/svg" width="41.683" height="53.127" viewBox="0 0 41.683 53.127">
  <g id="Group_170" data-name="Group 170" transform="translate(-1892.801 731.053)">
    <path id="Path_359" data-name="Path 359" d="M1241.107-665.461c.971.851,1.982,1.657,2.958,2.5a2.359,2.359,0,0,1,.991,1.695c.01.263.194.21.331.14a8.384,8.384,0,0,0,.916-.519,2.754,2.754,0,0,0,.158-4.749c-.777-.528-1.561-1.05-2.288-1.651a6.75,6.75,0,0,1-2.3-3.152c-.352-1.109-.072-1.552,1.069-1.6,1.158-.051,2.315-.134,3.474-.155,2.687-.046,5.373-.02,8.058.143,1.193.072,1.464.141,1.234,1.563a1.282,1.282,0,0,1-.046.162,5.569,5.569,0,0,1-2.386,3.058c-.7.467-1.433.881-2.141,1.336a1.61,1.61,0,0,0-.071,2.779,2.555,2.555,0,0,0,2.765.184,10.316,10.316,0,0,0,5.293-5.139,12.532,12.532,0,0,0,1.2-6.911,11.518,11.518,0,0,0-3.235-7.156,12.251,12.251,0,0,0-1.092-.99,11.523,11.523,0,0,0-5.365-2.3l-.051-.008a11.911,11.911,0,0,0-5.722.512,11.109,11.109,0,0,0-5.29,3.807,11.428,11.428,0,0,0-2.318,5.9,13.43,13.43,0,0,0,.357,5.088A11.209,11.209,0,0,0,1241.107-665.461Zm11.822.365a.647.647,0,0,1-.656-.632.609.609,0,0,1,.6-.63.6.6,0,0,1,.647.58A.621.621,0,0,1,1252.929-665.1ZM1241.5-675.542a7.13,7.13,0,0,1,4.994-6.277,7.351,7.351,0,0,1,8.787,3.543,7.593,7.593,0,0,1,.749,2.492c.112.84-.139,1.1-1.2,1.084-.271-.033-.738-.065-1.195-.151-.765-.144-1.073-.732-1.317-1.394a3.884,3.884,0,0,0-1.86-2.308,3.579,3.579,0,0,0-4.922,1.627c-.192.374-.343.77-.512,1.156a1.5,1.5,0,0,1-1.247.942,6.218,6.218,0,0,1-1.6.1C1241.653-674.788,1241.46-675.018,1241.5-675.542Z" transform="translate(674.087 -44.678)" fill="#25bcea"/>
    <path id="Path_360" data-name="Path 360" d="M1253.378-615.124a7.953,7.953,0,0,0,3.8-4.777,15.4,15.4,0,0,0,.592-5.794,11.107,11.107,0,0,0-1.1-4.393,5.847,5.847,0,0,0-8.116-2.26,5.51,5.51,0,0,0-1.462,1.4c-.2-1.153-.382-1.556-1.93-1.748-1.155-.142-2.312-.037-3.468-.088-.359-.016-.469.062-.468.45.016,4.454.011,8.909.01,13.364q0,5.791-.009,11.581h5.856a1.011,1.011,0,0,1-.036-.46q0-2.927,0-5.854c0-.84,0-.834.832-.676A8.107,8.107,0,0,0,1253.378-615.124Zm-6.019-4.231a.433.433,0,0,1-.321-.466c.017-1.242.008-2.486.008-3.728,0-1.214.006-2.429-.007-3.643a.544.544,0,0,1,.3-.542,3.757,3.757,0,0,1,2.426-.529c.924.11,1.494.751,1.743,1.91a16.159,16.159,0,0,1,.16,3.622,7.02,7.02,0,0,1-.222,1.584c-.415,1.681-1.387,2.083-2.932,2.012A3.421,3.421,0,0,1,1247.359-619.354Z" transform="translate(672.113 -70.534)" fill="#000c2a"/>
    <path id="Path_361" data-name="Path 361" d="M1202.535-635.052c-.015,4.158-.006,8.317-.016,12.475,0,.324.07.432.415.428,1.641-.02,3.281-.025,4.922,0,.405.007.478-.117.477-.491-.013-4.158,0-8.317-.015-12.475,0-.323.067-.434.409-.42.72.029,1.443,0,2.164.015.249.006.338-.044.335-.319-.016-1.414-.013-2.829,0-4.243,0-.24-.064-.309-.3-.3-.764.015-1.528,0-2.291.011-.237,0-.319-.06-.308-.3.02-.424,0-.849.007-1.273a1.82,1.82,0,0,1,1.3-1.744,4.05,4.05,0,0,1,1.836-.142c.282.04.328-.051.326-.3-.011-1.216-.006-2.432-.005-3.649,0-.908,0-.929-.918-.979a9.105,9.105,0,0,0-3.915.472,7.184,7.184,0,0,0-4.424,6.766c0,.366.114.836-.068,1.067s-.685.058-1.045.085l-.127.009v4.838a6.16,6.16,0,0,0,.763,0C1202.43-635.575,1202.536-635.446,1202.535-635.052Z" transform="translate(691.518 -62.935)" fill="#000c2a"/>
    <path id="Path_362" data-name="Path 362" d="M1224.562-614.632c0,.323.066.432.412.427q2.481-.029,4.963,0c.347,0,.448-.078.447-.439-.014-3.591-.007-7.183-.007-10.775,0-1.668.005-3.337,0-5.005-.006-1.42-.47-1.924-1.884-1.974-1.172-.042-2.346-.013-3.518-.044-.338-.009-.415.091-.413.419.013,2.9.007,5.8.008,8.7S1224.574-617.531,1224.562-614.632Z" transform="translate(680.209 -70.879)" fill="#000c2a"/>
    <path id="Path_363" data-name="Path 363" d="M1227.836-643.693a2.661,2.661,0,0,0,2.653-2.628,2.632,2.632,0,0,0-2.605-2.62,2.629,2.629,0,0,0-2.647,2.572A2.651,2.651,0,0,0,1227.836-643.693Z" transform="translate(679.88 -62.864)" fill="#000c2a"/>
  </g>
</svg>
