<svg xmlns="http://www.w3.org/2000/svg" width="159.879" height="159.88" viewBox="0 0 159.879 159.88">
  <g id="Group_122" data-name="Group 122" transform="translate(-904.268 -100.264)">
    <path id="Path_98" data-name="Path 98" d="M953.76,122.7a.832.832,0,0,0-.825.86.882.882,0,0,0,.9.863.847.847,0,0,0,.813-.93A.823.823,0,0,0,953.76,122.7Z" transform="translate(67.654 31.19)" fill="#9e5e9f"/>
    <path id="Path_99" data-name="Path 99" d="M956.159,140.273c0-.516-.323-.774-.882-.774-.516,0-.839.28-.839.927a2.342,2.342,0,0,0,.6,1.331C955.882,141.33,956.159,140.854,956.159,140.273Z" transform="translate(69.742 54.541)" fill="#9e5e9f"/>
    <path id="Path_100" data-name="Path 100" d="M939.635,149.075h-.258a7.085,7.085,0,0,1-.193,1.53l-.688,2.839h2.065l-.732-2.839A7.233,7.233,0,0,1,939.635,149.075Z" transform="translate(47.579 67.853)" fill="#9e5e9f"/>
    <path id="Path_101" data-name="Path 101" d="M965.606,118.987a9.6,9.6,0,0,0-1.592-2.235A10,10,0,0,0,958.4,113.8c-.134-.022-.265-.041-.4-.057a10.132,10.132,0,0,0-2.139-.043,10.477,10.477,0,0,0-2.254.445,9.733,9.733,0,0,0-6.733,7.83c-.033.227-.06.457-.081.686l0,.057c-.057.715.205,1.03.925,1.116a8.4,8.4,0,0,0,2.187-.141,2.045,2.045,0,0,0,1.7-1.286c.2-.456.385-.92.6-1.37.033-.069.064-.141.1-.208a4.884,4.884,0,0,1,6.721-2.223,5.291,5.291,0,0,1,2.541,3.153c.335.9.755,1.707,1.8,1.9.624.117,1.26.16,1.63.206a4.766,4.766,0,0,0,.8-.048c.774-.129.961-.535.841-1.434A10.345,10.345,0,0,0,965.606,118.987Z" transform="translate(59.095 18.63)" fill="#9e5e9f"/>
    <path id="Path_102" data-name="Path 102" d="M955.25,145.361a3.332,3.332,0,0,0,1.745-.514c-.712-.841-1.723-2.154-2.261-2.863a1.751,1.751,0,0,0-1.1,1.7C953.637,144.761,954.132,145.361,955.25,145.361Z" transform="translate(68.629 57.996)" fill="#9e5e9f"/>
    <path id="Path_103" data-name="Path 103" d="M1036.527,100.264H931.886a27.619,27.619,0,0,0-27.618,27.62V260.144h132.259a27.619,27.619,0,0,0,27.62-27.618V127.884A27.621,27.621,0,0,0,1036.527,100.264Zm-86.2,127.446h-9.037v-14.5h8.951a23.544,23.544,0,0,1-.258,3.2h-4.864v2.326h3.573V221.9h-3.573v2.627h5.466A23.754,23.754,0,0,1,950.325,227.71Zm-7.952-89.964a29.222,29.222,0,0,1-.588-5.643l7.947-1.618h6.081v20.357h5.643a39.351,39.351,0,0,1-.492,6.377H941.589v-6.377h7.9v-13.93Zm9.252,59.48v3.162h-3.571v2.627h5.466a23.754,23.754,0,0,1-.258,3.184h-9.039V191.7h8.951a23.514,23.514,0,0,1-.256,3.2h-4.864v2.326Zm10.316,31.731a7.7,7.7,0,0,0,2.28-.516,20.152,20.152,0,0,1,.43,3.141,11.953,11.953,0,0,1-3.076.495,4.227,4.227,0,0,1-4.455-4.367c-2.99-.688-4.732-2.928-4.732-7.187,0-4.948,2.581-7.531,6.41-7.531,3.853,0,6.391,2.259,6.391,7.467,0,4.109-1.764,6.434-4.517,7.144C960.715,228.551,961.21,228.957,961.941,228.957Zm2.572-18.392a4.226,4.226,0,0,1-4.455-4.367c-2.992-.688-4.735-2.928-4.735-7.187,0-4.948,2.581-7.531,6.413-7.531,3.85,0,6.391,2.259,6.391,7.467,0,4.109-1.764,6.434-4.52,7.144.043.949.538,1.355,1.269,1.355a7.718,7.718,0,0,0,2.283-.516,20.16,20.16,0,0,1,.43,3.141A11.954,11.954,0,0,1,964.513,210.565Zm-2.132-66.739c0-9.467,4.56-13.832,10.5-13.832,6.377,0,10.5,4.121,10.5,13.832,0,8.977-4.023,13.882-10.5,13.882C966.746,157.708,962.381,153.736,962.381,143.826Zm16.877,77.839c0,4-1.764,6.26-5.81,6.26-3.592,0-5.786-1.551-5.786-6.26v-8.456h3.831v8.884c0,1.96.471,2.5,2,2.5,1.465,0,2.089-.6,2.089-2.5v-8.884h3.678Zm-2.873-15.251c-3.595,0-5.786-1.551-5.786-6.26V191.7h3.829v8.884c0,1.96.473,2.5,2,2.5,1.463,0,2.089-.6,2.089-2.5V191.7H982.2v8.456C982.2,204.153,980.431,206.414,976.385,206.414Zm13.413,21.4-.882-3.463h-3.595l-.86,3.463a17.934,17.934,0,0,1-3.614-.323c1.159-4.864,2.56-9.491,4.173-14.286h4.391c1.57,4.818,3.033,9.962,4.109,14.286A19.5,19.5,0,0,1,989.8,227.817ZM985.31,206.2V191.7h3.831v14.5Zm5.873-11.3v-3.2h10.177a24.493,24.493,0,0,1-.28,3.2h-2.947v11.3H994.3V194.9Zm29.771.282c0-2.261,1.42-3.7,4.044-3.7,2.454,0,3.982,1.1,3.982,3.227,0,1.465-.624,2.581-2.605,3.81.452.624,1.315,1.764,1.658,2.194.667-.71,1.614-1.785,3.033-3.53a34.406,34.406,0,0,1,.323,4.219,18.246,18.246,0,0,1-1.506,1.678l2.237,2.906a22.373,22.373,0,0,1-3.786.387l-.882-1.162a6.466,6.466,0,0,1-3.767,1.2c-3.162,0-4.928-1.745-4.928-4.281,0-1.979.645-3.143,3.057-4.455A4.261,4.261,0,0,1,1020.953,195.183Zm10.359-48.641a16.728,16.728,0,0,1-1.365,3.925,14.09,14.09,0,0,1-7.228,7.017,3.484,3.484,0,0,1-3.776-.251c-1.243-.994-1.568-2.725.1-3.8.968-.621,1.97-1.185,2.925-1.824a7.969,7.969,0,0,0,2.83-3.107,6.933,6.933,0,0,0,.428-1.071,1.819,1.819,0,0,0,.062-.22l.021-.143c.244-1.613-.05-1.857-1.257-1.96-.138-.012-.287-.022-.449-.031-2.256-.136-4.512-.2-6.771-.217q-2.115-.018-4.233.024c-1.582.026-3.162.139-4.744.21-1.559.069-1.941.674-1.461,2.189a8.627,8.627,0,0,0,2.483,3.726c.213.2.428.39.655.578.992.82,2.063,1.534,3.126,2.254,2.383,1.618,2.361,4.744-.217,6.487a11.918,11.918,0,0,1-1.25.707c-.189.1-.44.17-.454-.191a3.218,3.218,0,0,0-1.353-2.314c-1.331-1.154-2.713-2.256-4.039-3.418a15.953,15.953,0,0,1-3.1-3.645,14.981,14.981,0,0,1-1.334-2.789c-.093-.256-.184-.511-.263-.777-.024-.084-.053-.165-.077-.251a18.385,18.385,0,0,1-.485-6.948,15.638,15.638,0,0,1,6.243-11.093,15.328,15.328,0,0,1,4.147-2.168,16.261,16.261,0,0,1,5.533-.884,15.972,15.972,0,0,1,2.282.186l.069.01.067.014a15.7,15.7,0,0,1,7.259,3.131,16.587,16.587,0,0,1,1.491,1.353c.263.27.512.547.753.829a15.7,15.7,0,0,1,3.6,8.428c.021.17.043.342.062.514A17.9,17.9,0,0,1,1031.312,146.541Zm-27.47,81.168h-8.628v-14.5h3.831v11.21h5.033A27.265,27.265,0,0,1,1003.843,227.71Zm-1.95-35.8a27.063,27.063,0,0,1,3.961-.323l1.678,4.541a11.16,11.16,0,0,1,.409,1.484h.258a12.279,12.279,0,0,1,.387-1.53l1.637-4.5a24.563,24.563,0,0,1,3.635.323,86.955,86.955,0,0,1-4.023,9.039V206.2H1006v-5.23A75.466,75.466,0,0,1,1001.892,191.911Zm8.275,35.8h-3.829v-14.5h3.829Zm11.938-11.3h-2.947v11.3h-3.831v-11.3h-3.119v-3.2h10.177A24.471,24.471,0,0,1,1022.105,216.412Zm8.755,6.049v5.249h-3.831v-5.23a75.072,75.072,0,0,1-4.109-9.059,27.009,27.009,0,0,1,3.958-.323l1.68,4.541a10.814,10.814,0,0,1,.406,1.484h.261a12.264,12.264,0,0,1,.385-1.53l1.637-4.5a24.617,24.617,0,0,1,3.637.323A86.91,86.91,0,0,1,1030.86,222.461ZM934.188,114.607a15.578,15.578,0,0,0-15.579,15.579V252.973h-7.17V127.884a20.472,20.472,0,0,1,20.448-20.447h104.642a20.4,20.4,0,0,1,15.521,7.17Z" transform="translate(0 0)" fill="#aa58a4"/>
    <path id="Path_104" data-name="Path 104" d="M928.44,148.733c-1.594,0-2.347.97-2.347,4.371,0,3.184.71,4.321,2.366,4.321,1.637,0,2.347-1.052,2.347-4.321C930.806,149.682,929.946,148.733,928.44,148.733Z" transform="translate(30.339 67.378)" fill="#9e5e9f"/>
    <path id="Path_105" data-name="Path 105" d="M929.667,139.733c-1.592,0-2.345.97-2.345,4.371,0,3.184.71,4.321,2.366,4.321,1.635,0,2.345-1.052,2.345-4.321C932.033,140.682,931.172,139.733,929.667,139.733Z" transform="translate(32.048 54.866)" fill="#9e5e9f"/>
    <path id="Path_106" data-name="Path 106" d="M938.869,123.111c0-5.1-.538-7.945-3.726-7.945-3.043,0-3.729,2.746-3.729,7.945,0,5.447.638,8.045,3.729,8.045S938.869,128.312,938.869,123.111Z" transform="translate(37.736 20.716)" fill="#9e5e9f"/>
    <path id="Path_107" data-name="Path 107" d="M1032.357,103.265H927.715a20.471,20.471,0,0,0-20.448,20.447V248.8h7.17V126.014a15.578,15.578,0,0,1,15.579-15.579h117.861A20.4,20.4,0,0,0,1032.357,103.265Z" transform="translate(4.17 4.172)" fill="#9e5e9f"/>
    <path id="Path_108" data-name="Path 108" d="M1032.357,103.265H927.715a20.471,20.471,0,0,0-20.448,20.447V248.8h7.17V126.014a15.578,15.578,0,0,1,15.579-15.579h117.861A20.4,20.4,0,0,0,1032.357,103.265Z" transform="translate(4.17 4.172)" fill="#3c0749" opacity="0.3"/>
    <path id="Path_109" data-name="Path 109" d="M975.877,125.219a15.707,15.707,0,0,0-3.6-8.428c-.241-.282-.49-.559-.753-.829a16.643,16.643,0,0,0-1.491-1.353,15.7,15.7,0,0,0-7.259-3.131l-.067-.014-.069-.01a15.97,15.97,0,0,0-2.282-.186,16.26,16.26,0,0,0-5.533.884,15.262,15.262,0,0,0-7.225,5.2,15.606,15.606,0,0,0-3.165,8.062,18.384,18.384,0,0,0,.485,6.948c.024.086.053.167.077.251.079.265.17.521.263.777a14.973,14.973,0,0,0,1.333,2.789,15.952,15.952,0,0,0,3.1,3.645c1.327,1.162,2.708,2.263,4.039,3.418a3.217,3.217,0,0,1,1.353,2.314c.014.361.265.287.454.191a11.922,11.922,0,0,0,1.25-.708c2.579-1.742,2.6-4.869.217-6.487-1.064-.719-2.134-1.434-3.126-2.254-.227-.189-.442-.382-.655-.578a8.628,8.628,0,0,1-2.484-3.726c-.48-1.515-.1-2.12,1.461-2.189,1.582-.072,3.162-.184,4.744-.21q2.119-.039,4.233-.024c2.259.014,4.515.081,6.771.217.162.01.311.019.449.031,1.207.1,1.5.347,1.257,1.96l-.021.143a1.821,1.821,0,0,1-.062.22,6.969,6.969,0,0,1-.428,1.071,7.97,7.97,0,0,1-2.83,3.107c-.956.638-1.957,1.2-2.926,1.824-1.663,1.071-1.338,2.8-.1,3.8a3.484,3.484,0,0,0,3.776.251,14.09,14.09,0,0,0,7.228-7.017,16.729,16.729,0,0,0,1.365-3.925,17.9,17.9,0,0,0,.28-5.514C975.92,125.561,975.9,125.389,975.877,125.219Zm-10.043,15.1a.882.882,0,0,1-.9-.863.831.831,0,0,1,.825-.86.823.823,0,0,1,.884.794A.847.847,0,0,1,965.833,140.32Zm3.4-13.162a4.764,4.764,0,0,1-.8.048c-.37-.045-1.006-.088-1.63-.206-1.044-.2-1.465-1-1.8-1.9a5.29,5.29,0,0,0-2.541-3.153,4.884,4.884,0,0,0-6.721,2.223c-.036.067-.067.139-.1.208-.215.449-.4.913-.6,1.37a2.046,2.046,0,0,1-1.7,1.286,8.4,8.4,0,0,1-2.187.141c-.719-.086-.982-.4-.925-1.116l0-.057c.022-.229.048-.459.081-.686a9.733,9.733,0,0,1,6.733-7.83,10.481,10.481,0,0,1,2.254-.445,10.131,10.131,0,0,1,2.139.043c.134.017.265.036.4.057a10,10,0,0,1,5.617,2.949,9.6,9.6,0,0,1,1.592,2.235,10.348,10.348,0,0,1,1.023,3.4C970.191,126.622,970,127.028,969.23,127.157Z" transform="translate(55.653 15.294)" fill="#fff"/>
    <path id="Path_110" data-name="Path 110" d="M919.883,133.265v6.377h19.374a39.365,39.365,0,0,0,.492-6.377h-5.643V112.908h-6.081l-7.947,1.618a29.2,29.2,0,0,0,.588,5.643l7.113-.834v13.93Z" transform="translate(21.707 17.577)" fill="#fff"/>
    <path id="Path_111" data-name="Path 111" d="M949.577,126.535c0-9.711-4.121-13.832-10.5-13.832-5.937,0-10.5,4.364-10.5,13.832,0,9.909,4.364,13.882,10.5,13.882C945.554,140.416,949.577,135.512,949.577,126.535Zm-14.226,0c0-5.2.686-7.945,3.729-7.945,3.188,0,3.726,2.844,3.726,7.945,0,5.2-.636,8.045-3.726,8.045S935.351,131.982,935.351,126.535Z" transform="translate(33.799 17.292)" fill="#fff"/>
    <path id="Path_112" data-name="Path 112" d="M929.68,141.722a23.5,23.5,0,0,0,.256-3.2h-8.951v14.5h9.039a23.754,23.754,0,0,0,.258-3.184h-5.466v-2.627h3.571v-3.162h-3.571v-2.326Z" transform="translate(23.239 53.179)" fill="#fff"/>
    <path id="Path_113" data-name="Path 113" d="M935.182,154.394c-.731,0-1.226-.406-1.269-1.355,2.756-.71,4.52-3.035,4.52-7.144,0-5.208-2.541-7.467-6.391-7.467-3.831,0-6.413,2.584-6.413,7.531,0,4.259,1.742,6.5,4.735,7.187a4.226,4.226,0,0,0,4.455,4.367,11.952,11.952,0,0,0,3.076-.495,20.153,20.153,0,0,0-.43-3.141A7.719,7.719,0,0,1,935.182,154.394Zm-3.141-4.154c-1.656,0-2.366-1.138-2.366-4.321,0-3.4.753-4.372,2.345-4.372,1.506,0,2.366.949,2.366,4.372C934.386,149.188,933.676,150.24,932.042,150.24Z" transform="translate(29.694 53.052)" fill="#fff"/>
    <path id="Path_114" data-name="Path 114" d="M943.617,138.519h-3.678V147.4c0,1.893-.626,2.5-2.089,2.5-1.527,0-2-.535-2-2.5v-8.884H932.02v8.456c0,4.708,2.192,6.26,5.786,6.26,4.047,0,5.81-2.261,5.81-6.26Z" transform="translate(38.579 53.179)" fill="#fff"/>
    <rect id="Rectangle_291" data-name="Rectangle 291" width="3.83" height="14.502" transform="translate(985.31 191.697)" fill="#fff"/>
    <path id="Path_115" data-name="Path 115" d="M947.582,153.02v-11.3h2.947a24.493,24.493,0,0,0,.28-3.2H940.632v3.2h3.119v11.3Z" transform="translate(50.55 53.179)" fill="#fff"/>
    <path id="Path_116" data-name="Path 116" d="M953.055,153.084v-5.249a86.889,86.889,0,0,0,4.023-9.039,24.562,24.562,0,0,0-3.635-.323l-1.637,4.5a12.245,12.245,0,0,0-.387,1.53h-.258a11.158,11.158,0,0,0-.409-1.484l-1.678-4.541a27.059,27.059,0,0,0-3.96.323,75.455,75.455,0,0,0,4.111,9.059v5.23Z" transform="translate(56.779 53.115)" fill="#fff"/>
    <path id="Path_117" data-name="Path 117" d="M952.169,149.081c0,2.536,1.766,4.281,4.928,4.281a6.467,6.467,0,0,0,3.767-1.2l.882,1.162a22.373,22.373,0,0,0,3.786-.387l-2.237-2.906a18.251,18.251,0,0,0,1.506-1.678,34.383,34.383,0,0,0-.323-4.219c-1.42,1.745-2.366,2.82-3.033,3.53-.344-.43-1.207-1.57-1.659-2.194,1.981-1.229,2.605-2.345,2.605-3.81,0-2.127-1.527-3.227-3.982-3.227-2.624,0-4.044,1.441-4.044,3.7a4.261,4.261,0,0,0,.86,2.5C952.814,145.938,952.169,147.1,952.169,149.081Zm6.262-8.093c.559,0,.882.258.882.774,0,.581-.277,1.056-1.119,1.484a2.341,2.341,0,0,1-.6-1.331C957.592,141.267,957.915,140.988,958.431,140.988Zm-1.656,5.939c.538.71,1.549,2.022,2.261,2.863a3.332,3.332,0,0,1-1.745.514c-1.119,0-1.613-.6-1.613-1.678A1.751,1.751,0,0,1,956.775,146.927Z" transform="translate(66.588 53.052)" fill="#fff"/>
    <path id="Path_118" data-name="Path 118" d="M923.586,156.209h3.573v-3.162h-3.573v-2.326h4.864a23.544,23.544,0,0,0,.258-3.2h-8.951v14.5h9.037a23.784,23.784,0,0,0,.258-3.184h-5.466Z" transform="translate(21.532 65.69)" fill="#fff"/>
    <path id="Path_119" data-name="Path 119" d="M937.2,154.895c0-5.208-2.538-7.467-6.391-7.467-3.829,0-6.41,2.584-6.41,7.531,0,4.259,1.742,6.5,4.732,7.187a4.227,4.227,0,0,0,4.455,4.367,11.956,11.956,0,0,0,3.076-.495,20.145,20.145,0,0,0-.43-3.141,7.7,7.7,0,0,1-2.28.516c-.731,0-1.226-.406-1.269-1.355C935.438,161.329,937.2,159,937.2,154.895Zm-6.391,4.345c-1.656,0-2.366-1.138-2.366-4.321,0-3.4.753-4.372,2.347-4.372,1.506,0,2.366.949,2.366,4.372C933.158,158.188,932.448,159.24,930.811,159.24Z" transform="translate(27.987 65.563)" fill="#fff"/>
    <path id="Path_120" data-name="Path 120" d="M938.709,156.4c0,1.893-.624,2.5-2.089,2.5-1.527,0-2-.535-2-2.5v-8.884h-3.831v8.456c0,4.709,2.194,6.26,5.786,6.26,4.047,0,5.81-2.261,5.81-6.26v-8.456h-3.678Z" transform="translate(36.87 65.69)" fill="#fff"/>
    <path id="Path_121" data-name="Path 121" d="M940.481,147.519c-1.613,4.795-3.014,9.422-4.173,14.286a17.936,17.936,0,0,0,3.614.323l.86-3.463h3.595l.882,3.463a19.5,19.5,0,0,0,3.721-.323c-1.076-4.324-2.538-9.467-4.109-14.286Zm1.054,8.088.688-2.839a7.085,7.085,0,0,0,.193-1.53h.258a7.237,7.237,0,0,0,.193,1.53l.732,2.839Z" transform="translate(44.539 65.69)" fill="#fff"/>
    <path id="Path_122" data-name="Path 122" d="M946.15,147.519h-3.832v14.5h8.628a27.3,27.3,0,0,0,.237-3.291H946.15Z" transform="translate(52.895 65.69)" fill="#fff"/>
    <rect id="Rectangle_292" data-name="Rectangle 292" width="3.83" height="14.502" transform="translate(1006.337 213.208)" fill="#fff"/>
    <path id="Path_123" data-name="Path 123" d="M949.429,150.722h3.119v11.3h3.831v-11.3h2.947a24.493,24.493,0,0,0,.28-3.2H949.429Z" transform="translate(62.779 65.69)" fill="#fff"/>
    <path id="Path_124" data-name="Path 124" d="M960.6,151.969a12.262,12.262,0,0,0-.385,1.53h-.26a10.812,10.812,0,0,0-.406-1.484l-1.68-4.541a27.007,27.007,0,0,0-3.958.323,75.07,75.07,0,0,0,4.109,9.059v5.23h3.831v-5.249a86.983,86.983,0,0,0,4.025-9.039,24.626,24.626,0,0,0-3.638-.323Z" transform="translate(69.01 65.626)" fill="#fff"/>
  </g>
</svg>
