<svg xmlns="http://www.w3.org/2000/svg" xmlns:xlink="http://www.w3.org/1999/xlink" width="263.441" height="266.42" viewBox="0 0 263.441 266.42">
  <defs>
    <clipPath id="clip-path">
      <rect id="Rectangle_98" data-name="Rectangle 98" width="263.441" height="266.42" fill="#aa58a4"/>
    </clipPath>
  </defs>
  <g id="Group_167" data-name="Group 167" transform="translate(-524.824 -266.481)">
    <g id="Group_103" data-name="Group 103" transform="translate(524.824 266.481)">
      <g id="Group_102" data-name="Group 102" clip-path="url(#clip-path)">
        <path id="Path_73" data-name="Path 73" d="M77.949,138.714v14.611a5.466,5.466,0,0,0,5.466,5.466h26.242v26.243a5.467,5.467,0,0,0,5.466,5.465h14.611a5.466,5.466,0,0,0,5.467-5.465V158.791h26.242a5.466,5.466,0,0,0,5.465-5.466V138.714a5.466,5.466,0,0,0-5.465-5.466H135.2V107a5.467,5.467,0,0,0-5.467-5.466H115.124A5.467,5.467,0,0,0,109.658,107v26.243H83.415a5.466,5.466,0,0,0-5.466,5.466" transform="translate(-5.385 -7.015)" fill="#aa58a4"/>
        <path id="Path_74" data-name="Path 74" d="M200.291,223.053l-.219.058c-12.186,3.24-24.264,6.881-36.165,10.29,0,2.873.467,5.556-.092,8-1.413,6.191-5.789,10.133-11.864,10.581a208.491,208.491,0,0,1-25.19-.107,79.145,79.145,0,0,1-16.6-2.884c2.13-.5,4.258-1.419,6.39-1.427,9.223-.034,18.447.263,27.672.3a34,34,0,0,0,8.576-.741,8.27,8.27,0,0,0,6.047-8.314c-.016-4.245-1.731-7.209-6.153-7.983-8.149-1.429-16.452-1.957-24.646-3.16-8.71-1.278-17.346-3.048-26.054-4.32-5.272-.77-10.655-1.567-15.923-1.257-3.01.176-6.251,2.078-8.768,4.009-17.888,13.73-38.376,21.953-59.534,28.807a9.468,9.468,0,0,0-2.536,1.265c4.447,10.947,13.581,16.721,23.661,21.444,1.191.559,2.451.968,3.633,1.541,6.8,3.291,12.605,4.143,19.534-1.513,9.466-7.727,21.717-9.394,33.663-9.316,14.741.1,29.482,1.164,44.209,2.034,4.49.265,8.529-.192,12.435-2.676q12.21-7.767,24.944-14.668.934-.507,1.872-1.008,7.811-4.175,15.8-8c3.915-1.884,7.842-3.744,11.836-5.46a11.047,11.047,0,0,0,2.539-1.365,4.791,4.791,0,0,0,.488-.446,5.869,5.869,0,0,0,1.379-2.859c1.336-6.327-4.535-12.463-10.931-10.825" transform="translate(-1.052 -15.339)" fill="#aa58a4"/>
        <path id="Path_75" data-name="Path 75" d="M272.92,149.643c-.112-1.309-.386-2.606-.483-3.916-.551-7.538-2.715-12.987-11.077-16.161-11.424-4.335-18.992-14.111-24.9-24.494-7.286-12.815-13.733-26.115-20.342-39.3-2.015-4.022-4.43-7.291-8.536-9.43q-12.83-6.691-25.174-14.269-.906-.556-1.81-1.118-7.522-4.674-14.831-9.68c-3.59-2.45-7.163-4.92-10.647-7.52a10.912,10.912,0,0,0-2.451-1.516,4.864,4.864,0,0,0-.63-.2,5.861,5.861,0,0,0-3.165.236c-6.147,2.006-8.525,10.159-3.909,14.878.052.055.106.107.16.161,8.9,8.934,18.091,17.573,26.995,26.175,2.486-1.437,4.577-3.183,6.976-3.923,6.069-1.871,11.671-.052,15.1,4.985a208.242,208.242,0,0,1,12.5,21.869,79.232,79.232,0,0,1,5.8,15.819c-1.5-1.595-3.359-2.978-4.431-4.82-4.641-7.971-9-16.108-13.577-24.114a34,34,0,0,0-4.929-7.057,8.274,8.274,0,0,0-10.224-1.079c-3.669,2.136-5.38,5.1-3.838,9.321,2.838,7.77,6.531,15.225,9.587,22.924,3.248,8.181,6.033,16.545,9.286,24.723,1.969,4.951,3.97,10.011,6.873,14.42,1.658,2.517,4.925,4.373,7.857,5.587,20.835,8.627,38.2,22.258,54.714,37.154a9.464,9.464,0,0,0,2.363,1.563c7.257-9.324,7.691-20.123,6.741-31.213" transform="translate(-9.849 -1.514)" fill="#aa58a4"/>
        <path id="Path_76" data-name="Path 76" d="M16.833,177.135c.02-.073.04-.145.06-.218,3.288-12.174,6.173-24.455,9.171-36.466-2.488-1.435-5.045-2.373-6.885-4.081-4.655-4.321-5.881-10.081-3.231-15.566A208.017,208.017,0,0,1,28.636,99.041a79.191,79.191,0,0,1,10.8-12.934c-.631,2.095-.9,4.4-1.959,6.247-4.583,8-9.451,15.844-14.095,23.815a34.045,34.045,0,0,0-3.647,7.8,8.273,8.273,0,0,0,4.179,9.4c3.684,2.109,7.107,2.106,9.991-1.338,5.311-6.343,9.92-13.269,15.058-19.765,5.461-6.9,11.312-13.5,16.768-20.4,3.3-4.181,6.684-8.445,9.05-13.162,1.351-2.694,1.326-6.452.911-9.6-2.946-22.357.176-44.21,4.819-65.962A9.456,9.456,0,0,0,80.681.307c-11.7-1.622-21.271,3.4-30.4,9.769-1.078.752-2.064,1.638-3.15,2.377-6.252,4.246-9.89,8.846-8.457,17.673,1.958,12.061-2.723,23.5-8.763,33.81C22.454,76.654,14.16,88.887,6.042,101.206c-2.475,3.756-4.1,7.483-3.9,12.106q.621,14.459.231,28.935-.029,1.064-.063,2.127-.289,8.852-.968,17.685c-.327,4.333-.679,8.662-1.189,12.98a11,11,0,0,0-.088,2.88,4.742,4.742,0,0,0,.142.646,5.885,5.885,0,0,0,1.786,2.623c4.812,4.32,13.062,2.3,14.84-4.054" transform="translate(0 0)" fill="#aa58a4"/>
      </g>
    </g>
  </g>
</svg>
