<svg xmlns="http://www.w3.org/2000/svg" width="620.185" height="687.888" viewBox="0 0 620.185 687.888">
  <g id="Rfpcl0.tif" transform="translate(2419.86 897.221) rotate(90)" opacity="0.152">
    <g id="Group_124" data-name="Group 124" transform="translate(-897.221 1799.675)">
      <path id="Path_98" data-name="Path 98" d="M-676.32,2343.319c-1.109-2.322.47-2.983,1.79-3.746q14.231-8.22,28.475-16.42,17.417-10.044,34.83-20.095c.69-.4,1.336-.877,1.995-1.314-.777-1.312-1.473-2.486-2.437-4.114l-64.646,37.264c-1.1-2.325.332-3.054,1.7-3.843q22.356-12.9,44.705-25.807c5.49-3.169,10.948-6.4,16.5-9.463a4.276,4.276,0,0,0,2.581-4.252q-.1-33.165-.007-66.331a4.346,4.346,0,0,0-2.1-3.949,9.982,9.982,0,0,1-3.161-5.049c-.429-1.509-.821-2.545-2.225-3.352-18.846-10.822-37.655-21.714-56.524-32.5a4.143,4.143,0,0,0-3.316-.085,7.806,7.806,0,0,1-7.284.012,3.84,3.84,0,0,0-3.091-.063q-28.66,16.368-57.188,32.967a4.166,4.166,0,0,0-1.574,2.768c-.531,3.855-3.222,6.47-6.846,6.35-3.541-.116-5.979-2.726-6.479-6.473a4.716,4.716,0,0,0-1.88-3.107q-28.156-16.426-56.458-32.6a3.729,3.729,0,0,0-3.1-.041,7.756,7.756,0,0,1-7.515.223,4.237,4.237,0,0,0-3.363.245q-26.182,14.963-52.269,30.094c-3.821,2.205-7.648,4.4-11.576,6.661-1.118-2.133.1-2.921,1.515-3.737q17.667-10.154,35.3-20.358c8.469-4.89,16.916-9.82,25.415-14.657,1.491-.849,2.3-1.662,2.058-3.579a5.449,5.449,0,0,1,3.315-6.007c2.3-.95,2.438-2.466,2.435-4.488q-.057-34.253.019-68.505a10.533,10.533,0,0,1,1.009-3.866c2.548.406,1.347,2.522,1.352,3.873q.123,34.524.035,69.049c0,1.823.159,3.233,2.072,4.242,2.057,1.086,2.679,3.184,2.909,5.51a4.561,4.561,0,0,0,1.814,3.116c18.693,10.9,37.46,21.686,56.184,32.538a2.851,2.851,0,0,0,3.637-.1,6.162,6.162,0,0,1,7.815.191,2.6,2.6,0,0,0,3.382.18c18.8-10.908,37.632-21.743,56.411-32.681a3.693,3.693,0,0,0,1.564-2.652,7.67,7.67,0,0,1,3.766-6.771,4.146,4.146,0,0,0,1.674-2.924q.086-32.621-.119-65.242a4.253,4.253,0,0,0-1.787-2.872c-3.346-2.294-4.453-5.874-2.575-9.184,1.9-3.35,5.871-4.376,9.4-2.168a3.05,3.05,0,0,0,3.674-.013c18.727-10.85,37.492-21.633,56.189-32.533a4.747,4.747,0,0,0,1.973-3.064c.568-4,3.3-6.777,6.934-6.64,3.708.14,6.244,3.021,6.538,7.013a4.187,4.187,0,0,0,1.7,2.907c18.544,10.81,37.152,21.506,55.723,32.269a3.006,3.006,0,0,0,3.693,0c2.4-1.62,4.87-1.391,7.427.029a3.978,3.978,0,0,0,3.323.037c18.791-10.736,37.518-21.584,56.281-32.371a3.133,3.133,0,0,0,1.813-3.249,5.789,5.789,0,0,1,3.61-5.868c1.561-.695,1.845-1.706,1.843-3.195-.027-20.389,0-40.777-.091-61.165a4.246,4.246,0,0,0-1.645-2.957,8.046,8.046,0,0,1-3.657-6.024,4.339,4.339,0,0,0-1.768-2.89q-28.168-16.414-56.477-32.585c-.846-.484-2.229-.089-3.355-.008-2.08.151-4.471,1.107-6.155.385-2.324-1-3.8-.48-5.686.615q-30.09,17.437-60.244,34.765c-.77.444-1.565.843-2.476,1.332-1.11-2.06.119-2.861,1.509-3.662q16.007-9.223,32-18.475,14.353-8.287,28.724-16.54c1.474-.841,2.279-1.681,2.088-3.595a5.742,5.742,0,0,1,3.534-6.18c1.924-.81,2.159-2.026,2.156-3.794q-.052-34.661-.018-69.322a6.647,6.647,0,0,1,.055-2.156c.225-.617.876-1.081,1.339-1.611a5.681,5.681,0,0,1,1.081,1.543,8.119,8.119,0,0,1,.056,2.162q0,34.524-.033,69.049a5.236,5.236,0,0,0,2.2,4.758,9.181,9.181,0,0,1,2.675,5.262,4.181,4.181,0,0,0,2.127,3.378q28.028,16.114,56,32.322c1.306.758,2.258.945,3.626-.075a5.962,5.962,0,0,1,7.576.024,2.991,2.991,0,0,0,3.865.224q27.843-16.163,55.76-32.2c1.492-.858,2.284-1.735,2.119-3.6-.241-2.7,1.294-4.529,3.415-6.08a4.314,4.314,0,0,0,1.807-2.811q.135-32.757-.025-65.515a3.85,3.85,0,0,0-1.6-2.665c-3.508-2.335-4.7-6.035-2.77-9.351,1.938-3.337,5.86-4.336,9.406-2.149a3.109,3.109,0,0,0,3.7-.061q28.1-16.271,56.247-32.457a3.525,3.525,0,0,0,2.087-3.384,6.473,6.473,0,0,1,6.488-6.357,6.375,6.375,0,0,1,6.578,6.517c-.025,2,.794,2.871,2.34,3.76q27.325,15.706,54.581,31.534c1.709.992,3.065,1.375,4.909.125a5.44,5.44,0,0,1,6.416.144c1.654,1.2,2.859.842,4.4-.059,9.935-5.8,19.91-11.522,29.877-17.263.844-.486,1.723-.911,2.6-1.371.967,2.1-.162,2.932-1.625,3.769-9.906,5.667-19.771,11.4-29.68,17.066-1.515.867-2.524,1.694-2.406,3.738.139,2.42-1.312,4.159-3.243,5.639a4.741,4.741,0,0,0-1.884,3.091q-.227,32.62-.132,65.242a4.16,4.16,0,0,0,1.833,2.8c3.242,2.136,4.464,5.982,2.671,9.192-1.83,3.275-5.567,4.2-9.21,2.526a4.222,4.222,0,0,0-3.325-.1q-28.187,16.109-56.229,32.472a4.356,4.356,0,0,0-1.716,2.914c-.472,3.916-3,6.6-6.6,6.635-3.633.034-6.222-2.558-6.773-6.442a4.136,4.136,0,0,0-1.678-2.69q-28.528-16.6-57.185-32.984a3.9,3.9,0,0,0-3.091.11,7.861,7.861,0,0,1-7.3-.032,3.819,3.819,0,0,0-3.084-.012q-28.421,16.252-56.708,32.735a5.159,5.159,0,0,0-1.913,3.122,8.182,8.182,0,0,1-3.833,5.628,4.039,4.039,0,0,0-1.73,2.87q-.15,30.582,0,61.164a4.643,4.643,0,0,0,1.762,3.166,7.712,7.712,0,0,1,3.473,6.109,3.879,3.879,0,0,0,1.62,2.708q29.11,16.953,58.363,33.658a4.708,4.708,0,0,0,3.877-.357q32.795-18.72,65.489-37.618c.836-.481,1.7-.91,2.626-1.4,1.166,2.151-.169,2.908-1.551,3.7q-17.774,10.243-35.532,20.513-13.88,8.02-27.75,16.052c-.762.441-1.492.935-2.146,1.346.814,1.4,1.509,2.587,2.4,4.112l64.416-37.16c1.364,1.88.3,2.763-1.16,3.6q-11.9,6.837-23.769,13.715c-12.55,7.24-25.083,14.512-37.678,21.674a4.488,4.488,0,0,0-2.6,4.5q.118,32.894.012,65.787a4.713,4.713,0,0,0,2.2,4.424c1.477,1.074,2.075,3.346,3.089,5.073.59,1,1,2.385,1.886,2.9q28.4,16.558,56.935,32.88a3.807,3.807,0,0,0,3.137.012,7.324,7.324,0,0,1,7.486.061,3.5,3.5,0,0,0,2.9-.013q28.529-16.33,56.94-32.865a4.329,4.329,0,0,0,1.742-2.7c.764-4.236,3.23-6.658,6.984-6.531,3.667.124,5.917,2.732,6.494,7.018a4.48,4.48,0,0,0,2.081,2.714c9.831,5.789,19.747,11.436,29.577,17.229.985.581,1.555,1.867,2.316,2.826l-.769.773c-1.4-.754-2.81-1.476-4.184-2.269q-13.884-8.009-27.743-16.062c-1.595-.931-2.827-1.331-4.614-.062-2.442,1.736-5.084,1.26-7.633-.355a3.5,3.5,0,0,0-2.993-.225q-28.421,16.242-56.7,32.722a3.765,3.765,0,0,0-1.521,2.726,7.311,7.311,0,0,1-3.846,6.693,3.442,3.442,0,0,0-1.458,2.5q-.088,32.891.07,65.781a3.9,3.9,0,0,0,1.638,2.658c3.446,2.343,4.589,6.119,2.622,9.391-1.952,3.247-5.856,3.976-9.546,2.055a4.058,4.058,0,0,0-3.331.015c-18.788,10.742-37.51,21.6-56.275,32.382a3.786,3.786,0,0,0-2.272,3.567,6.344,6.344,0,0,1-6.569,6.21,6.261,6.261,0,0,1-6.452-6.318c.044-2.281-1.034-3.177-2.686-4.127q-27.435-15.788-54.82-31.662a3.2,3.2,0,0,0-3.931,0,5.99,5.99,0,0,1-7.139-.12c-1.362-.956-2.355-.765-3.676,0q-27.854,16.137-55.768,32.17a3.606,3.606,0,0,0-2.172,3.628,5.67,5.67,0,0,1-3.524,5.651c-1.781.773-1.966,2-1.964,3.661q.052,32.892.02,65.787a11.32,11.32,0,0,1-.054,2.437,5.722,5.722,0,0,1-1,1.6,6.646,6.646,0,0,1-1.353-1.565,5.1,5.1,0,0,1-.054-1.882q0-33.03.029-66.059a4.965,4.965,0,0,0-2.192-4.45c-1.492-1.2-2.042-3.557-3.036-5.388-.551-1.016-.909-2.428-1.777-2.935-19.328-11.256-38.737-22.375-58.06-33.639-2-1.164-3.223-.21-4.676.625q-32.494,18.7-64.981,37.412C-674.562,2342.459-675.439,2342.866-676.32,2343.319ZM-395.574,2130.7c0-11.777-.038-23.554.038-35.331a4.1,4.1,0,0,0-2.3-4.121q-30.622-17.579-61.157-35.3a2.864,2.864,0,0,0-3.661.065c-2.327,1.732-4.817,1.574-7.406.2a4.09,4.09,0,0,0-3.338-.193q-28.3,16.166-56.452,32.588a3.88,3.88,0,0,0-1.635,2.69,7.721,7.721,0,0,1-3.623,6.311,3.933,3.933,0,0,0-1.651,2.671q-.187,32.748-.1,65.5a4.2,4.2,0,0,0,1.711,2.905c3.378,2.306,4.553,5.849,2.747,9.132-1.872,3.4-5.609,4.285-9.416,2.456a3.88,3.88,0,0,0-3.108-.039q-28.167,16.122-56.2,32.477a4.376,4.376,0,0,0-1.743,2.9,7.779,7.779,0,0,1-3.888,6.145,3.773,3.773,0,0,0-1.6,2.707q-.126,36.01.011,72.021a4.1,4.1,0,0,0,1.639,3.026q30.98,18.044,62.1,35.842a3.347,3.347,0,0,0,2.841-.074,7.528,7.528,0,0,1,8.209-.055,3.382,3.382,0,0,0,2.835-.02q28.4-16.261,56.685-32.726a3.925,3.925,0,0,0,1.556-2.731,7.611,7.611,0,0,1,3.686-6.26,4.152,4.152,0,0,0,1.614-2.983q.179-32.477.073-64.954a4.5,4.5,0,0,0-1.835-3.1c-3.258-2.237-4.444-5.971-2.614-9.2a6.471,6.471,0,0,1,9.154-2.341,3.19,3.19,0,0,0,3.707-.1c18.564-10.76,37.163-21.462,55.691-32.282a4.737,4.737,0,0,0,1.888-3.115c.345-2.528,1.246-4.659,3.546-5.729,1.748-.813,2.027-1.959,2.021-3.642C-395.589,2154.257-395.566,2142.479-395.574,2130.7Zm72.188,127.28c0-10.691-.021-21.382.022-32.073.007-1.675-.273-2.844-2.015-3.676a5.813,5.813,0,0,1-3.324-6.05,3.016,3.016,0,0,0-1.857-3.2q-28.252-16.258-56.454-32.6a2.553,2.553,0,0,0-3.363.273,6.089,6.089,0,0,1-7.8.186c-1.393-.987-2.356-.761-3.656-.008q-27.62,16-55.295,31.9c-1.482.851-2.285,1.7-2.114,3.585a5.764,5.764,0,0,1-3.447,5.97,3.232,3.232,0,0,0-2.01,3.413q.047,32.344.005,64.69c0,1.475.278,2.51,1.812,3.224,2.51,1.17,3.623,3.316,3.762,6.128a3.858,3.858,0,0,0,1.449,2.781q28.162,16.416,56.463,32.592a3.856,3.856,0,0,0,3.113-.133,7.588,7.588,0,0,1,7.737.214,4.091,4.091,0,0,0,3.291.034c2.761-1.344,5.367-3.007,8.033-4.545q23.884-13.775,47.771-27.542c1.544-.889,2.781-1.7,2.594-3.922a5.266,5.266,0,0,1,3.108-5.33c1.928-.9,2.231-2.218,2.218-4.107C-323.415,2279.184-323.379,2268.583-323.386,2257.982Zm71.838-368.992c0-10.781-.018-21.562.021-32.343.005-1.576-.271-2.667-1.907-3.45-2.382-1.139-3.422-3.263-3.624-5.951a4.224,4.224,0,0,0-1.581-2.98q-28.037-16.358-56.224-32.46a3.749,3.749,0,0,0-3.115.063c-2.458,1.348-4.978,1.74-7.166.062-1.873-1.437-3.2-1-4.792.1-.741.515-1.561.917-2.345,1.369q-26.467,15.282-52.938,30.552c-1.3.748-2.369,1.383-2.245,3.261.182,2.769-1.286,4.729-3.62,6.239a3.835,3.835,0,0,0-1.617,2.681q-.134,32.751,0,65.5a3.782,3.782,0,0,0,1.6,2.677,7.5,7.5,0,0,1,3.753,6.489,4.119,4.119,0,0,0,1.642,2.928c18.77,10.948,37.606,21.782,56.4,32.68a2.582,2.582,0,0,0,3.39-.11,6.225,6.225,0,0,1,8.041-.18c1.284.929,2.171.73,3.394.021q27.737-16.066,55.532-32.03a3.394,3.394,0,0,0,2.006-3.671,5.414,5.414,0,0,1,3.1-5.608c2.094-.963,2.325-2.377,2.315-4.318C-251.572,1910.009-251.544,1899.5-251.548,1888.99ZM-539.27,2133.37c0-10.689-.019-21.379.018-32.067.006-1.733-.16-3.037-2.088-3.884-2.444-1.073-3.3-3.353-3.587-5.976a4.289,4.289,0,0,0-1.578-2.946c-18.614-10.853-37.3-21.59-55.94-32.393a3.027,3.027,0,0,0-3.687.085,5.858,5.858,0,0,1-7.331-.281,2.594,2.594,0,0,0-3.4-.157c-18.88,10.93-37.788,21.814-56.631,32.809a4.342,4.342,0,0,0-1.623,2.949,8.169,8.169,0,0,1-3.581,6.08,4.593,4.593,0,0,0-1.807,3.127q-.158,32.474,0,64.949a4.556,4.556,0,0,0,1.844,3.091c2.173,1.546,3.568,3.436,3.4,6.089a3.237,3.237,0,0,0,1.938,3.431c18.758,10.779,37.476,21.629,56.262,32.359a3.8,3.8,0,0,0,3.275-.142,7.268,7.268,0,0,1,8.167-.175,3.661,3.661,0,0,0,3.038.164c18.7-10.691,37.349-21.488,56.025-32.23a2.976,2.976,0,0,0,1.8-3.218,5.728,5.728,0,0,1,3.279-6.061c1.973-.9,2.247-2.2,2.235-4.079C-539.3,2154.385-539.267,2143.877-539.27,2133.37Z" transform="translate(897.221 -1799.675)" fill="#aa58a4"/>
    </g>
  </g>
</svg>
