<svg xmlns="http://www.w3.org/2000/svg" width="334.615" height="299.072" viewBox="0 0 334.615 299.072">
  <g id="Group_217" data-name="Group 217" transform="translate(708.887 -315.628)">
    <path id="Path_508" data-name="Path 508" d="M-475.794,448.755a6.916,6.916,0,0,0-6.348,3.584c-1,1.646-2.683,1.091-4.1,1.192-.138.01-.319-.192-.5-.472a5.714,5.714,0,0,1-.59-1.3A54.935,54.935,0,0,0-498.038,431.8c-.335-.4-.628-.833-.97-1.292l.046-.047a54.631,54.631,0,0,0-4.8-4.688c-.04.033-.079.062-.12.1a53.785,53.785,0,0,0-30.307-12.989,2.115,2.115,0,0,1-.732-.188c-1.462-.118-2.936-.195-4.428-.195q-1.4,0-2.791.07v.09a54.61,54.61,0,0,0-33.115,13.5l-.065-.053c-.228-.186-.375-.293-.489-.41-8.919-9.329-13.992-14.632-22.95-23.923-.884-.915-.646-1.629-.293-2.584a9.768,9.768,0,0,0-3.684-11.443,9.835,9.835,0,0,0-12.021.714,9.884,9.884,0,0,0-2.357,11.812,9.7,9.7,0,0,0,10.83,5.2,2.683,2.683,0,0,1,2.968.961c5.177,5.492,6.584,6.888,11.8,12.35,3.813,3.995,7.621,7.99,11.47,12.034l.013.014c-1.871,2.493-3.668,4.887-5.486,7.306a54.157,54.157,0,0,0-3.216,5.952l.138.1a55.259,55.259,0,0,0-4.346,31.215l-.138.017a54.128,54.128,0,0,0,1.44,6.469l.24-.03a54.634,54.634,0,0,0,13.379,22.858l-.2.226a54.689,54.689,0,0,0,5.167,4.642l.165-.158a.769.769,0,0,1,.322.137,55.387,55.387,0,0,0,18.982,9.492,1.765,1.765,0,0,1,.608.522,1.772,1.772,0,0,1,.342.841c-.018,1.936-.223,3.872-.362,5.847-.461.137-.86.265-1.265.373a9.845,9.845,0,0,0-7.576,9.549,9.828,9.828,0,0,0,7.51,9.591,9.8,9.8,0,0,0,10.987-4.913,9.869,9.869,0,0,0-2.088-12.012c-.377-.362-.928-.836-.922-1.248.038-2.231.209-4.461.345-6.726.007-.11.014-.218.021-.327a54.488,54.488,0,0,0,32.086-5.977c.193.147.278.2.322.237a54.252,54.252,0,0,0,5.64-3.515c-.067-.11-.132-.217-.2-.327a55.458,55.458,0,0,0,18.412-22.47,1.734,1.734,0,0,1,.45-.318,54.1,54.1,0,0,0,2.36-6.8l-.3-.091a56.6,56.6,0,0,0,1.627-20.909c.079-.025.153-.042.23-.065,2-.587,3.54-.572,5.17,1.075,2.112,2.139,5.795,2.011,8.3.289a7.093,7.093,0,0,0,2.743-7.9A6.867,6.867,0,0,0-475.794,448.755Zm-46.432,33.909v0c-.031,2.929-1.457,4.334-4.414,4.338q-12.473.016-24.94,0c-2.974,0-4.463-1.5-4.467-4.455q-.014-10.8,0-21.6c0-2.021.1-2.12,2.124-2.128h1.676c0-1.261-.007-2.359,0-3.458a13.133,13.133,0,0,1,12.279-13.37A13.116,13.116,0,0,1-526.1,453.386a39.3,39.3,0,0,1,.037,5.437c.809,0,1.4-.007,1.993,0,1.689.018,1.845.159,1.848,1.826q.014,6.965,0,13.932C-522.219,477.274-522.2,479.969-522.226,482.664Z" fill="#812069"/>
    <path id="Path_509" data-name="Path 509" d="M-378.888,447.888l-66.385-114.981A34.654,34.654,0,0,0-475.2,315.628H-607.964a34.654,34.654,0,0,0-29.925,17.279l-66.383,114.981a34.642,34.642,0,0,0,0,34.553l66.383,114.981A34.653,34.653,0,0,0-607.964,614.7H-475.2a34.653,34.653,0,0,0,29.925-17.278l66.385-114.981A34.642,34.642,0,0,0-378.888,447.888Zm-15.275,25.734L-460.546,588.6a16.97,16.97,0,0,1-14.652,8.458H-607.964a16.964,16.964,0,0,1-14.649-8.458L-689,473.622a16.96,16.96,0,0,1,0-16.914l66.382-114.982a16.96,16.96,0,0,1,14.649-8.458H-475.2a16.963,16.963,0,0,1,14.652,8.459l66.383,114.981A16.96,16.96,0,0,1-394.163,473.622Z" fill="#812069"/>
    <path id="Path_510" data-name="Path 510" d="M-538.241,447.791c-3.718-.314-7,1.691-7.894,5.164a36.112,36.112,0,0,0-.562,5.777h14.9a39.878,39.878,0,0,0-.031-4.625A7.222,7.222,0,0,0-538.241,447.791Z" fill="#812069"/>
    <path id="Path_511" data-name="Path 511" d="M-541.613,467.419a3.513,3.513,0,0,0-.437,4.782,2.706,2.706,0,0,1,.624,2.525c-.117.634-.133,1.29-.2,1.936-.3,2.693-.3,2.693,2.485,2.693h1.114c1.6-.019,1.74-.2,1.532-1.8-.119-.919-.183-1.847-.3-2.765a3.038,3.038,0,0,1,.673-2.659,3.458,3.458,0,0,0-.551-4.761A3.649,3.649,0,0,0-541.613,467.419Z" fill="#812069"/>
  </g>
</svg>
