<svg xmlns="http://www.w3.org/2000/svg" width="334.616" height="299.072" viewBox="0 0 334.616 299.072">
  <g id="Group_216" data-name="Group 216" transform="translate(920.875 78.341)">
    <path id="Path_504" data-name="Path 504" d="M-663.5,93.185a9.964,9.964,0,0,0-12.349-.425,3.165,3.165,0,0,1-2.293.364c-6-1.569-11.973-3.237-17.952-4.882-.927-.255-1.85-.54-2.809-.828l-.3-.091a56.6,56.6,0,0,0,1.627-20.909c.079-.025.152-.042.23-.065a54.266,54.266,0,0,0-1.372-7.259,5.713,5.713,0,0,1-.59-1.3,54.935,54.935,0,0,0-10.714-19.959c-.335-.4-.628-.833-.97-1.292l.046-.047c5.374-5.5,10.619-10.9,15.926-16.23.326-.329,1.155-.3,1.722-.223a31.135,31.135,0,0,0,4.643.754,11.426,11.426,0,0,0,10.67-8.49,11.461,11.461,0,0,0-4.831-12.6A11.571,11.571,0,0,0-696.3.414a11.417,11.417,0,0,0-3.376,13.2,1.944,1.944,0,0,1-.516,2.5c-4.886,4.93-9.721,9.909-14.581,14.863a11.541,11.541,0,0,1-.98.831c-.041.033-.079.062-.12.1a53.788,53.788,0,0,0-30.307-12.989,2.128,2.128,0,0,1-.733-.188c-1.461-.118-2.935-.195-4.428-.195q-1.4,0-2.79.07v.09a54.61,54.61,0,0,0-33.115,13.5c-.027-.023-.041-.033-.066-.053a54.559,54.559,0,0,0-4.725,4.711l.013.014c-1.871,2.493-3.668,4.887-5.486,7.306l-.029.039c-4.61-2.734-9.13-5.371-13.584-8.118a2.575,2.575,0,0,1-.917-1.879,9.929,9.929,0,0,0-7.733-9.828,9.862,9.862,0,0,0-10.848,4.9,9.948,9.948,0,0,0,1.94,11.9,9.771,9.771,0,0,0,12.286.89,1.864,1.864,0,0,1,2.406,0c4,2.435,8.041,4.813,12.061,7.221.4.241.784.534,1.2.827.048.033.09.065.139.1a55.263,55.263,0,0,0-4.346,31.216l-.138.016a53.9,53.9,0,0,0,1.44,6.47c.08-.01.159-.021.24-.03a54.634,54.634,0,0,0,13.379,22.858c-.077.087-.131.15-.2.226-.238.275-.435.506-.63.707-2.042,2.092-4.066,4.2-6.156,6.242a2.054,2.054,0,0,1-1.446.375c-4.456-.406-8.024,2.476-8.149,6.637a7.013,7.013,0,0,0,6.541,7.455,7.181,7.181,0,0,0,1.037-.009c4.147-.21,7.038-3.9,6.513-8.262a2.088,2.088,0,0,1,.24-1.493c2.347-2.357,4.758-4.644,7.217-7.01.055-.054.109-.105.165-.158a.768.768,0,0,1,.322.137,55.378,55.378,0,0,0,18.982,9.492,1.774,1.774,0,0,1,.608.522,54.26,54.26,0,0,0,6.971,1.3c.007-.11.014-.218.02-.327a54.491,54.491,0,0,0,32.087-5.977c.192.147.278.2.322.237a54.264,54.264,0,0,0,5.64-3.515c-.067-.11-.132-.217-.2-.327a55.448,55.448,0,0,0,18.411-22.47,1.769,1.769,0,0,1,.45-.318,1.768,1.768,0,0,1,1.113-.182c2.483.587,4.937,1.3,7.4,1.982q6.483,1.776,12.938,3.552c.026.5.044.8.057,1.1a9.9,9.9,0,0,0,7.931,9.651,9.922,9.922,0,0,0,10.8-5.356A9.866,9.866,0,0,0-663.5,93.185Zm-70.714-4.49v0c-.031,2.929-1.457,4.333-4.414,4.338q-12.473.016-24.94,0c-2.974,0-4.463-1.5-4.467-4.455q-.014-10.8,0-21.6c0-2.021.1-2.12,2.124-2.128h1.676c0-1.261-.007-2.359,0-3.458a13.132,13.132,0,0,1,12.279-13.37,13.116,13.116,0,0,1,13.869,11.391,39.3,39.3,0,0,1,.037,5.437c.809,0,1.4-.008,1.993,0,1.689.018,1.845.159,1.848,1.826q.014,6.964,0,13.932C-734.206,83.305-734.186,86-734.213,88.695Z" fill="#812069"/>
    <path id="Path_505" data-name="Path 505" d="M-590.875,53.919-657.26-61.063a34.655,34.655,0,0,0-29.925-17.278H-819.951a34.655,34.655,0,0,0-29.925,17.278L-916.259,53.919a34.635,34.635,0,0,0,0,34.552l66.383,114.982a34.653,34.653,0,0,0,29.925,17.278h132.766a34.653,34.653,0,0,0,29.925-17.278l66.385-114.982A34.64,34.64,0,0,0-590.875,53.919ZM-606.15,79.653l-66.383,114.981a16.97,16.97,0,0,1-14.652,8.458H-819.951a16.964,16.964,0,0,1-14.649-8.458L-900.985,79.653a16.96,16.96,0,0,1,0-16.914L-834.6-52.243A16.959,16.959,0,0,1-819.954-60.7h132.769a16.964,16.964,0,0,1,14.652,8.459L-606.15,62.739A16.96,16.96,0,0,1-606.15,79.653Z" fill="#812069"/>
    <path id="Path_506" data-name="Path 506" d="M-750.228,53.822c-3.718-.314-7,1.691-7.894,5.164a36.111,36.111,0,0,0-.562,5.777h14.9a39.878,39.878,0,0,0-.031-4.625A7.222,7.222,0,0,0-750.228,53.822Z" fill="#812069"/>
    <path id="Path_507" data-name="Path 507" d="M-753.6,73.45a3.512,3.512,0,0,0-.437,4.782,2.708,2.708,0,0,1,.624,2.525c-.117.634-.133,1.29-.2,1.936-.3,2.693-.3,2.693,2.485,2.693h1.114c1.6-.019,1.74-.2,1.532-1.8-.119-.919-.183-1.847-.3-2.765a3.038,3.038,0,0,1,.673-2.659,3.459,3.459,0,0,0-.551-4.761A3.649,3.649,0,0,0-753.6,73.45Z" fill="#812069"/>
  </g>
</svg>
