<svg xmlns="http://www.w3.org/2000/svg" width="334.616" height="299.072" viewBox="0 0 334.616 299.072">
  <g id="Group_218" data-name="Group 218" transform="translate(541.58 78.341)">
    <path id="Path_512" data-name="Path 512" d="M-312.549,148.478a11.434,11.434,0,0,0-13-9.294,1.9,1.9,0,0,1-2.315-1.089c-3.876-6.4-4.577-7.36-8.487-13.743-1.416-2.311-2.824-4.632-4.278-7.02-.068-.11-.132-.217-.2-.327a55.448,55.448,0,0,0,18.411-22.47,1.768,1.768,0,0,1,.45-.318,53.946,53.946,0,0,0,2.361-6.8l-.3-.091a56.6,56.6,0,0,0,1.627-20.909c.079-.025.152-.042.23-.065a54.271,54.271,0,0,0-1.372-7.259,5.671,5.671,0,0,1-.59-1.3A54.95,54.95,0,0,0-330.73,37.835c-.335-.4-.628-.833-.97-1.292l.045-.047a54.616,54.616,0,0,0-4.8-4.688c-.041.033-.079.062-.12.1a53.788,53.788,0,0,0-30.307-12.989,2.128,2.128,0,0,1-.733-.188c-.6-.3-.627-.894-.625-1.651.022-5.417.044-10.837-.015-16.255a1.87,1.87,0,0,1,1.261-1.909,9.737,9.737,0,0,0,5.027-11.093,9.8,9.8,0,0,0-9.627-7.459,9.837,9.837,0,0,0-9.516,7.375,9.775,9.775,0,0,0,4.946,11.13,2.29,2.29,0,0,1,1.382,2.419c-.044,4.626-.04,9.254-.051,13.882v3.526a54.61,54.61,0,0,0-33.115,13.5c-.027-.023-.041-.033-.066-.053a54.563,54.563,0,0,0-4.725,4.711l.013.014c-1.871,2.493-3.668,4.887-5.486,7.306a54.336,54.336,0,0,0-3.217,5.952c.048.033.09.065.139.1a55.263,55.263,0,0,0-4.346,31.216l-.138.016c-6.319.783-12.424,1.517-18.52,2.318a2.436,2.436,0,0,1-2.692-1.2,11.425,11.425,0,0,0-13.121-4.21,11.546,11.546,0,0,0-7.677,11.647,11.51,11.51,0,0,0,9,10.449c5.089,1.109,10.718-1.039,12.447-5.953,1.384-3.938,3.761-4.5,7.126-4.8,4.935-.437,9.844-1.16,14.877-1.782.08-.01.159-.021.24-.03a54.634,54.634,0,0,0,13.379,22.858c-.077.087-.131.15-.2.226a54.553,54.553,0,0,0,5.167,4.642c.055-.054.109-.105.164-.158a.767.767,0,0,1,.323.137,55.382,55.382,0,0,0,18.981,9.492,1.755,1.755,0,0,1,.608.522,54.309,54.309,0,0,0,6.972,1.3c.007-.11.014-.218.02-.327a54.487,54.487,0,0,0,32.086-5.977c.193.147.279.2.323.237a.146.146,0,0,1,.034.039c5.454,8.862,7.684,12.308,13.075,21.2a2.174,2.174,0,0,1-.185,1.861,11.861,11.861,0,0,0-1.8,8.888,11.524,11.524,0,0,0,13.068,9.011,11.5,11.5,0,0,0,9.559-13.159C-312.525,148.617-312.536,148.547-312.549,148.478Zm-42.369-59.783v0c-.031,2.929-1.457,4.333-4.414,4.338q-12.473.016-24.94,0c-2.974,0-4.463-1.5-4.467-4.455q-.013-10.8,0-21.6c0-2.021.1-2.12,2.124-2.128h1.676c0-1.261-.007-2.359,0-3.458a13.132,13.132,0,0,1,12.279-13.37,13.117,13.117,0,0,1,13.869,11.391,39.308,39.308,0,0,1,.037,5.437c.809,0,1.4-.008,1.993,0,1.689.018,1.845.159,1.848,1.826q.012,6.964,0,13.932C-354.911,83.305-354.891,86-354.918,88.695Z" fill="#812069"/>
    <path id="Path_513" data-name="Path 513" d="M-211.58,53.919-277.965-61.063A34.655,34.655,0,0,0-307.89-78.341H-440.656a34.655,34.655,0,0,0-29.925,17.278L-536.964,53.919a34.635,34.635,0,0,0,0,34.552l66.383,114.982a34.653,34.653,0,0,0,29.925,17.278H-307.89a34.653,34.653,0,0,0,29.925-17.278L-211.58,88.471A34.64,34.64,0,0,0-211.58,53.919Zm-15.275,25.734-66.383,114.981a16.97,16.97,0,0,1-14.652,8.458H-440.656a16.963,16.963,0,0,1-14.649-8.458L-521.69,79.653a16.96,16.96,0,0,1,0-16.914l66.382-114.982A16.959,16.959,0,0,1-440.659-60.7H-307.89a16.965,16.965,0,0,1,14.652,8.459l66.383,114.981A16.965,16.965,0,0,1-226.855,79.653Z" fill="#812069"/>
    <path id="Path_514" data-name="Path 514" d="M-370.933,53.822c-3.718-.314-7,1.691-7.894,5.164a36.1,36.1,0,0,0-.562,5.777h14.9a39.872,39.872,0,0,0-.031-4.625A7.222,7.222,0,0,0-370.933,53.822Z" fill="#812069"/>
    <path id="Path_515" data-name="Path 515" d="M-374.3,73.45a3.512,3.512,0,0,0-.437,4.782,2.708,2.708,0,0,1,.624,2.525c-.117.634-.133,1.29-.2,1.936-.3,2.693-.3,2.693,2.485,2.693h1.114c1.6-.019,1.74-.2,1.532-1.8-.119-.919-.183-1.847-.3-2.765a3.038,3.038,0,0,1,.672-2.659,3.459,3.459,0,0,0-.55-4.761A3.649,3.649,0,0,0-374.3,73.45Z" fill="#812069"/>
  </g>
</svg>
