<svg xmlns="http://www.w3.org/2000/svg" width="196.183" height="59.737" viewBox="0 0 196.183 59.737">
  <path id="Path_364" data-name="Path 364" d="M200.291,223.053l-.219.058c-12.186,3.24-24.264,6.881-36.165,10.29,0,2.873.467,5.556-.092,8-1.413,6.191-5.789,10.133-11.864,10.581a208.491,208.491,0,0,1-25.19-.107,79.145,79.145,0,0,1-16.6-2.884c2.13-.5,4.258-1.419,6.39-1.427,9.223-.034,18.447.263,27.672.3a34,34,0,0,0,8.576-.741,8.27,8.27,0,0,0,6.047-8.314c-.016-4.245-1.731-7.209-6.153-7.983-8.149-1.429-16.452-1.957-24.646-3.16-8.71-1.278-17.346-3.048-26.054-4.32-5.272-.77-10.655-1.567-15.923-1.257-3.01.176-6.251,2.078-8.768,4.009-17.888,13.73-38.376,21.953-59.534,28.807a9.468,9.468,0,0,0-2.536,1.265c4.447,10.947,13.581,16.721,23.661,21.444,1.191.559,2.451.968,3.633,1.541,6.8,3.291,12.605,4.143,19.534-1.513,9.466-7.727,21.717-9.394,33.663-9.316,14.741.1,29.482,1.164,44.209,2.034,4.49.265,8.529-.192,12.435-2.676q12.21-7.767,24.944-14.668.934-.507,1.872-1.008,7.811-4.175,15.8-8c3.915-1.884,7.842-3.744,11.836-5.46a11.047,11.047,0,0,0,2.539-1.365,4.791,4.791,0,0,0,.488-.446,5.869,5.869,0,0,0,1.379-2.859c1.336-6.327-4.535-12.463-10.931-10.825" transform="translate(-15.23 -222.022)" fill="#aa58a4"/>
</svg>
