<svg xmlns="http://www.w3.org/2000/svg" width="176" height="59.356" viewBox="0 0 176 59.356">
  <g id="Group_168" data-name="Group 168" transform="translate(-976.003 686.375)">
    <path id="Path_16" data-name="Path 16" d="M1239.32-674.938c.531.465,1.084.906,1.617,1.369a1.29,1.29,0,0,1,.542.927c.005.144.106.115.181.076a4.593,4.593,0,0,0,.5-.284,1.506,1.506,0,0,0,.086-2.6c-.425-.289-.854-.574-1.251-.9a3.691,3.691,0,0,1-1.256-1.724c-.193-.606-.039-.849.585-.877s1.266-.073,1.9-.085c1.469-.025,2.938-.011,4.407.078.652.039.8.077.675.855a.687.687,0,0,1-.025.089,3.046,3.046,0,0,1-1.3,1.673c-.382.255-.784.482-1.171.731a.881.881,0,0,0-.039,1.52,1.4,1.4,0,0,0,1.512.1,5.642,5.642,0,0,0,2.895-2.81,6.854,6.854,0,0,0,.658-3.78,6.3,6.3,0,0,0-1.769-3.913,6.72,6.72,0,0,0-.6-.542,6.3,6.3,0,0,0-2.934-1.259l-.028,0a6.515,6.515,0,0,0-3.129.28,6.076,6.076,0,0,0-2.893,2.082,6.25,6.25,0,0,0-1.268,3.228,7.345,7.345,0,0,0,.2,2.783A6.131,6.131,0,0,0,1239.32-674.938Zm6.465.2a.354.354,0,0,1-.359-.346.333.333,0,0,1,.33-.345.329.329,0,0,1,.354.317A.339.339,0,0,1,1245.785-674.738Zm-6.25-5.712a3.9,3.9,0,0,1,2.731-3.433,4.02,4.02,0,0,1,4.806,1.938,4.153,4.153,0,0,1,.409,1.363c.061.459-.076.6-.655.593-.148-.018-.4-.036-.653-.082-.418-.078-.587-.4-.72-.762a2.124,2.124,0,0,0-1.017-1.262,1.957,1.957,0,0,0-2.692.89c-.1.2-.188.421-.28.632a.821.821,0,0,1-.682.515,3.4,3.4,0,0,1-.876.056C1239.618-680.038,1239.513-680.164,1239.535-680.45Z" transform="translate(-187.719 0)" fill="#fff"/>
    <path id="Path_17" data-name="Path 17" d="M1247.872-623.293a4.35,4.35,0,0,0,2.077-2.612,8.42,8.42,0,0,0,.323-3.169,6.076,6.076,0,0,0-.6-2.4,3.2,3.2,0,0,0-4.439-1.236,3.014,3.014,0,0,0-.8.764c-.109-.631-.209-.851-1.056-.956-.631-.078-1.265-.02-1.9-.048-.2-.009-.257.034-.256.246.009,2.436.006,4.872.006,7.309q0,3.167,0,6.334h3.2a.552.552,0,0,1-.02-.251q0-1.6,0-3.2c0-.459,0-.456.455-.37A4.434,4.434,0,0,0,1247.872-623.293Zm-3.292-2.314a.237.237,0,0,1-.176-.255c.01-.679,0-1.359,0-2.039,0-.664,0-1.329,0-1.993a.3.3,0,0,1,.164-.3,2.055,2.055,0,0,1,1.327-.289c.505.06.817.411.953,1.044a8.83,8.83,0,0,1,.087,1.981,3.836,3.836,0,0,1-.121.866c-.227.919-.758,1.139-1.6,1.1A1.871,1.871,0,0,1,1244.58-625.607Z" transform="translate(-190.64 -38.255)" fill="#fff"/>
    <path id="Path_18" data-name="Path 18" d="M1201.968-641.279c-.008,2.274,0,4.549-.009,6.823,0,.177.038.236.227.234.9-.011,1.795-.013,2.692,0,.221,0,.261-.064.261-.268-.007-2.274,0-4.548-.008-6.823,0-.177.036-.237.224-.23.394.016.789,0,1.183.008.136,0,.185-.024.183-.175-.009-.773-.007-1.547,0-2.32,0-.131-.035-.169-.167-.166-.418.008-.835,0-1.253.006-.13,0-.175-.033-.168-.166.011-.232,0-.464,0-.7a1,1,0,0,1,.71-.954,2.214,2.214,0,0,1,1-.078c.154.022.179-.028.178-.167-.006-.665,0-1.33,0-2,0-.5,0-.508-.5-.535a4.979,4.979,0,0,0-2.141.258,3.929,3.929,0,0,0-2.419,3.7c0,.2.062.457-.037.584s-.375.031-.572.047l-.07.005v2.646a3.366,3.366,0,0,0,.417,0C1201.91-641.565,1201.968-641.495,1201.968-641.279Z" transform="translate(-161.93 -27.012)" fill="#fff"/>
    <path id="Path_19" data-name="Path 19" d="M1224.562-622.7c0,.176.036.236.226.234q1.357-.016,2.714,0c.189,0,.245-.043.244-.24-.008-1.964,0-3.928,0-5.893,0-.912,0-1.825,0-2.737,0-.777-.257-1.052-1.03-1.08-.641-.023-1.283-.007-1.924-.024-.185,0-.227.049-.226.229.007,1.585,0,3.17,0,4.756S1224.568-624.288,1224.562-622.7Z" transform="translate(-178.662 -38.766)" fill="#fff"/>
    <path id="Path_20" data-name="Path 20" d="M1226.659-646.07a1.455,1.455,0,0,0,1.451-1.437,1.439,1.439,0,0,0-1.425-1.433,1.438,1.438,0,0,0-1.448,1.406A1.45,1.45,0,0,0,1226.659-646.07Z" transform="translate(-179.148 -26.908)" fill="#fff"/>
    <path id="Path_21" data-name="Path 21" d="M1319.517-646.4a2.486,2.486,0,0,0-2.6-2.8,18.637,18.637,0,0,0-1.967.119v5.613a15.4,15.4,0,0,0,1.976.119C1318.449-643.351,1319.517-644.462,1319.517-646.4Zm-3.315,1.916v-3.578c.187-.017.491-.026.687-.026.729,0,1.28.467,1.28,1.806,0,1.314-.424,1.823-1.289,1.823C1316.685-644.462,1316.372-644.471,1316.2-644.488Z" transform="translate(-243.631 -26.72)" fill="#fff"/>
    <path id="Path_22" data-name="Path 22" d="M1338.122-644.377h-2.23v-1.272h1.458v-1.085h-1.458v-1.153h2a8.158,8.158,0,0,0,.085-1.1h-3.341v5.715h3.391A8.443,8.443,0,0,0,1338.122-644.377Z" transform="translate(-257.784 -26.872)" fill="#fff"/>
    <path id="Path_23" data-name="Path 23" d="M1351.315-643.405c.628-1.883,1.187-3.722,1.679-5.656a6.922,6.922,0,0,0-1.187-.11l-1.017,3.849a2.072,2.072,0,0,0-.076.475h-.085a2.645,2.645,0,0,0-.085-.475l-1-3.849a8.746,8.746,0,0,0-1.247.11c.475,1.916,1.018,3.79,1.628,5.656Z" transform="translate(-267.602 -26.742)" fill="#fff"/>
    <path id="Path_24" data-name="Path 24" d="M1370.989-644.377h-2.23v-1.272h1.458v-1.085h-1.458v-1.153h2a8.118,8.118,0,0,0,.085-1.1H1367.5v5.715h3.392A8.568,8.568,0,0,0,1370.989-644.377Z" transform="translate(-281.408 -26.872)" fill="#fff"/>
    <path id="Path_25" data-name="Path 25" d="M1386.491-644.395h-2.052v-4.6h-1.255v5.715h3.222A9.55,9.55,0,0,0,1386.491-644.395Z" transform="translate(-292.679 -26.872)" fill="#fff"/>
    <path id="Path_26" data-name="Path 26" d="M1398.246-643.408c1.433,0,2.45-.865,2.45-2.942,0-2.128-.984-2.942-2.459-2.942-1.433,0-2.451.865-2.451,2.976C1395.787-644.222,1396.771-643.408,1398.246-643.408Zm-.009-4.816c.738,0,1.111.416,1.111,1.874,0,1.433-.322,1.874-1.1,1.874s-1.111-.466-1.111-1.874C1397.136-647.808,1397.475-648.224,1398.238-648.224Z" transform="translate(-301.738 -26.655)" fill="#fff"/>
    <path id="Path_27" data-name="Path 27" d="M1417.922-645.217h.585a1.876,1.876,0,0,0,1.984-2.069,1.762,1.762,0,0,0-1.933-1.916,15.9,15.9,0,0,0-1.874.119v5.656h1.238Zm0-2.968c.2-.017.373-.026.56-.026.475,0,.771.356.771.916,0,.687-.288,1.051-.856,1.051h-.475Z" transform="translate(-316.759 -26.72)" fill="#fff"/>
    <path id="Path_28" data-name="Path 28" d="M1434.448-646.59c.008-.119.017-.526.017-.645h.085a4.14,4.14,0,0,0,.1.645l1,3.315h1.187l.95-3.315a4.252,4.252,0,0,0,.119-.645h.085c0,.119,0,.526.008.645l.212,3.349a7.374,7.374,0,0,0,1.2-.085c-.119-1.882-.288-3.756-.5-5.664h-1.441l-1.035,3.578a3.6,3.6,0,0,0-.1.7h-.085a2.915,2.915,0,0,0-.11-.687l-1.094-3.586h-1.416c-.22,1.916-.39,3.764-.517,5.664a5.857,5.857,0,0,0,1.052.085Z" transform="translate(-328.57 -26.872)" fill="#fff"/>
    <path id="Path_29" data-name="Path 29" d="M1462.986-644.377h-2.23v-1.272h1.458v-1.085h-1.458v-1.153h2a8.119,8.119,0,0,0,.085-1.1H1459.5v5.715h3.392A8.53,8.53,0,0,0,1462.986-644.377Z" transform="translate(-347.535 -26.872)" fill="#fff"/>
    <path id="Path_30" data-name="Path 30" d="M1478.513-646.02a6.537,6.537,0,0,0,.042.712l-.085.008a3.469,3.469,0,0,0-.271-.661l-1.713-3.12a11.751,11.751,0,0,0-1.306.085v5.656h1.128V-646.6c0-.187-.017-.433-.043-.687l.085-.009a4.135,4.135,0,0,0,.263.661l1.832,3.332a9.337,9.337,0,0,0,1.2-.085v-5.673h-1.128Z" transform="translate(-358.806 -26.807)" fill="#fff"/>
    <path id="Path_31" data-name="Path 31" d="M1494.967-643.275h1.255v-4.613h1.221a7.669,7.669,0,0,0,.093-1.1H1493.7v1.1h1.272Z" transform="translate(-372.114 -26.872)" fill="#fff"/>
    <path id="Path_32" data-name="Path 32" d="M1316.345-612.015a4.744,4.744,0,0,0,1.9-.39v-2.807h-2.035a6.313,6.313,0,0,0,.094,1.077h.712v.95a2.879,2.879,0,0,1-.661.068c-.729,0-1.145-.543-1.145-1.806,0-1.526.509-1.874,1.306-1.874a3.51,3.51,0,0,1,1.45.305,7.2,7.2,0,0,0,.178-1.128,5.035,5.035,0,0,0-1.713-.28c-1.467,0-2.569.873-2.569,2.934C1313.861-613.074,1314.726-612.015,1316.345-612.015Z" transform="translate(-242.85 -49.22)" fill="#fff"/>
    <path id="Path_33" data-name="Path 33" d="M1334.925-612.015c1.433,0,2.45-.865,2.45-2.942,0-2.128-.983-2.942-2.459-2.942-1.433,0-2.45.865-2.45,2.976C1332.466-612.829,1333.45-612.015,1334.925-612.015Zm-.008-4.816c.738,0,1.111.415,1.111,1.874,0,1.433-.322,1.874-1.1,1.874s-1.111-.466-1.111-1.874C1333.814-616.415,1334.153-616.831,1334.917-616.831Z" transform="translate(-256.223 -49.22)" fill="#fff"/>
    <path id="Path_34" data-name="Path 34" d="M1352.942-617.6c-.653,1.942-1.221,3.816-1.721,5.656a5.757,5.757,0,0,0,1.145.1l.39-1.407h1.636l.39,1.407a5.965,5.965,0,0,0,1.238-.1c-.5-1.823-1.077-3.748-1.687-5.656Zm.1,3.307.424-1.543a2.517,2.517,0,0,0,.059-.483h.085a2.411,2.411,0,0,0,.068.483l.424,1.543Z" transform="translate(-269.704 -49.437)" fill="#fff"/>
    <path id="Path_35" data-name="Path 35" d="M1370.67-617.6v5.715h3.222a9.54,9.54,0,0,0,.085-1.119h-2.052v-4.6Z" transform="translate(-283.684 -49.437)" fill="#fff"/>
    <path id="Path_36" data-name="Path 36" d="M1385.584-616.263c0-.373.2-.585.653-.585a5.763,5.763,0,0,1,1.323.161,7,7,0,0,0,.144-1.069,6.077,6.077,0,0,0-1.263-.144c-1.255,0-2.145.593-2.145,1.713,0,1.8,2.366,1.585,2.366,2.518,0,.382-.2.6-.67.6a4.154,4.154,0,0,1-1.475-.288,6.725,6.725,0,0,0-.246,1.077,4.315,4.315,0,0,0,1.56.263c1.229,0,2.111-.576,2.111-1.772C1387.941-615.516,1385.584-615.415,1385.584-616.263Z" transform="translate(-293.46 -49.22)" fill="#fff"/>
    <path id="Path_37" data-name="Path 37" d="M1294.666-634.985v-13.88h-.974v14.577h.974Z" transform="translate(-228.353 -26.962)" fill="#fff"/>
    <path id="Path_38" data-name="Path 38" d="M1208.246-552.288h4.629v-4.1h-4.629V-559.4h6.3a30.488,30.488,0,0,0,.335-4.155h-11.6v18.794h11.712a30.79,30.79,0,0,0,.334-4.127h-7.083Z" transform="translate(-163.367 -88.284)" fill="#fff"/>
    <path id="Path_39" data-name="Path 39" d="M1253.964-541.5c0,5.16,2.231,7.138,5.187,7.138a3.842,3.842,0,0,0,3.178-1.505h.223v6.971h4.6v-19.38a18.706,18.706,0,0,0-6.3-1.2C1256.558-549.471,1253.964-546.822,1253.964-541.5Zm8.588-3.959v6.887a4.228,4.228,0,0,1-1.868.362c-1.255,0-1.869-.613-1.869-3.6,0-2.9.642-3.848,2.314-3.848A6.473,6.473,0,0,1,1262.552-545.455Z" transform="translate(-199.796 -98.406)" fill="#fff"/>
    <path id="Path_40" data-name="Path 40" d="M1321.475-538.5a4.633,4.633,0,0,1-1.98.5c-1.115,0-1.422-.335-1.422-1.284v-9.592a40.048,40.048,0,0,0-4.6.28v10.121c0,3.179,1.589,4.545,3.987,4.545a5.329,5.329,0,0,0,3.792-1.533h.224v1.255h4.6v-14.667a40.447,40.447,0,0,0-4.6.28Z" transform="translate(-242.57 -98.833)" fill="#fff"/>
    <path id="Path_41" data-name="Path 41" d="M1372.936-570.493a2.375,2.375,0,0,0-2.538,2.454,2.326,2.326,0,0,0,2.509,2.4,2.321,2.321,0,0,0,2.538-2.4A2.353,2.353,0,0,0,1372.936-570.493Z" transform="translate(-283.489 -83.296)" fill="#fff"/>
    <rect id="Rectangle_11" data-name="Rectangle 11" width="4.601" height="14.555" transform="translate(1087.134 -647.597)" fill="#fff"/>
    <path id="Path_42" data-name="Path 42" d="M1403.39-546.823c-.892,0-1.31-.14-1.31-1.171v-5.661h3.458a35.6,35.6,0,0,0,.194-3.876h-3.652v-3.542a34.964,34.964,0,0,0-4.6.725v2.817h-1.59v3.876h1.59v5.576c0,3.653,1.7,5.381,5.354,5.381a11.3,11.3,0,0,0,3.6-.725,32.654,32.654,0,0,0-.641-4.127A6.687,6.687,0,0,1,1403.39-546.823Z" transform="translate(-301.811 -90.067)" fill="#fff"/>
    <path id="Path_43" data-name="Path 43" d="M1442.474-541.386a12.94,12.94,0,0,0-.362,1.756h-.223a13.138,13.138,0,0,0-.335-1.756l-2.036-7.39a40.785,40.785,0,0,0-4.461.278,71.3,71.3,0,0,0,4.685,14.11l-.362.976c-.364.92-.753,1.144-1.451,1.144a8.18,8.18,0,0,1-2.649-.5,24.078,24.078,0,0,0-.809,3.987,7.623,7.623,0,0,0,3.235.669c2.843,0,5.214-1.785,6.943-7.027l4.434-13.328a33.087,33.087,0,0,0-4.462-.307Z" transform="translate(-329.544 -98.906)" fill="#fff"/>
    <path id="Path_44" data-name="Path 44" d="M1504.525-553.62a5.408,5.408,0,0,0,3.123-4.907c0-4.1-3.011-5.716-6.608-5.716a59.734,59.734,0,0,0-6.665.445v18.543h4.852v-6.916h1.06a21.165,21.165,0,0,1,2.342,4.155l1.311,2.956a29.852,29.852,0,0,0,5.158-.474l-2.12-4.462A14.274,14.274,0,0,0,1504.525-553.62Zm-4.071-2.175h-1.227v-4.545c.531-.027.865-.027,1.562-.027,1.227,0,1.868.585,1.868,2.147C1502.656-556.324,1501.709-555.8,1500.454-555.8Z" transform="translate(-372.602 -87.788)" fill="#fff"/>
    <path id="Path_45" data-name="Path 45" d="M1559.321-541.86l4.127-6.609a37.315,37.315,0,0,0-4.879-.307l-1.813,3.569a4.987,4.987,0,0,0-.362,1.031h-.224a4.955,4.955,0,0,0-.334-1.031l-1.813-3.569a46.276,46.276,0,0,0-5.241.307l4.015,6.552-4.266,7.558a42.034,42.034,0,0,0,4.879.334l1.84-3.6a6.785,6.785,0,0,0,.531-1.2H1556a6.645,6.645,0,0,0,.475,1.2l1.783,3.6a50.821,50.821,0,0,0,5.271-.307Z" transform="translate(-411.528 -98.906)" fill="#fff"/>
    <path id="Path_46" data-name="Path 46" d="M1057.756-591.7v1.722a.644.644,0,0,0,.644.644h3.092v3.092a.644.644,0,0,0,.644.644h1.722a.644.644,0,0,0,.644-.644v-3.092h3.093a.644.644,0,0,0,.644-.644V-591.7a.644.644,0,0,0-.644-.644H1064.5v-3.093a.644.644,0,0,0-.644-.644h-1.722a.644.644,0,0,0-.644.644v3.093H1058.4A.644.644,0,0,0,1057.756-591.7Z" transform="translate(-58.763 -64.905)" fill="#fff"/>
    <path id="Path_47" data-name="Path 47" d="M1055.1-548.953l-.026.007c-1.436.382-2.859.811-4.262,1.213a4.457,4.457,0,0,1-.011.943,1.506,1.506,0,0,1-1.4,1.247,24.5,24.5,0,0,1-2.969-.013,9.327,9.327,0,0,1-1.956-.34,3.516,3.516,0,0,1,.753-.168c1.087,0,2.174.031,3.261.035a4.008,4.008,0,0,0,1.01-.087.975.975,0,0,0,.713-.98.835.835,0,0,0-.725-.941c-.96-.168-1.939-.231-2.9-.372-1.026-.151-2.044-.359-3.07-.509a9.348,9.348,0,0,0-1.876-.148,2.067,2.067,0,0,0-1.033.473,22.727,22.727,0,0,1-7.016,3.395,1.126,1.126,0,0,0-.3.149,4.958,4.958,0,0,0,2.789,2.527c.14.066.288.114.428.181a1.888,1.888,0,0,0,2.3-.178,6.036,6.036,0,0,1,3.967-1.1c1.737.011,3.474.137,5.21.24a2.322,2.322,0,0,0,1.465-.316q1.439-.915,2.939-1.728l.221-.119q.92-.492,1.862-.943c.462-.222.924-.441,1.395-.643a1.288,1.288,0,0,0,.3-.161.614.614,0,0,0,.057-.052.692.692,0,0,0,.162-.337A1.083,1.083,0,0,0,1055.1-548.953Z" transform="translate(-41.176 -98.691)" fill="#fff"/>
    <path id="Path_48" data-name="Path 48" d="M1098.265-612.551a1.888,1.888,0,0,0-1.305-1.9,6.037,6.037,0,0,1-2.935-2.887c-.859-1.51-1.618-3.078-2.4-4.632a2.324,2.324,0,0,0-1.006-1.112q-1.512-.788-2.967-1.681l-.213-.132q-.886-.551-1.748-1.141c-.423-.289-.844-.58-1.254-.886a1.3,1.3,0,0,0-.289-.179.579.579,0,0,0-.074-.024.693.693,0,0,0-.373.028,1.083,1.083,0,0,0-.461,1.753l.019.019c1.049,1.053,2.132,2.071,3.181,3.085a4.459,4.459,0,0,1,.822-.462,1.506,1.506,0,0,1,1.779.587,24.513,24.513,0,0,1,1.473,2.577,9.327,9.327,0,0,1,.684,1.864,3.52,3.52,0,0,1-.522-.568c-.547-.94-1.06-1.9-1.6-2.842a4,4,0,0,0-.581-.831.975.975,0,0,0-1.2-.127.836.836,0,0,0-.453,1.1c.335.916.77,1.794,1.13,2.7.383.964.711,1.95,1.094,2.914a9.31,9.31,0,0,0,.81,1.7,2.064,2.064,0,0,0,.926.659,22.735,22.735,0,0,1,6.448,4.378,1.111,1.111,0,0,0,.278.184,4.957,4.957,0,0,0,.794-3.679C1098.309-612.243,1098.276-612.4,1098.265-612.551Z" transform="translate(-76.879 -42.577)" fill="#fff"/>
    <path id="Path_49" data-name="Path 49" d="M1029.33-614.815l.007-.026c.387-1.434.727-2.882,1.081-4.3a4.463,4.463,0,0,1-.811-.481,1.506,1.506,0,0,1-.381-1.834,24.473,24.473,0,0,1,1.5-2.565,9.319,9.319,0,0,1,1.273-1.524,3.516,3.516,0,0,1-.231.736c-.54.943-1.114,1.867-1.661,2.806a4.023,4.023,0,0,0-.43.919.975.975,0,0,0,.492,1.107.836.836,0,0,0,1.178-.158c.626-.747,1.169-1.564,1.774-2.329.644-.814,1.333-1.591,1.976-2.4a9.354,9.354,0,0,0,1.066-1.551,2.067,2.067,0,0,0,.108-1.131,22.727,22.727,0,0,1,.568-7.773,1.119,1.119,0,0,0,.02-.333,4.957,4.957,0,0,0-3.583,1.151c-.127.089-.243.193-.371.28a1.888,1.888,0,0,0-1,2.083,6.037,6.037,0,0,1-1.033,3.984c-.879,1.5-1.856,2.941-2.813,4.392a2.324,2.324,0,0,0-.459,1.427q.073,1.7.027,3.41c0,.083,0,.167-.008.251-.022.7-.062,1.39-.114,2.084-.038.511-.08,1.021-.14,1.53a1.283,1.283,0,0,0-.01.339.508.508,0,0,0,.017.076.7.7,0,0,0,.21.309A1.083,1.083,0,0,0,1029.33-614.815Z" transform="translate(-36.905 -36.432)" fill="#fff"/>
    <path id="Path_50" data-name="Path 50" d="M1018.992-664.7a2.974,2.974,0,0,0-2.575-1.487h-24.96a2.973,2.973,0,0,0-2.575,1.487L976.4-643.081a2.974,2.974,0,0,0,0,2.973l12.48,21.616a2.973,2.973,0,0,0,2.575,1.487h24.96a2.974,2.974,0,0,0,2.575-1.487l12.48-21.616a2.974,2.974,0,0,0,0-2.973Zm10.531,23.464-12.48,21.616a.726.726,0,0,1-.627.362h-24.96a.726.726,0,0,1-.627-.362l-12.48-21.616a.726.726,0,0,1,0-.724l12.48-21.616a.726.726,0,0,1,.627-.362h24.96a.725.725,0,0,1,.627.362l12.48,21.615A.727.727,0,0,1,1029.523-641.233Z" transform="translate(0 -14.513)" fill="#fff"/>
  </g>
</svg>
