<svg xmlns="http://www.w3.org/2000/svg" width="1200" height="630" viewBox="0 0 1200 630">
  <g id="Group_123" data-name="Group 123" transform="translate(-1062 -8906)">
    <rect id="Rectangle_291" data-name="Rectangle 291" width="1200" height="630" transform="translate(1062 8906)" fill="#aa58a4"/>
    <g id="Group_122" data-name="Group 122" transform="translate(275.978 9769.131)">
      <path id="Path_16" data-name="Path 16" d="M1247.224-633.027c2.478,2.171,5.054,4.228,7.544,6.385a6.017,6.017,0,0,1,2.527,4.323c.026.672.494.537.845.357a21.388,21.388,0,0,0,2.337-1.323c4.814-3.254,4.857-9.092.4-12.114-1.983-1.347-3.982-2.68-5.837-4.211a17.214,17.214,0,0,1-5.86-8.041c-.9-2.828-.183-3.959,2.727-4.088,2.954-.131,5.906-.343,8.861-.4,6.854-.118,13.706-.052,20.554.364,3.043.183,3.735.36,3.146,3.986a3.174,3.174,0,0,1-.116.413,14.208,14.208,0,0,1-6.085,7.8c-1.783,1.191-3.656,2.247-5.461,3.408-3.107,2-2.5,5.231-.181,7.089,2.22,1.778,4.713,1.467,7.052.469a26.316,26.316,0,0,0,13.5-13.108,31.966,31.966,0,0,0,3.069-17.629A29.382,29.382,0,0,0,1288-677.6a31.324,31.324,0,0,0-2.785-2.526,29.393,29.393,0,0,0-13.685-5.873l-.13-.02a30.394,30.394,0,0,0-14.6,1.305,28.337,28.337,0,0,0-13.495,9.71,29.15,29.15,0,0,0-5.914,15.057,34.282,34.282,0,0,0,.91,12.98A28.6,28.6,0,0,0,1247.224-633.027Zm30.156.931a1.651,1.651,0,0,1-1.674-1.612,1.553,1.553,0,0,1,1.539-1.608,1.533,1.533,0,0,1,1.652,1.479A1.584,1.584,0,0,1,1277.38-632.1Zm-29.15-26.644a18.188,18.188,0,0,1,12.739-16.012,18.75,18.75,0,0,1,22.414,9.037,19.368,19.368,0,0,1,1.91,6.356c.286,2.143-.354,2.8-3.056,2.765-.691-.084-1.883-.165-3.047-.384-1.952-.366-2.738-1.866-3.36-3.555a9.913,9.913,0,0,0-4.745-5.888,9.13,9.13,0,0,0-12.556,4.151c-.49.955-.875,1.964-1.305,2.95a3.829,3.829,0,0,1-3.181,2.4,15.9,15.9,0,0,1-4.086.263C1248.617-656.818,1248.124-657.4,1248.23-658.739Z" transform="translate(81.378)" fill="#fff"/>
      <path id="Path_17" data-name="Path 17" d="M1272.224-587.161c4.967-2.663,7.952-6.939,9.685-12.185a39.293,39.293,0,0,0,1.509-14.78,28.333,28.333,0,0,0-2.8-11.206c-4.29-8.558-15.13-9.45-20.7-5.766a14.078,14.078,0,0,0-3.731,3.564c-.509-2.942-.973-3.97-4.923-4.458-2.944-.362-5.9-.095-8.846-.224-.917-.041-1.2.157-1.194,1.147.042,11.363.029,22.726.027,34.089q-.006,14.771-.023,29.542h14.938a2.576,2.576,0,0,1-.092-1.173q-.01-7.466,0-14.934c0-2.142,0-2.126,2.121-1.724A20.679,20.679,0,0,0,1272.224-587.161Zm-15.354-10.792a1.106,1.106,0,0,1-.818-1.19c.045-3.169.021-6.34.021-9.51,0-3.1.015-6.2-.019-9.293a1.389,1.389,0,0,1,.764-1.382,9.586,9.586,0,0,1,6.189-1.348c2.356.282,3.812,1.915,4.444,4.871a41.164,41.164,0,0,1,.408,9.24,17.883,17.883,0,0,1-.566,4.041c-1.058,4.288-3.536,5.313-7.479,5.134A8.737,8.737,0,0,1,1256.87-597.953Z" transform="translate(82.645 16.584)" fill="#fff"/>
      <path id="Path_18" data-name="Path 18" d="M1204.476-613.737c-.04,10.607-.016,21.215-.042,31.822,0,.826.178,1.1,1.058,1.091,4.184-.05,8.37-.063,12.554.006,1.033.017,1.219-.3,1.216-1.252-.032-10.607-.011-21.215-.039-31.822,0-.825.171-1.107,1.044-1.071,1.837.074,3.68,0,5.519.038.636.014.861-.113.854-.814-.04-3.607-.033-7.215,0-10.823,0-.611-.164-.788-.777-.776-1.948.039-3.9-.009-5.845.028-.6.012-.814-.152-.785-.775.049-1.081-.012-2.165.018-3.246a4.642,4.642,0,0,1,3.311-4.449,10.33,10.33,0,0,1,4.684-.363c.719.1.836-.128.831-.776-.029-3.1-.014-6.205-.013-9.308,0-2.315.006-2.37-2.34-2.5a23.228,23.228,0,0,0-9.989,1.2,18.326,18.326,0,0,0-11.284,17.258c0,.933.29,2.132-.174,2.723-.492.627-1.748.147-2.666.218-.108.009-.217.016-.324.023v12.341a15.751,15.751,0,0,0,1.947,0C1204.208-615.07,1204.479-614.743,1204.476-613.737Z" transform="translate(70.198 11.71)" fill="#fff"/>
      <path id="Path_19" data-name="Path 19" d="M1224.563-587.009c0,.823.167,1.1,1.052,1.09q6.329-.076,12.66,0c.884.01,1.144-.2,1.139-1.119-.035-9.161-.019-18.323-.017-27.484,0-4.255.013-8.511,0-12.767-.014-3.622-1.2-4.908-4.806-5.036-2.989-.108-5.984-.034-8.974-.113-.863-.022-1.059.231-1.054,1.069.033,7.393.018,14.787.019,22.182S1224.594-594.4,1224.563-587.009Z" transform="translate(77.452 16.806)" fill="#fff"/>
      <path id="Path_20" data-name="Path 20" d="M1231.868-635.553a6.787,6.787,0,0,0,6.767-6.7,6.714,6.714,0,0,0-6.645-6.682,6.7,6.7,0,0,0-6.751,6.559A6.762,6.762,0,0,0,1231.868-635.553Z" transform="translate(77.662 11.665)" fill="#fff"/>
      <path id="Path_21" data-name="Path 21" d="M1336.263-636.15c0-9.255-5.655-13.052-12.141-13.052a86.987,86.987,0,0,0-9.175.555v26.181a71.762,71.762,0,0,0,9.215.554C1331.281-621.913,1336.263-627.094,1336.263-636.15Zm-15.462,8.937V-643.9c.869-.078,2.292-.119,3.2-.119,3.4,0,5.972,2.176,5.972,8.425,0,6.129-1.978,8.5-6.011,8.5C1323.053-627.094,1321.592-627.133,1320.8-627.213Z" transform="translate(105.616 11.583)" fill="#fff"/>
      <path id="Path_22" data-name="Path 22" d="M1350.891-627.475h-10.4v-5.933h6.8v-5.063h-6.8v-5.379h9.332a37.972,37.972,0,0,0,.4-5.14h-15.583v26.656h15.818A39.42,39.42,0,0,0,1350.891-627.475Z" transform="translate(111.752 11.649)" fill="#fff"/>
      <path id="Path_23" data-name="Path 23" d="M1362.375-622.278c2.927-8.781,5.537-17.362,7.831-26.379a32.275,32.275,0,0,0-5.537-.514l-4.746,17.954a9.676,9.676,0,0,0-.355,2.215h-.395a12.376,12.376,0,0,0-.4-2.215l-4.667-17.954a40.761,40.761,0,0,0-5.815.514c2.215,8.938,4.747,17.678,7.593,26.379Z" transform="translate(116.008 11.593)" fill="#fff"/>
      <path id="Path_24" data-name="Path 24" d="M1383.757-627.475h-10.4v-5.933h6.8v-5.063h-6.8v-5.379h9.333a37.851,37.851,0,0,0,.4-5.14H1367.5v26.656h15.819A39.956,39.956,0,0,0,1383.757-627.475Z" transform="translate(121.993 11.649)" fill="#fff"/>
      <path id="Path_25" data-name="Path 25" d="M1398.607-627.555h-9.57V-648.99h-5.853v26.656h15.027A44.374,44.374,0,0,0,1398.607-627.555Z" transform="translate(126.879 11.649)" fill="#fff"/>
      <path id="Path_26" data-name="Path 26" d="M1407.257-621.846c6.684,0,11.429-4.033,11.429-13.723,0-9.926-4.588-13.723-11.469-13.723-6.684,0-11.431,4.033-11.431,13.881C1395.787-625.642,1400.375-621.846,1407.257-621.846Zm-.039-22.463c3.44,0,5.181,1.938,5.181,8.74,0,6.684-1.5,8.741-5.142,8.741-3.6,0-5.18-2.175-5.18-8.741C1402.077-642.371,1403.658-644.309,1407.218-644.309Z" transform="translate(130.806 11.555)" fill="#fff"/>
      <path id="Path_27" data-name="Path 27" d="M1422.457-630.614h2.729c4.746,0,9.256-2.728,9.256-9.65,0-5.893-3.6-8.938-9.017-8.938a74.2,74.2,0,0,0-8.741.555v26.379h5.773Zm0-13.841c.95-.079,1.741-.119,2.611-.119,2.215,0,3.6,1.662,3.6,4.272,0,3.2-1.344,4.9-3.994,4.9h-2.215Z" transform="translate(137.318 11.583)" fill="#fff"/>
      <path id="Path_28" data-name="Path 28" d="M1439.327-637.8c.039-.554.078-2.453.078-3.006h.4a19.277,19.277,0,0,0,.475,3.006l4.667,15.464h5.536l4.43-15.464a19.877,19.877,0,0,0,.554-3.006h.4c0,.553,0,2.452.039,3.006l.989,15.621a34.385,34.385,0,0,0,5.616-.4c-.553-8.779-1.345-17.519-2.334-26.417h-6.723L1448.62-632.3a16.8,16.8,0,0,0-.475,3.244h-.4a13.625,13.625,0,0,0-.512-3.2l-5.1-16.728h-6.6c-1.029,8.937-1.819,17.558-2.413,26.417a27.321,27.321,0,0,0,4.9.4Z" transform="translate(142.439 11.649)" fill="#fff"/>
      <path id="Path_29" data-name="Path 29" d="M1475.757-627.475h-10.4v-5.933h6.8v-5.063h-6.8v-5.379h9.333a37.856,37.856,0,0,0,.4-5.14H1459.5v26.656h15.821A39.975,39.975,0,0,0,1475.757-627.475Z" transform="translate(150.66 11.649)" fill="#fff"/>
      <path id="Path_30" data-name="Path 30" d="M1490.723-634.8a30.5,30.5,0,0,0,.2,3.322l-.4.039a16.141,16.141,0,0,0-1.264-3.085l-7.99-14.554a54.758,54.758,0,0,0-6.09.4v26.379h5.26v-15.187c0-.871-.08-2.018-.2-3.2l.4-.041a19.2,19.2,0,0,0,1.225,3.085l8.544,15.542a43.589,43.589,0,0,0,5.575-.395v-26.458h-5.259Z" transform="translate(155.546 11.621)" fill="#fff"/>
      <path id="Path_31" data-name="Path 31" d="M1499.629-622.334h5.852V-643.85h5.694a35.707,35.707,0,0,0,.436-5.14h-17.916v5.14h5.934Z" transform="translate(161.315 11.649)" fill="#fff"/>
      <path id="Path_32" data-name="Path 32" d="M1325.449-590.454a22.129,22.129,0,0,0,8.858-1.818v-13.091h-9.491a29.393,29.393,0,0,0,.437,5.024h3.321v4.429a13.424,13.424,0,0,1-3.084.316c-3.4,0-5.339-2.531-5.339-8.424,0-7.118,2.373-8.739,6.09-8.739a16.374,16.374,0,0,1,6.763,1.423,33.645,33.645,0,0,0,.831-5.259,23.474,23.474,0,0,0-7.988-1.306c-6.843,0-11.985,4.073-11.985,13.684C1313.86-595.4,1317.9-590.454,1325.449-590.454Z" transform="translate(105.278 21.338)" fill="#fff"/>
      <path id="Path_33" data-name="Path 33" d="M1343.935-590.454c6.684,0,11.429-4.033,11.429-13.723,0-9.927-4.586-13.722-11.469-13.722-6.683,0-11.429,4.034-11.429,13.881C1332.466-594.249,1337.054-590.454,1343.935-590.454Zm-.039-22.463c3.441,0,5.182,1.937,5.182,8.739,0,6.685-1.5,8.742-5.142,8.742-3.6,0-5.18-2.176-5.18-8.742C1338.754-610.979,1340.336-612.916,1343.9-612.916Z" transform="translate(111.075 21.338)" fill="#fff"/>
      <path id="Path_34" data-name="Path 34" d="M1359.249-617.6c-3.044,9.056-5.695,17.8-8.029,26.379a26.824,26.824,0,0,0,5.34.475l1.819-6.565h7.633l1.819,6.565a27.825,27.825,0,0,0,5.775-.475c-2.334-8.5-5.023-17.48-7.872-26.379Zm.474,15.424,1.978-7.2a11.7,11.7,0,0,0,.277-2.254h.4a11.248,11.248,0,0,0,.316,2.254l1.977,7.2Z" transform="translate(116.92 21.431)" fill="#fff"/>
      <path id="Path_35" data-name="Path 35" d="M1370.67-617.6v26.656H1385.7a44.5,44.5,0,0,0,.4-5.22h-9.572V-617.6Z" transform="translate(122.98 21.431)" fill="#fff"/>
      <path id="Path_36" data-name="Path 36" d="M1390.4-610.266c0-1.741.95-2.728,3.046-2.728a26.871,26.871,0,0,1,6.169.751,32.681,32.681,0,0,0,.672-4.984,28.342,28.342,0,0,0-5.893-.672c-5.854,0-10.006,2.768-10.006,7.989,0,8.384,11.034,7.395,11.034,11.745,0,1.78-.949,2.808-3.124,2.808a19.376,19.376,0,0,1-6.882-1.344,31.355,31.355,0,0,0-1.146,5.022,20.122,20.122,0,0,0,7.276,1.225c5.734,0,9.847-2.687,9.847-8.264C1401.393-606.785,1390.4-606.311,1390.4-610.266Z" transform="translate(127.218 21.338)" fill="#fff"/>
      <path id="Path_37" data-name="Path 37" d="M1298.235-584.126v-64.74h-4.543v67.988h4.543Z" transform="translate(98.993 11.688)" fill="#fff"/>
      <path id="Path_38" data-name="Path 38" d="M1226.431-511.009h21.592v-19.117h-21.592v-14.046h29.4a142.2,142.2,0,0,0,1.563-19.381h-54.107v87.661h54.626a143.607,143.607,0,0,0,1.557-19.249h-33.036Z" transform="translate(70.821 38.272)" fill="#fff"/>
      <path id="Path_39" data-name="Path 39" d="M1253.964-512.276c0,24.065,10.407,33.295,24.193,33.295,5.589,0,10.013-1.558,14.824-7.02h1.04v32.516h21.463v-90.391a87.247,87.247,0,0,0-29.394-5.6C1266.061-549.471,1253.964-537.115,1253.964-512.276Zm40.057-18.465v32.124a19.723,19.723,0,0,1-8.711,1.69c-5.854,0-8.715-2.86-8.715-16.78,0-13.521,2.993-17.946,10.793-17.946A30.19,30.19,0,0,1,1294.021-530.741Z" transform="translate(86.614 42.66)" fill="#fff"/>
      <path id="Path_40" data-name="Path 40" d="M1350.8-500.492a21.614,21.614,0,0,1-9.236,2.341c-5.2,0-6.633-1.564-6.633-5.987v-44.739a186.8,186.8,0,0,0-21.459,1.3v47.208c0,14.829,7.414,21.2,18.6,21.2,7.286,0,12.355-2.469,17.686-7.152h1.044v5.854h21.459v-68.412a188.654,188.654,0,0,0-21.459,1.3Z" transform="translate(105.157 42.845)" fill="#fff"/>
      <path id="Path_41" data-name="Path 41" d="M1382.235-570.493c-8.064,0-11.837,5.722-11.837,11.445,0,5.855,3.906,11.184,11.7,11.184,7.938,0,11.837-5.2,11.837-11.184C1393.939-564.9,1390.166-570.493,1382.235-570.493Z" transform="translate(122.895 36.109)" fill="#fff"/>
      <rect id="Rectangle_11" data-name="Rectangle 11" width="21.458" height="67.888" transform="translate(1494.337 -505.507)" fill="#fff"/>
      <path id="Path_42" data-name="Path 42" d="M1430.873-494.61c-4.159,0-6.108-.651-6.108-5.462v-26.4h16.127a165.986,165.986,0,0,0,.906-18.078h-17.033v-16.521a163.04,163.04,0,0,0-21.459,3.381v13.14h-7.417v18.078h7.417v26.009c0,17.04,7.932,25.1,24.972,25.1,4.033,0,13.135-1.558,16.775-3.38A152.291,152.291,0,0,0,1442.063-498C1438.811-496.3,1433.607-494.61,1430.873-494.61Z" transform="translate(130.838 39.045)" fill="#fff"/>
      <path id="Path_43" data-name="Path 43" d="M1471.8-514.31a60.262,60.262,0,0,0-1.689,8.191h-1.039a61.275,61.275,0,0,0-1.563-8.191l-9.494-34.466a190.338,190.338,0,0,0-20.806,1.3c4.811,23.673,14.434,49.555,21.851,65.811l-1.689,4.551c-1.7,4.292-3.514,5.336-6.767,5.336a38.162,38.162,0,0,1-12.355-2.343,112.255,112.255,0,0,0-3.773,18.6c5.076,2.6,11.577,3.12,15.09,3.12,13.262,0,24.319-8.323,32.383-32.776l20.681-62.164a154.331,154.331,0,0,0-20.814-1.431Z" transform="translate(142.86 42.876)" fill="#fff"/>
      <path id="Path_44" data-name="Path 44" d="M1541.716-514.693a25.222,25.222,0,0,0,14.565-22.888c0-19.122-14.046-26.661-30.822-26.661a278.531,278.531,0,0,0-31.085,2.077v86.49H1517v-32.256h4.944c2.994,3.772,7.021,10.666,10.925,19.381l6.114,13.786a139.243,139.243,0,0,0,24.06-2.208l-9.888-20.813A66.56,66.56,0,0,0,1541.716-514.693Zm-18.99-10.146H1517v-21.2c2.475-.126,4.032-.126,7.286-.126,5.721,0,8.711,2.728,8.711,10.014C1533-527.309,1528.582-524.84,1522.727-524.84Z" transform="translate(161.527 38.057)" fill="#fff"/>
      <path id="Path_45" data-name="Path 45" d="M1598.86-516.52l19.248-30.825a174.031,174.031,0,0,0-22.754-1.431l-8.458,16.647a23.2,23.2,0,0,0-1.691,4.811h-1.044a23.133,23.133,0,0,0-1.557-4.811l-8.456-16.647a215.837,215.837,0,0,0-24.447,1.431l18.725,30.56-19.9,35.251a196.086,196.086,0,0,0,22.757,1.557l8.583-16.774a31.64,31.64,0,0,0,2.475-5.6h1.039a30.955,30.955,0,0,0,2.215,5.6l8.317,16.774a237.017,237.017,0,0,0,24.585-1.43Z" transform="translate(178.402 42.876)" fill="#fff"/>
      <path id="Path_46" data-name="Path 46" d="M1057.756-575.644v8.032a3,3,0,0,0,3,3h14.424v14.423a3.006,3.006,0,0,0,3.005,3h8.031a3.006,3.006,0,0,0,3.005-3v-14.423h14.425a3.006,3.006,0,0,0,3.005-3v-8.032a3,3,0,0,0-3.005-3h-14.425v-14.425a3.005,3.005,0,0,0-3.005-3.005h-8.031a3.005,3.005,0,0,0-3.005,3.005v14.425h-14.424A3,3,0,0,0,1057.756-575.644Z" transform="translate(25.474 28.137)" fill="#fff"/>
      <path id="Path_47" data-name="Path 47" d="M1135.008-548.509l-.12.033c-6.7,1.78-13.337,3.781-19.878,5.655a20.808,20.808,0,0,1-.051,4.4,7.024,7.024,0,0,1-6.521,5.816,114.282,114.282,0,0,1-13.846-.059,43.49,43.49,0,0,1-9.124-1.584,16.381,16.381,0,0,1,3.512-.784c5.069-.018,10.14.144,15.211.164a18.706,18.706,0,0,0,4.712-.406,4.546,4.546,0,0,0,3.325-4.571c-.009-2.334-.95-3.962-3.381-4.389-4.48-.784-9.043-1.076-13.549-1.735-4.787-.7-9.533-1.676-14.32-2.375a43.607,43.607,0,0,0-8.752-.691,9.647,9.647,0,0,0-4.82,2.2c-9.831,7.547-21.093,12.067-32.722,15.833a5.247,5.247,0,0,0-1.394.7c2.444,6.017,7.465,9.19,13.006,11.788.654.307,1.345.531,2,.846,3.74,1.809,6.928,2.276,10.737-.832,5.2-4.247,11.936-5.164,18.5-5.121,8.1.053,16.2.64,24.3,1.119a10.834,10.834,0,0,0,6.835-1.472q6.711-4.267,13.709-8.061c.344-.186.686-.371,1.031-.555q4.293-2.3,8.684-4.4c2.153-1.035,4.31-2.056,6.506-3a6.006,6.006,0,0,0,1.4-.749,2.891,2.891,0,0,0,.268-.245,3.227,3.227,0,0,0,.758-1.572A5.052,5.052,0,0,0,1135.008-548.509Z" transform="translate(17.85 42.784)" fill="#fff"/>
      <path id="Path_48" data-name="Path 48" d="M1154.352-559.085c-.3-4.143-1.494-7.139-6.088-8.882-6.28-2.383-10.441-7.755-13.687-13.464-4-7.045-7.548-14.354-11.181-21.6a10.84,10.84,0,0,0-4.692-5.185q-7.054-3.677-13.838-7.842c-.332-.2-.664-.409-.993-.614q-4.134-2.571-8.154-5.321c-1.973-1.347-3.936-2.7-5.851-4.134a6.031,6.031,0,0,0-1.347-.833,2.6,2.6,0,0,0-.346-.111,3.236,3.236,0,0,0-1.74.13,5.05,5.05,0,0,0-2.148,8.178l.087.089c4.891,4.909,9.944,9.658,14.838,14.387a20.78,20.78,0,0,1,3.834-2.156,7.026,7.026,0,0,1,8.3,2.74,114.321,114.321,0,0,1,6.872,12.021,43.512,43.512,0,0,1,3.19,8.695,16.416,16.416,0,0,1-2.436-2.649c-2.551-4.382-4.945-8.854-7.463-13.255a18.68,18.68,0,0,0-2.708-3.878,4.547,4.547,0,0,0-5.62-.594c-2.018,1.174-2.957,2.805-2.111,5.123,1.562,4.272,3.591,8.37,5.271,12.6,1.787,4.5,3.317,9.095,5.1,13.589a43.4,43.4,0,0,0,3.778,7.926,9.631,9.631,0,0,0,4.318,3.071c11.452,4.742,21,12.233,30.075,20.422a5.172,5.172,0,0,0,1.3.859c3.988-5.125,4.228-11.061,3.705-17.157C1154.555-557.652,1154.4-558.365,1154.352-559.085Z" transform="translate(33.328 18.457)" fill="#fff"/>
      <path id="Path_49" data-name="Path 49" d="M1036.6-538.326l.033-.121c1.807-6.69,3.393-13.441,5.041-20.043a20.8,20.8,0,0,1-3.784-2.244,7.024,7.024,0,0,1-1.776-8.555,114.237,114.237,0,0,1,6.974-11.962,43.453,43.453,0,0,1,5.935-7.109,16.408,16.408,0,0,1-1.077,3.433c-2.519,4.4-5.2,8.709-7.747,13.09a18.768,18.768,0,0,0-2,4.286,4.549,4.549,0,0,0,2.295,5.164c2.026,1.16,3.909,1.157,5.493-.736,2.919-3.486,5.453-7.293,8.277-10.864,3-3.794,6.219-7.419,9.218-11.215a43.628,43.628,0,0,0,4.974-7.234,9.641,9.641,0,0,0,.5-5.275c-1.621-12.289.1-24.3,2.649-36.256a5.193,5.193,0,0,0,.094-1.554c-6.433-.892-11.691,1.869-16.71,5.369-.594.413-1.134.9-1.731,1.306-3.436,2.335-5.436,4.862-4.649,9.714,1.077,6.63-1.5,12.92-4.816,18.584-4.1,6.991-8.657,13.715-13.12,20.486a10.839,10.839,0,0,0-2.143,6.654q.343,7.948.127,15.906c-.01.389-.023.779-.035,1.169q-.157,4.865-.531,9.72c-.18,2.382-.373,4.761-.654,7.135a5.976,5.976,0,0,0-.048,1.584,2.368,2.368,0,0,0,.077.354,3.243,3.243,0,0,0,.982,1.443A5.051,5.051,0,0,0,1036.6-538.326Z" transform="translate(15.999 15.794)" fill="#fff"/>
      <path id="Path_50" data-name="Path 50" d="M1176.51-659.249a13.871,13.871,0,0,0-12.011-6.934H1048.081a13.865,13.865,0,0,0-12.01,6.934l-58.209,100.82a13.868,13.868,0,0,0,0,13.869l58.209,100.82a13.865,13.865,0,0,0,12.01,6.935H1164.5a13.871,13.871,0,0,0,12.011-6.935l58.208-100.82a13.867,13.867,0,0,0,0-13.869Zm49.121,109.443-58.208,100.821a3.387,3.387,0,0,1-2.924,1.688H1048.081a3.387,3.387,0,0,1-2.924-1.688L986.949-549.807a3.386,3.386,0,0,1,0-3.376L1045.159-654a3.385,3.385,0,0,1,2.922-1.687H1164.5a3.384,3.384,0,0,1,2.923,1.688l58.209,100.819A3.389,3.389,0,0,1,1225.631-549.807Z" transform="translate(0 6.292)" fill="#fff"/>
    </g>
  </g>
</svg>
