<svg xmlns="http://www.w3.org/2000/svg" width="54.785" height="72.733" viewBox="0 0 54.785 72.733">
  <path id="Path_345" data-name="Path 345" d="M-4109.689,1710.971a1.455,1.455,0,0,1,1.455-1.455,1.455,1.455,0,0,1,1.455,1.455,1.455,1.455,0,0,1-1.455,1.456A1.456,1.456,0,0,1-4109.689,1710.971Zm45.253,0v57.389a1.243,1.243,0,0,1-1.243,1.243h-52.3a1.243,1.243,0,0,1-1.243-1.243v-70.247a1.243,1.243,0,0,1,1.243-1.243h38.9a1.293,1.293,0,0,1,.216.021l.026.007a1.208,1.208,0,0,1,.178.052l.06.025c.048.021.095.046.141.073.017.011.035.021.052.032a1.21,1.21,0,0,1,.17.135l13.415,12.859a1.082,1.082,0,0,1,.112.125c.009.01.017.022.025.033a1.194,1.194,0,0,1,.087.133l0,.005a1.306,1.306,0,0,1,.069.148c0,.013.009.026.015.039.015.045.029.092.04.138,0,.007,0,.013.006.02a1.336,1.336,0,0,1,.022.159c0,.014,0,.028,0,.043S-4064.436,1710.952-4064.436,1710.971Zm-11.532-8.141-1.882-1.8v8.7h9.077Zm9.046,64.287v-54.9h-12.17a1.243,1.243,0,0,1-1.243-1.243v-11.615h-36.4v67.761Zm-41.972-47.09h20.591a1.243,1.243,0,0,0,1.243-1.243,1.243,1.243,0,0,0-1.243-1.243h-20.591a1.243,1.243,0,0,0-1.243,1.243A1.243,1.243,0,0,0-4108.894,1720.027Zm33.086,7.287h-33.086a1.243,1.243,0,0,0-1.243,1.243,1.243,1.243,0,0,0,1.243,1.243h33.086a1.243,1.243,0,0,0,1.243-1.243A1.244,1.244,0,0,0-4075.808,1727.314Zm0,9.773h-33.086a1.243,1.243,0,0,0-1.243,1.243,1.243,1.243,0,0,0,1.243,1.243h33.086a1.243,1.243,0,0,0,1.243-1.243A1.244,1.244,0,0,0-4075.808,1737.087Zm0,9.773h-33.086a1.243,1.243,0,0,0-1.243,1.243,1.243,1.243,0,0,0,1.243,1.243h33.086a1.243,1.243,0,0,0,1.243-1.243A1.244,1.244,0,0,0-4075.808,1746.859Zm0,9.773h-33.086a1.243,1.243,0,0,0-1.243,1.243,1.243,1.243,0,0,0,1.243,1.243h33.086a1.243,1.243,0,0,0,1.243-1.243A1.244,1.244,0,0,0-4075.808,1756.633Z" transform="translate(4119.221 -1696.87)" fill="#aa58a4"/>
</svg>
