<svg id="Group_162" data-name="Group 162" xmlns="http://www.w3.org/2000/svg" width="164.658" height="127.293" viewBox="0 0 164.658 127.293">
  <path id="Path_285" data-name="Path 285" d="M1458.173,501.891H1331.816a11.8,11.8,0,0,0-11.794,11.794V623.719h134.2a25,25,0,0,0,25-25.006V522.937A21.046,21.046,0,0,0,1458.173,501.891ZM1325.487,515.3a7.95,7.95,0,0,1,7.953-7.949h30.888a20.958,20.958,0,0,0-6.932,15.581v95.317h-31.909Z" transform="translate(-1314.562 -496.426)" fill="#3c0749" opacity="0.1"/>
  <path id="Path_286" data-name="Path 286" d="M1456.878,500.6h-119.66a18.492,18.492,0,0,0-18.49,18.495V622.423h138.151a21.048,21.048,0,0,0,21.045-21.046V521.641A21.048,21.048,0,0,0,1456.878,500.6ZM1324.187,519.09a13.047,13.047,0,0,1,13.031-13.03h25.811a20.973,20.973,0,0,0-6.932,15.581v95.317h-31.909Z" transform="translate(-1318.727 -500.595)" fill="#aa58a4"/>
  <g id="Group_152" data-name="Group 152" transform="translate(42.834 5.465)" opacity="0.3">
    <path id="Path_287" data-name="Path 287" d="M1330.18,515.057V608.62h89.856a15.6,15.6,0,0,0,15.581-15.581V513.3a15.489,15.489,0,0,0-3.757-10.116h-89.805A11.872,11.872,0,0,0,1330.18,515.057Z" transform="translate(-1324.719 -497.722)" fill="#aa58a4"/>
    <path id="Path_288" data-name="Path 288" d="M1424.2,501.891h-79.736a15.6,15.6,0,0,0-15.581,15.581v95.317h5.461V519.226a11.872,11.872,0,0,1,11.874-11.87h89.805A15.529,15.529,0,0,0,1424.2,501.891Z" transform="translate(-1328.885 -501.891)" fill="#3c0749"/>
  </g>
  <g id="Group_153" data-name="Group 153" transform="translate(65.533 66.613)">
    <path id="Path_289" data-name="Path 289" d="M1341.686,527.483H1334.8V516.431h6.823a18.069,18.069,0,0,1-.2,2.441h-3.707v1.771h2.72v2.412h-2.72v2h4.167A17.606,17.606,0,0,1,1341.686,527.483Z" transform="translate(-1332.56 -516.267)" fill="#fff"/>
    <path id="Path_290" data-name="Path 290" d="M1343.118,527.524c.03.725.409,1.033.966,1.033a5.8,5.8,0,0,0,1.737-.392,14.89,14.89,0,0,1,.329,2.391,9.072,9.072,0,0,1-2.345.38,3.222,3.222,0,0,1-3.395-3.327c-2.277-.527-3.6-2.231-3.6-5.478,0-3.77,1.965-5.739,4.886-5.739s4.867,1.72,4.867,5.688C1346.559,525.214,1345.218,526.985,1343.118,527.524Zm-1.442-8.754c-1.215,0-1.788.738-1.788,3.331,0,2.425.539,3.293,1.8,3.293,1.244,0,1.788-.805,1.788-3.293C1343.48,519.491,1342.822,518.77,1341.675,518.77Z" transform="translate(-1326.107 -516.392)" fill="#fff"/>
    <path id="Path_291" data-name="Path 291" d="M1343.976,527.648c-2.74,0-4.411-1.181-4.411-4.773v-6.443h2.918V523.2c0,1.493.359,1.9,1.523,1.9,1.118,0,1.594-.46,1.594-1.9v-6.772h2.8v6.443C1348.4,525.923,1347.058,527.648,1343.976,527.648Z" transform="translate(-1317.229 -516.267)" fill="#fff"/>
    <path id="Path_292" data-name="Path 292" d="M1342.224,527.483V516.431h2.918v11.052Z" transform="translate(-1308.675 -516.267)" fill="#fff"/>
    <path id="Path_293" data-name="Path 293" d="M1350.828,518.872h-2.247v8.611h-2.918v-8.611h-2.378v-2.441h7.759A18.8,18.8,0,0,1,1350.828,518.872Z" transform="translate(-1305.265 -516.267)" fill="#fff"/>
    <path id="Path_294" data-name="Path 294" d="M1351.272,523.546v4h-2.918v-3.985a57.717,57.717,0,0,1-3.133-6.9,20.315,20.315,0,0,1,3.02-.249l1.277,3.462a9.3,9.3,0,0,1,.312,1.13h.2a9.3,9.3,0,0,1,.291-1.164l1.248-3.428a18.765,18.765,0,0,1,2.77.249A65.924,65.924,0,0,1,1351.272,523.546Z" transform="translate(-1299.038 -516.331)" fill="#fff"/>
    <path id="Path_295" data-name="Path 295" d="M1355.564,527.739l-.675-.886a4.92,4.92,0,0,1-2.868.919c-2.407,0-3.753-1.332-3.753-3.264,0-1.51.49-2.4,2.327-3.394a3.244,3.244,0,0,1-.658-1.9c0-1.72,1.084-2.821,3.083-2.821,1.868,0,3.036.839,3.036,2.458,0,1.117-.477,1.969-1.986,2.906.345.472,1,1.345,1.261,1.67.51-.54,1.231-1.358,2.315-2.69a26.254,26.254,0,0,1,.245,3.218,15.006,15.006,0,0,1-1.147,1.278l1.7,2.214A16.987,16.987,0,0,1,1355.564,527.739Zm-4.626-3.576c0,.822.379,1.278,1.231,1.278a2.525,2.525,0,0,0,1.328-.392c-.544-.641-1.311-1.64-1.721-2.18A1.335,1.335,0,0,0,1350.937,524.164Zm2.1-5.819c-.392,0-.642.211-.642.7a1.786,1.786,0,0,0,.46,1.016c.641-.329.852-.687.852-1.13C1353.708,518.542,1353.463,518.344,1353.038,518.344Z" transform="translate(-1289.233 -516.392)" fill="#fff"/>
    <path id="Path_296" data-name="Path 296" d="M1341.159,531.37h-6.891V520.318h6.823a18.072,18.072,0,0,1-.194,2.441h-3.706v1.776h2.72v2.408h-2.72v2h4.162A18.393,18.393,0,0,1,1341.159,531.37Z" transform="translate(-1334.268 -503.763)" fill="#fff"/>
    <path id="Path_297" data-name="Path 297" d="M1342.587,531.411c.034.725.409,1.037.97,1.037a5.846,5.846,0,0,0,1.737-.4,14.886,14.886,0,0,1,.325,2.4,9.2,9.2,0,0,1-2.34.375,3.22,3.22,0,0,1-3.4-3.327c-2.281-.527-3.609-2.231-3.609-5.478,0-3.77,1.969-5.739,4.887-5.739,2.935,0,4.871,1.72,4.871,5.688C1346.032,529.1,1344.686,530.872,1342.587,531.411Zm-1.442-8.754c-1.215,0-1.788.738-1.788,3.331,0,2.425.544,3.293,1.8,3.293,1.244,0,1.788-.8,1.788-3.293C1342.949,523.378,1342.291,522.657,1341.144,522.657Z" transform="translate(-1327.815 -503.889)" fill="#fff"/>
    <path id="Path_298" data-name="Path 298" d="M1343.444,531.535c-2.736,0-4.41-1.181-4.41-4.773v-6.443h2.918v6.772c0,1.493.363,1.9,1.527,1.9,1.113,0,1.589-.46,1.589-1.9v-6.772h2.8v6.443C1347.872,529.81,1346.527,531.535,1343.444,531.535Z" transform="translate(-1318.936 -503.763)" fill="#fff"/>
    <path id="Path_299" data-name="Path 299" d="M1348.236,531.45l-.671-2.64h-2.737l-.658,2.64a13.586,13.586,0,0,1-2.753-.244c.885-3.707,1.948-7.232,3.179-10.888h3.344c1.2,3.673,2.314,7.595,3.133,10.888A14.835,14.835,0,0,1,1348.236,531.45Zm-1.817-7.13a5.467,5.467,0,0,1-.148-1.164h-.2a5.213,5.213,0,0,1-.148,1.164l-.522,2.163h1.573Z" transform="translate(-1311.271 -503.763)" fill="#fff"/>
    <path id="Path_300" data-name="Path 300" d="M1350.591,531.37h-6.578V520.318h2.918v8.543h3.837A21.005,21.005,0,0,1,1350.591,531.37Z" transform="translate(-1302.921 -503.763)" fill="#fff"/>
    <path id="Path_301" data-name="Path 301" d="M1346.023,531.37V520.318h2.918V531.37Z" transform="translate(-1296.455 -503.763)" fill="#fff"/>
    <path id="Path_302" data-name="Path 302" d="M1354.628,522.759h-2.248v8.611h-2.918v-8.611h-2.378v-2.441h7.755A18.746,18.746,0,0,1,1354.628,522.759Z" transform="translate(-1293.042 -503.763)" fill="#fff"/>
    <path id="Path_303" data-name="Path 303" d="M1355.071,527.43v4h-2.922v-3.985a57.269,57.269,0,0,1-3.129-6.9,20.227,20.227,0,0,1,3.015-.245l1.278,3.458a7.739,7.739,0,0,1,.312,1.134h.2a9.017,9.017,0,0,1,.295-1.168l1.248-3.424a18.857,18.857,0,0,1,2.771.245A66.472,66.472,0,0,1,1355.071,527.43Z" transform="translate(-1286.814 -503.824)" fill="#fff"/>
  </g>
  <path id="Path_304" data-name="Path 304" d="M1368.978,516.477c-.012-.131-.03-.261-.046-.392a11.976,11.976,0,0,0-2.75-6.422c-.181-.215-.37-.426-.574-.633a12.34,12.34,0,0,0-1.133-1.029,11.932,11.932,0,0,0-5.533-2.387l-.051-.013-.055-.008a12.667,12.667,0,0,0-1.737-.139,12.317,12.317,0,0,0-4.217.675,11.581,11.581,0,0,0-5.5,3.959,11.9,11.9,0,0,0-2.416,6.144,14.129,14.129,0,0,0,.371,5.3l.059.19c.063.2.131.4.2.59a11.5,11.5,0,0,0,1.02,2.125,12.1,12.1,0,0,0,2.362,2.779c1.012.885,2.066,1.725,3.078,2.6a2.469,2.469,0,0,1,1.033,1.767c.008.274.2.219.342.143a8.225,8.225,0,0,0,.957-.54,2.867,2.867,0,0,0,.165-4.942c-.81-.548-1.628-1.092-2.383-1.716-.173-.143-.337-.291-.5-.443a6.552,6.552,0,0,1-1.894-2.838c-.367-1.155-.076-1.615,1.113-1.67,1.206-.051,2.408-.139,3.614-.16,1.075-.017,2.15-.025,3.226-.017,1.721.013,3.441.063,5.161.165l.342.025c.919.08,1.142.266.958,1.493l-.017.11a1.386,1.386,0,0,1-.046.169,5.623,5.623,0,0,1-.325.814,6.129,6.129,0,0,1-2.159,2.37c-.725.485-1.493.915-2.227,1.387a1.676,1.676,0,0,0-.076,2.893,2.667,2.667,0,0,0,2.88.194,10.752,10.752,0,0,0,5.507-5.351,12.749,12.749,0,0,0,1.037-2.99A13.68,13.68,0,0,0,1368.978,516.477Zm-7.7,11.116a.672.672,0,0,1-.683-.658.652.652,0,0,1,1.3-.055A.65.65,0,0,1,1361.278,527.592Zm2.585-10.032a3.566,3.566,0,0,1-.6.038c-.283-.034-.767-.068-1.244-.156-.8-.152-1.117-.763-1.37-1.451a4.049,4.049,0,0,0-1.936-2.4,3.724,3.724,0,0,0-5.123,1.7l-.077.156c-.164.341-.3.7-.455,1.046a1.57,1.57,0,0,1-1.3.983,6.493,6.493,0,0,1-1.666.105c-.548-.068-.751-.308-.7-.852l0-.042c.016-.177.033-.35.063-.523a7.409,7.409,0,0,1,5.128-5.967,8.289,8.289,0,0,1,1.721-.341,8.071,8.071,0,0,1,1.628.034c.1.013.2.03.3.047a7.607,7.607,0,0,1,4.28,2.248,7.242,7.242,0,0,1,1.215,1.7,8.056,8.056,0,0,1,.78,2.593C1364.6,517.151,1364.453,517.463,1363.863,517.561Z" transform="translate(-1234.631 -484.969)" fill="#fff"/>
  <g id="Group_154" data-name="Group 154" transform="translate(65.765 23.1)">
    <path id="Path_305" data-name="Path 305" d="M1334.323,526.529v-4.858h6.017V511.058l-5.418.637a22.319,22.319,0,0,1-.451-4.3l6.055-1.231h4.639v15.509h4.3a30.056,30.056,0,0,1-.375,4.858Z" transform="translate(-1334.323 -505.787)" fill="#fff"/>
    <path id="Path_306" data-name="Path 306" d="M1346.08,527.191c-4.673,0-8-3.028-8-10.576,0-7.215,3.475-10.542,8-10.542,4.857,0,8,3.141,8,10.542C1354.078,523.455,1351.013,527.191,1346.08,527.191Zm0-16.631c-2.32,0-2.842,2.091-2.842,6.055,0,4.149.485,6.131,2.842,6.131s2.838-2.172,2.838-6.131C1348.917,512.727,1348.508,510.56,1346.08,510.56Z" transform="translate(-1322.238 -506.073)" fill="#fff"/>
  </g>
  <g id="Group_155" data-name="Group 155" transform="translate(15.821 28.025)">
    <path id="Path_307" data-name="Path 307" d="M1330.195,525.568V526.7h3.463v2.391h-10.938a30.88,30.88,0,0,1-.228-3.622,3.405,3.405,0,0,1,3.7-3.74A3.628,3.628,0,0,1,1330.195,525.568Zm-5.785.051c0,.358.016.687.046,1.084h3.757v-.919c0-1.1-.7-1.657-2.033-1.657C1325.1,524.126,1324.41,524.7,1324.41,525.619Z" transform="translate(-1322.441 -460.629)" fill="#aa58a4"/>
    <path id="Path_308" data-name="Path 308" d="M1333.771,521.806l-1.674.755a12.98,12.98,0,0,0-2.64,1.522v1h4.2v2.361h-10.938a30.963,30.963,0,0,1-.228-3.656c0-2.032.949-3.719,3.293-3.719a3.089,3.089,0,0,1,2.935,2,7.936,7.936,0,0,1,2.328-1.623l2.475-1.181A13.345,13.345,0,0,1,1333.771,521.806Zm-9.332,2.146c0,.426.017.789.05,1.13h3.15v-.932a1.5,1.5,0,0,0-1.674-1.64A1.331,1.331,0,0,0,1324.439,523.952Z" transform="translate(-1322.441 -468.569)" fill="#aa58a4"/>
    <path id="Path_309" data-name="Path 309" d="M1333.65,519.318l-2.72.755v3.163l2.72.755a11.127,11.127,0,0,1-.2,2.214c-3.555-.97-7.176-2.066-10.934-3.327v-2.69c3.69-1.181,7.409-2.3,10.934-3.264A11.473,11.473,0,0,1,1333.65,519.318Zm-7.72,2.129a4.611,4.611,0,0,1-.936.131v.164a5.063,5.063,0,0,1,.936.114l2.982.822V520.63Z" transform="translate(-1322.354 -476.096)" fill="#aa58a4"/>
    <path id="Path_310" data-name="Path 310" d="M1333.856,517.852c0,3.213-1.965,4.934-5.705,4.934-3.952,0-5.672-2.113-5.672-4.769A8.4,8.4,0,0,1,1323,515a15.961,15.961,0,0,1,2.167.329,6.151,6.151,0,0,0-.556,2.555c0,1.282.738,2.3,3.525,2.3,2.669,0,3.588-.788,3.588-2.4a5.353,5.353,0,0,0-.771-2.673,12.324,12.324,0,0,1,2.163-.342A6.594,6.594,0,0,1,1333.856,517.852Z" transform="translate(-1322.479 -483.022)" fill="#aa58a4"/>
    <path id="Path_311" data-name="Path 311" d="M1324.648,512.941V515.3h8.923v2.429h-8.923v2.458h-2.13v-7.43A15.123,15.123,0,0,1,1324.648,512.941Z" transform="translate(-1322.354 -489.487)" fill="#aa58a4"/>
    <path id="Path_312" data-name="Path 312" d="M1333.571,514.186h-11.053v-2.429h11.053Z" transform="translate(-1322.354 -492.714)" fill="#aa58a4"/>
    <path id="Path_313" data-name="Path 313" d="M1333.856,512.411c0,3.213-1.965,4.934-5.705,4.934-3.952,0-5.672-2.113-5.672-4.769a8.406,8.406,0,0,1,.523-3.019,15.962,15.962,0,0,1,2.167.329,6.169,6.169,0,0,0-.556,2.56c0,1.278.738,2.294,3.525,2.294,2.669,0,3.588-.788,3.588-2.4a5.354,5.354,0,0,0-.771-2.674,12.347,12.347,0,0,1,2.163-.341A6.607,6.607,0,0,1,1333.856,512.411Z" transform="translate(-1322.479 -500.528)" fill="#aa58a4"/>
    <path id="Path_314" data-name="Path 314" d="M1333.571,507.418v6.557h-11.053v-6.46a15.235,15.235,0,0,1,2.13.169v3.867h2.231v-2.817h2.1v2.817h2.458v-4.31A16.8,16.8,0,0,1,1333.571,507.418Z" transform="translate(-1322.354 -507.241)" fill="#aa58a4"/>
  </g>
</svg>
