<svg xmlns="http://www.w3.org/2000/svg" width="57.56" height="36.297" viewBox="0 0 57.56 36.297">
  <path id="Path_356" data-name="Path 356" d="M-3311.934,1827.968a2.055,2.055,0,0,1-1.448,2.519,2.055,2.055,0,0,1-2.519-1.448,2.054,2.054,0,0,1,1.448-2.519A2.054,2.054,0,0,1-3311.934,1827.968Zm-9.977-1.219h-16.014a1.755,1.755,0,0,0-1.755,1.755,1.755,1.755,0,0,0,1.755,1.755h16.014a1.755,1.755,0,0,0,1.755-1.755A1.755,1.755,0,0,0-3321.911,1826.749Zm39.771,2.019c.006-.044.013-.088.017-.133s0-.088,0-.132,0-.088,0-.132-.01-.088-.017-.133-.013-.086-.023-.128-.024-.09-.039-.134c-.009-.029-.014-.058-.025-.086,0-.012-.011-.022-.016-.034-.017-.043-.038-.085-.059-.127s-.037-.077-.058-.114-.048-.073-.073-.109-.051-.075-.08-.111-.055-.061-.083-.091-.066-.071-.1-.1c-.009-.008-.017-.018-.025-.026l-18.938-16.394a1.755,1.755,0,0,0-2.476.178,1.755,1.755,0,0,0,.178,2.475l15.378,13.312h-17.155a1.755,1.755,0,0,0-1.755,1.755,1.755,1.755,0,0,0,1.755,1.755h17.155l-15.378,13.312a1.755,1.755,0,0,0-.178,2.475,1.751,1.751,0,0,0,1.328.606,1.749,1.749,0,0,0,1.148-.428l18.938-16.393c.009-.008.016-.017.025-.026.036-.032.068-.068.1-.1s.057-.059.083-.091.054-.073.08-.11.05-.072.073-.109.04-.075.058-.114.042-.084.059-.127c0-.012.011-.022.016-.034.011-.028.016-.057.025-.086.014-.045.028-.089.039-.135S-3282.147,1828.811-3282.14,1828.768Z" transform="translate(3339.68 -1810.355)" fill="#fff"/>
</svg>
