<svg id="Group_163" data-name="Group 163" xmlns="http://www.w3.org/2000/svg" width="165.095" height="127.623" viewBox="0 0 165.095 127.623">
  <path id="Path_315" data-name="Path 315" d="M1459.851,578.378h-79.946l-.008,0h-46.735a11.822,11.822,0,0,0-11.825,11.821V700.526h134.544a25.07,25.07,0,0,0,25.071-25.067V599.48A21.1,21.1,0,0,0,1459.851,578.378Zm-133.035,13.453a7.971,7.971,0,0,1,7.969-7.974h30.974a21.014,21.014,0,0,0-6.955,15.622v95.572h-31.988Z" transform="translate(-1315.857 -572.903)" fill="#3c0749" opacity="0.1"/>
  <path id="Path_316" data-name="Path 316" d="M1458.555,577.083H1338.583a18.542,18.542,0,0,0-18.543,18.539V699.231h100.806v0h37.709a21.1,21.1,0,0,0,21.1-21.1V598.184A21.1,21.1,0,0,0,1458.555,577.083ZM1325.52,595.623a13.077,13.077,0,0,1,13.064-13.06h25.879a21.012,21.012,0,0,0-6.951,15.622v95.568H1325.52Z" transform="translate(-1320.04 -577.083)" fill="#aa58a4"/>
  <g id="Group_157" data-name="Group 157" transform="translate(42.947 5.479)" opacity="0.3">
    <path id="Path_317" data-name="Path 317" d="M1331.494,591.58v93.809h90.092a15.642,15.642,0,0,0,15.622-15.622V589.821a15.551,15.551,0,0,0-3.767-10.147H1343.4A11.9,11.9,0,0,0,1331.494,591.58Z" transform="translate(-1326.015 -574.199)" fill="#aa58a4"/>
    <path id="Path_318" data-name="Path 318" d="M1425.77,578.379h-79.945A15.64,15.64,0,0,0,1330.2,594v95.568h5.48V595.76a11.9,11.9,0,0,1,11.9-11.906h90.047A15.587,15.587,0,0,0,1425.77,578.379Z" transform="translate(-1330.198 -578.379)" fill="#3c0749"/>
  </g>
  <g id="Group_158" data-name="Group 158" transform="translate(65.71 66.784)">
    <path id="Path_319" data-name="Path 319" d="M1343.017,604h-6.9V592.918h6.836a18.137,18.137,0,0,1-.194,2.452h-3.716v1.776h2.726v2.414h-2.726v2.008h4.172A18.323,18.323,0,0,1,1343.017,604Z" transform="translate(-1333.868 -592.753)" fill="#fff"/>
    <path id="Path_320" data-name="Path 320" d="M1344.447,604.045c.034.723.415,1.036.973,1.036a5.853,5.853,0,0,0,1.742-.4,15.445,15.445,0,0,1,.33,2.4,9.289,9.289,0,0,1-2.35.376,3.227,3.227,0,0,1-3.4-3.336c-2.288-.524-3.619-2.236-3.619-5.492,0-3.78,1.974-5.754,4.9-5.754,2.943,0,4.883,1.729,4.883,5.708C1347.9,601.724,1346.553,603.5,1344.447,604.045ZM1343,595.263c-1.213,0-1.792.74-1.792,3.34,0,2.431.545,3.3,1.809,3.3s1.793-.8,1.793-3.3C1344.811,595.987,1344.152,595.263,1343,595.263Z" transform="translate(-1327.396 -592.879)" fill="#fff"/>
    <path id="Path_321" data-name="Path 321" d="M1345.3,604.164c-2.744,0-4.418-1.184-4.418-4.782v-6.464h2.926v6.79c0,1.5.359,1.907,1.526,1.907,1.12,0,1.594-.461,1.594-1.907v-6.79h2.812v6.464C1349.737,602.439,1348.388,604.164,1345.3,604.164Z" transform="translate(-1318.484 -592.753)" fill="#fff"/>
    <path id="Path_322" data-name="Path 322" d="M1343.537,604V592.918h2.926V604Z" transform="translate(-1309.904 -592.753)" fill="#fff"/>
    <path id="Path_323" data-name="Path 323" d="M1352.162,595.37h-2.253V604h-2.926V595.37H1344.6v-2.452h7.775A18.93,18.93,0,0,1,1352.162,595.37Z" transform="translate(-1306.48 -592.753)" fill="#fff"/>
    <path id="Path_324" data-name="Path 324" d="M1352.6,600.049v4.012h-2.93v-4a57.2,57.2,0,0,1-3.137-6.921,20.335,20.335,0,0,1,3.023-.245l1.281,3.467a7.867,7.867,0,0,1,.312,1.137h.2a9.107,9.107,0,0,1,.3-1.171l1.251-3.433a18.968,18.968,0,0,1,2.778.245A65.958,65.958,0,0,1,1352.6,600.049Z" transform="translate(-1300.23 -592.815)" fill="#fff"/>
    <path id="Path_325" data-name="Path 325" d="M1356.9,604.256l-.677-.888a4.942,4.942,0,0,1-2.879.922c-2.414,0-3.762-1.332-3.762-3.272,0-1.51.494-2.4,2.334-3.4a3.27,3.27,0,0,1-.655-1.907c0-1.725,1.083-2.828,3.09-2.828,1.873,0,3.04.841,3.04,2.469,0,1.116-.478,1.97-1.987,2.909.342.478,1,1.349,1.264,1.674.507-.541,1.234-1.361,2.318-2.693a26.384,26.384,0,0,1,.249,3.222,13.761,13.761,0,0,1-1.154,1.281l1.712,2.22A17.066,17.066,0,0,1,1356.9,604.256Zm-4.639-3.585c0,.824.377,1.285,1.23,1.285a2.554,2.554,0,0,0,1.337-.4c-.546-.638-1.315-1.64-1.73-2.186A1.342,1.342,0,0,0,1352.261,600.671Zm2.106-5.834c-.393,0-.643.216-.643.706a1.776,1.776,0,0,0,.461,1.019c.643-.326.854-.689.854-1.133C1355.039,595.035,1354.794,594.837,1354.367,594.837Z" transform="translate(-1290.395 -592.879)" fill="#fff"/>
    <path id="Path_326" data-name="Path 326" d="M1342.486,607.883h-6.9V596.806h6.84a18.033,18.033,0,0,1-.2,2.448h-3.716v1.775h2.732v2.414h-2.732v2.008h4.177A18.333,18.333,0,0,1,1342.486,607.883Z" transform="translate(-1335.583 -580.203)" fill="#fff"/>
    <path id="Path_327" data-name="Path 327" d="M1343.917,607.932c.034.723.411,1.036.968,1.036a5.827,5.827,0,0,0,1.742-.4,15.505,15.505,0,0,1,.33,2.4,9.237,9.237,0,0,1-2.35.377,3.23,3.23,0,0,1-3.4-3.336c-2.283-.525-3.614-2.237-3.614-5.492,0-3.78,1.97-5.754,4.9-5.754,2.943,0,4.883,1.729,4.883,5.708C1347.367,605.611,1346.019,607.387,1343.917,607.932Zm-1.445-8.781c-1.218,0-1.793.74-1.793,3.34,0,2.431.541,3.3,1.805,3.3s1.793-.8,1.793-3.3C1344.277,599.878,1343.621,599.151,1342.472,599.151Z" transform="translate(-1329.107 -580.333)" fill="#fff"/>
    <path id="Path_328" data-name="Path 328" d="M1344.771,608.048c-2.749,0-4.423-1.184-4.423-4.782v-6.46h2.926v6.786c0,1.5.359,1.907,1.53,1.907,1.116,0,1.594-.461,1.594-1.907v-6.786h2.807v6.46C1349.206,606.323,1347.861,608.048,1344.771,608.048Z" transform="translate(-1320.198 -580.203)" fill="#fff"/>
    <path id="Path_329" data-name="Path 329" d="M1349.568,607.968l-.672-2.647h-2.748l-.659,2.647a13.6,13.6,0,0,1-2.757-.25c.883-3.716,1.953-7.251,3.188-10.912h3.353c1.2,3.682,2.317,7.61,3.137,10.912A14.754,14.754,0,0,1,1349.568,607.968Zm-1.826-7.154a5.486,5.486,0,0,1-.148-1.167h-.195a5.51,5.51,0,0,1-.147,1.167l-.529,2.169h1.581Z" transform="translate(-1312.506 -580.203)" fill="#fff"/>
    <path id="Path_330" data-name="Path 330" d="M1351.919,607.883h-6.591V596.806h2.926v8.561h3.847A20.229,20.229,0,0,1,1351.919,607.883Z" transform="translate(-1304.126 -580.203)" fill="#fff"/>
    <path id="Path_331" data-name="Path 331" d="M1347.337,607.883V596.806h2.926v11.077Z" transform="translate(-1297.638 -580.203)" fill="#fff"/>
    <path id="Path_332" data-name="Path 332" d="M1355.958,599.254h-2.249v8.629h-2.929v-8.629H1348.4v-2.448h7.776A18.98,18.98,0,0,1,1355.958,599.254Z" transform="translate(-1294.214 -580.203)" fill="#fff"/>
    <path id="Path_333" data-name="Path 333" d="M1356.4,603.94v4.008h-2.925v-4a57.7,57.7,0,0,1-3.142-6.921,20.925,20.925,0,0,1,3.027-.245l1.281,3.471a8.179,8.179,0,0,1,.313,1.133h.2a8.951,8.951,0,0,1,.292-1.167l1.251-3.437a18.819,18.819,0,0,1,2.778.245A66.02,66.02,0,0,1,1356.4,603.94Z" transform="translate(-1287.967 -580.268)" fill="#fff"/>
  </g>
  <path id="Path_334" data-name="Path 334" d="M1370.352,592.993c-.013-.131-.03-.262-.047-.393a11.988,11.988,0,0,0-2.752-6.435c-.182-.216-.372-.432-.575-.634a12.749,12.749,0,0,0-1.142-1.036,12.018,12.018,0,0,0-5.543-2.393l-.051-.009-.055-.008a12.719,12.719,0,0,0-1.742-.144,12.541,12.541,0,0,0-4.227.676,11.723,11.723,0,0,0-3.171,1.657,11.965,11.965,0,0,0-4.769,8.473,14.069,14.069,0,0,0,.371,5.31l.059.19c.059.2.127.4.2.6a11.753,11.753,0,0,0,1.019,2.131,12.208,12.208,0,0,0,2.372,2.782c1.015.888,2.068,1.729,3.086,2.613a2.459,2.459,0,0,1,1.032,1.767c.013.275.2.22.347.148a9.659,9.659,0,0,0,.955-.541,2.873,2.873,0,0,0,.165-4.955c-.812-.554-1.628-1.095-2.385-1.725-.173-.144-.338-.292-.5-.44a6.611,6.611,0,0,1-1.894-2.85c-.368-1.154-.077-1.619,1.112-1.67,1.209-.055,2.418-.139,3.628-.161q1.616-.032,3.234-.021c1.725.013,3.45.064,5.171.169.127,0,.236.013.342.021.926.08,1.15.266.964,1.5l-.017.106a1.08,1.08,0,0,1-.051.169,4.971,4.971,0,0,1-.326.82A6.057,6.057,0,0,1,1363,601.08c-.731.486-1.5.918-2.237,1.4a1.681,1.681,0,0,0-.072,2.9,2.667,2.667,0,0,0,2.884.19,10.774,10.774,0,0,0,5.522-5.361,12.8,12.8,0,0,0,1.044-3A13.592,13.592,0,0,0,1370.352,592.993Zm-7.72,11.145a.673.673,0,0,1-.681-.66.652.652,0,0,1,1.3-.051A.645.645,0,0,1,1362.632,604.137Zm2.6-10.054a3.62,3.62,0,0,1-.609.034c-.279-.034-.769-.068-1.243-.156-.8-.148-1.12-.761-1.374-1.454a4.069,4.069,0,0,0-1.941-2.406,3.733,3.733,0,0,0-5.137,1.7l-.076.161c-.165.342-.3.7-.461,1.048a1.562,1.562,0,0,1-1.3.981,6.334,6.334,0,0,1-1.671.106c-.55-.064-.752-.3-.71-.85l.008-.046c.013-.173.034-.351.059-.524a7.433,7.433,0,0,1,5.145-5.978,7.819,7.819,0,0,1,3.357-.309c.1.013.2.025.3.042a7.646,7.646,0,0,1,4.292,2.254,7.378,7.378,0,0,1,1.213,1.708,7.837,7.837,0,0,1,.782,2.6C1365.964,593.673,1365.82,593.986,1365.228,594.083Z" transform="translate(-1235.651 -561.406)" fill="#fff"/>
  <g id="Group_159" data-name="Group 159" transform="translate(65.942 23.156)">
    <path id="Path_335" data-name="Path 335" d="M1335.637,603.074V598.2h6.033V587.558l-5.432.638a22.043,22.043,0,0,1-.453-4.308l6.071-1.239h4.646V598.2h4.308a30.131,30.131,0,0,1-.372,4.87Z" transform="translate(-1335.637 -582.273)" fill="#fff"/>
    <path id="Path_336" data-name="Path 336" d="M1347.418,603.737c-4.684,0-8.025-3.035-8.025-10.608,0-7.234,3.488-10.57,8.025-10.57,4.871,0,8.021,3.15,8.021,10.57C1355.439,599.987,1352.365,603.737,1347.418,603.737Zm0-16.679c-2.325,0-2.85,2.1-2.85,6.071,0,4.16.487,6.147,2.85,6.147s2.846-2.173,2.846-6.147C1350.264,589.232,1349.853,587.059,1347.418,587.059Z" transform="translate(-1323.514 -582.56)" fill="#fff"/>
  </g>
  <g id="Group_160" data-name="Group 160" transform="translate(15.867 32.005)">
    <path id="Path_337" data-name="Path 337" d="M1335.2,601.448a8.414,8.414,0,0,1-.507,3.027,12.9,12.9,0,0,1-2.089-.482,8.081,8.081,0,0,0,.558-2.858c0-.9-.427-1.3-1.167-1.3-1.809,0-1.4,4.587-4.883,4.587-2.169,0-3.319-1.729-3.319-4.16a11.686,11.686,0,0,1,.279-2.448,13.751,13.751,0,0,1,2.071.279,11.112,11.112,0,0,0-.312,2.562c0,.875.409,1.268,1.133,1.268,1.644,0,1.446-4.57,4.8-4.57C1334.085,597.356,1335.2,599.064,1335.2,601.448Z" transform="translate(-1323.793 -543.649)" fill="#aa58a4"/>
    <path id="Path_338" data-name="Path 338" d="M1335.2,598.146c0,3.221-1.97,4.947-5.72,4.947-3.961,0-5.686-2.122-5.686-4.786a8.3,8.3,0,0,1,.525-3.023,15.908,15.908,0,0,1,2.169.33,6.206,6.206,0,0,0-.558,2.562c0,1.281.74,2.3,3.535,2.3,2.68,0,3.6-.791,3.6-2.4a5.351,5.351,0,0,0-.773-2.68,11.866,11.866,0,0,1,2.169-.342A6.62,6.62,0,0,1,1335.2,598.146Z" transform="translate(-1323.793 -551.077)" fill="#aa58a4"/>
    <path id="Path_339" data-name="Path 339" d="M1334.909,596.421h-11.077V593.99h11.077Z" transform="translate(-1323.667 -554.514)" fill="#aa58a4"/>
    <path id="Path_340" data-name="Path 340" d="M1334.909,591.9v6.574h-11.077v-6.473a16.055,16.055,0,0,1,2.135.161v3.881h2.236V593.22h2.106v2.828h2.465v-4.325A16.765,16.765,0,0,1,1334.909,591.9Z" transform="translate(-1323.667 -561.832)" fill="#aa58a4"/>
    <path id="Path_341" data-name="Path 341" d="M1334.868,589.169a18.232,18.232,0,0,1,.165,2.321l-6.46,3.551a7.936,7.936,0,0,1-1.285.507l.017.165c.494-.05.973-.08,1.331-.08h6.313v2.186h-10.963a23.3,23.3,0,0,1-.165-2.533l6.05-3.323a6.888,6.888,0,0,1,1.281-.525l-.017-.165a12.312,12.312,0,0,1-1.379.085h-5.885v-2.19Z" transform="translate(-1323.706 -570.076)" fill="#aa58a4"/>
    <path id="Path_342" data-name="Path 342" d="M1335.2,589.831c0,3.221-1.97,4.947-5.72,4.947-3.961,0-5.686-2.118-5.686-4.782a8.324,8.324,0,0,1,.525-3.027,15.91,15.91,0,0,1,2.169.33,6.241,6.241,0,0,0-.558,2.566c0,1.281.74,2.3,3.535,2.3,2.68,0,3.6-.791,3.6-2.4a5.337,5.337,0,0,0-.773-2.68,12.257,12.257,0,0,1,2.169-.347A6.632,6.632,0,0,1,1335.2,589.831Z" transform="translate(-1323.793 -577.917)" fill="#aa58a4"/>
    <path id="Path_343" data-name="Path 343" d="M1334.909,584.835v6.574h-11.077v-6.477a15.383,15.383,0,0,1,2.135.165v3.877h2.236V586.15h2.106v2.824h2.465v-4.321A16.06,16.06,0,0,1,1334.909,584.835Z" transform="translate(-1323.667 -584.653)" fill="#aa58a4"/>
  </g>
</svg>
