<svg xmlns="http://www.w3.org/2000/svg" width="256" height="256" viewBox="0 0 256 256">
  <g id="Group_163" data-name="Group 163" transform="translate(-4857 -2810)">
    <rect id="Rectangle_357" data-name="Rectangle 357" width="256" height="256" transform="translate(4857 2810)" fill="#aa58a4"/>
    <path id="Path_352" data-name="Path 352" d="M184.756,1.033c14.468,2.135,28.607,7.435,40.066,15.917a88.328,88.328,0,0,1,8.154,6.848c14.516,13.743,22.135,30.407,24.17,49.465a81.034,81.034,0,0,1-8.991,47.777c-8.594,16.147-21.5,28.422-39.529,35.525-6.855,2.7-14.152,3.547-20.653-1.272-6.791-5.033-8.57-13.794.531-19.214,5.284-3.147,10.771-6.007,15.993-9.236,8.422-5.208,14.842-11.954,17.814-21.141a8.781,8.781,0,0,0,.346-1.12c1.721-9.827-.306-10.3-9.217-10.8-20.052-1.125-40.115-1.3-60.184-.982-8.653.138-17.3.711-25.949,1.069-8.521.352-10.616,3.416-7.983,11.081,3.114,9.073,9.428,15.871,17.161,21.79,5.428,4.155,11.282,7.767,17.09,11.416,13.041,8.191,12.915,24.011-1.178,32.831a65.3,65.3,0,0,1-6.848,3.587c-1.027.485-2.4.852-2.472-.967-.211-5.135-3.551-8.629-7.4-11.717-7.289-5.847-14.838-11.419-22.091-17.3-12.622-10.236-21.52-22.749-26.119-37.766C83.935,95.267,83.488,83.425,84.8,71.637A75.773,75.773,0,0,1,102.123,30.83,83.057,83.057,0,0,1,141.639,4.516,95.777,95.777,0,0,1,184.376.978l.38.055M216.11,80.713c7.911.083,9.783-1.686,8.95-7.5a49.561,49.561,0,0,0-5.6-17.224C207.616,34.608,180.059,23.87,153.835,31.5c-20.705,6.026-35.516,22.816-37.3,43.4-.314,3.617,1.132,5.208,5.06,5.65,4.024.453,7.988-.208,11.96-.713,4.439-.564,7.525-2.723,9.313-6.511,1.261-2.67,2.39-5.406,3.826-7.994,7.682-13.832,23.48-17.267,36.764-11.247,7.164,3.246,11.21,9.225,13.891,15.955,1.823,4.575,4.124,8.64,9.838,9.634,3.412.593,6.9.814,8.924,1.042M201.883,147.1a4.422,4.422,0,0,0,4.446-4.716c-.138-2.415-2.138-4.074-4.837-4.011a4.372,4.372,0,0,0-4.508,4.36,4.68,4.68,0,0,0,4.9,4.368" transform="translate(4813.843 2850.708)" fill="#fff"/>
  </g>
</svg>
