<svg xmlns="http://www.w3.org/2000/svg" width="527.385" height="471.364" viewBox="0 0 527.385 471.364">
  <g id="Group_214" data-name="Group 214" transform="translate(-2036.308 4196.682)">
    <g id="Group_213" data-name="Group 213" transform="translate(2152.581 -4104.156)">
      <g id="Group_175" data-name="Group 175" transform="translate(0 0)">
        <g id="Group_172" data-name="Group 172" transform="translate(139.358 115.724)">
          <path id="Path_368" data-name="Path 368" d="M-1285.4,47.931c-5.859-.493-11.03,2.665-12.441,8.139-.743,2.881-.611,5.984-.886,9.1h23.489a62.67,62.67,0,0,0-.049-7.287A11.383,11.383,0,0,0-1285.4,47.931Z" transform="translate(1298.732 -47.88)" fill="#fff"/>
        </g>
        <g id="Group_173" data-name="Group 173" transform="translate(145.503 145.158)">
          <path id="Path_369" data-name="Path 369" d="M-1287.318,57.826a5.754,5.754,0,0,0-7.777.076,5.537,5.537,0,0,0-.688,7.538,4.265,4.265,0,0,1,.984,3.979c-.185,1-.209,2.033-.323,3.051-.476,4.247-.48,4.247,3.916,4.247.584,0,1.171.007,1.755,0,2.522-.031,2.742-.309,2.415-2.836-.188-1.449-.288-2.912-.476-4.358a4.791,4.791,0,0,1,1.06-4.191C-1284.576,63.156-1285.139,59.789-1287.318,57.826Z" transform="translate(1296.964 -56.351)" fill="#fff"/>
        </g>
        <g id="Group_174" data-name="Group 174">
          <path id="Path_370" data-name="Path 370" d="M-1049.454,192.389c-5.522-4.74-13.14-4.928-19.464-.671a4.981,4.981,0,0,1-3.614.573c-9.456-2.471-18.87-5.1-28.294-7.694-1.616-.445-3.215-.945-4.907-1.449a89.194,89.194,0,0,0,2.564-32.955c3.333-1.036,5.842-1.1,8.5,1.592,3.329,3.371,9.133,3.169,13.081.455a11.179,11.179,0,0,0,4.323-12.444,10.824,10.824,0,0,0-10.464-7.92,10.9,10.9,0,0,0-10.005,5.651c-1.574,2.592-4.229,1.72-6.454,1.877-.514.038-1.4-1.731-1.713-2.787a86.6,86.6,0,0,0-16.886-31.457c-.528-.629-.99-1.314-1.529-2.036,8.5-8.695,16.785-17.223,25.174-25.653.514-.518,1.821-.469,2.714-.351,2.454.327,4.893,1.248,7.318,1.188a18.005,18.005,0,0,0,16.817-13.379,18.065,18.065,0,0,0-7.614-19.853,18.24,18.24,0,0,0-21.244,1.112,17.994,17.994,0,0,0-5.32,20.8,3.063,3.063,0,0,1-.813,3.944c-7.7,7.77-15.322,15.617-22.98,23.426-.508.518-1.113.942-1.741,1.463a84.78,84.78,0,0,0-47.766-20.472c-2.088-.205-2.144-1.338-2.141-2.9.035-8.538.07-17.08-.024-25.619-.017-1.64.65-2.3,1.987-3.009a15.346,15.346,0,0,0,7.924-17.483,15.44,15.44,0,0,0-15.172-11.756,15.508,15.508,0,0,0-15,11.624,15.408,15.408,0,0,0,7.795,17.542,3.609,3.609,0,0,1,2.179,3.812c-.069,7.291-.062,14.585-.08,21.879,0,1.79,0,3.579,0,5.557a86.076,86.076,0,0,0-52.193,21.271c-.435-.361-.674-.525-.873-.73-14.057-14.7-22.053-23.061-36.172-37.705-1.394-1.442-1.019-2.568-.462-4.073a15.4,15.4,0,0,0-5.807-18.036,15.5,15.5,0,0,0-18.947,1.126,15.576,15.576,0,0,0-3.715,18.616,15.293,15.293,0,0,0,17.07,8.2,4.23,4.23,0,0,1,4.678,1.515c8.16,8.657,10.376,10.856,18.592,19.464,6.015,6.3,12.024,12.615,18.1,18.988-2.964,3.951-5.81,7.743-8.691,11.576-7.266-4.309-14.39-8.465-21.41-12.8a4.055,4.055,0,0,1-1.446-2.961c-.2-7.736-4.854-13.748-12.18-15.485a15.543,15.543,0,0,0-17.1,7.718,15.682,15.682,0,0,0,3.058,18.762,15.4,15.4,0,0,0,19.363,1.4c1.5-1.018,2.432-.824,3.792,0,6.311,3.84,12.674,7.586,19.009,11.381.709.424,1.362.938,2.113,1.46-7.273,15.767-9.129,32.124-6.849,49.2-10.036,1.244-19.728,2.408-29.406,3.68a3.843,3.843,0,0,1-4.243-1.887,18.006,18.006,0,0,0-20.68-6.634,18.2,18.2,0,0,0-12.1,18.356,18.139,18.139,0,0,0,14.192,16.469c8.021,1.748,16.893-1.637,19.617-9.383,2.182-6.207,5.928-7.093,11.231-7.562,7.9-.7,15.763-1.866,23.826-2.857a86.11,86.11,0,0,0,21.087,36.027c-.553.629-.911,1.067-1.3,1.47-3.218,3.3-6.408,6.624-9.7,9.838a3.232,3.232,0,0,1-2.28.591c-7.023-.639-12.646,3.9-12.844,10.46a11.054,11.054,0,0,0,11.944,11.736c6.537-.33,11.093-6.144,10.265-13.021a3.3,3.3,0,0,1,.379-2.353c3.778-3.8,7.67-7.479,11.635-11.3a1.233,1.233,0,0,1,.507.215,87.283,87.283,0,0,0,29.917,14.96,2.794,2.794,0,0,1,1.5,2.148c-.028,3.051-.352,6.1-.57,9.216-.726.215-1.355.417-1.994.587a15.521,15.521,0,0,0-11.941,15.051,15.49,15.49,0,0,0,11.836,15.117,15.447,15.447,0,0,0,17.316-7.743c3.423-6.207,2.1-13.768-3.291-18.933-.594-.57-1.463-1.317-1.452-1.967.063-3.687.358-7.367.577-11.117,18.2,1.9,35.015-1.119,50.57-9.421.413.316.518.358.563.434,8.594,13.967,12.111,19.4,20.607,33.42a3.434,3.434,0,0,1-.292,2.933,18.69,18.69,0,0,0-2.829,14.008,18.161,18.161,0,0,0,20.6,14.2,18.126,18.126,0,0,0,15.009-21.07c-1.692-9.574-11.006-16.319-20.489-14.648-1.877.33-2.732-.2-3.649-1.717-6.109-10.092-7.214-11.6-13.376-21.661-2.335-3.809-4.653-7.631-7.058-11.579a87.4,87.4,0,0,0,29.018-35.415,2.806,2.806,0,0,1,2.463-.8c3.913.924,7.781,2.057,11.659,3.124q10.216,2.8,20.392,5.6c.042.785.07,1.258.09,1.731.323,7.736,5.244,13.723,12.5,15.211a15.637,15.637,0,0,0,17.025-8.441A15.548,15.548,0,0,0-1049.454,192.389Zm-111.451-7.072c-.048,4.615-2.3,6.829-6.957,6.836q-19.657.026-39.308,0c-4.687-.007-7.033-2.36-7.041-7.02q-.021-17.019,0-34.039c0-3.183.16-3.34,3.347-3.354.789,0,1.578,0,2.641,0,0-1.988-.01-3.718,0-5.449.077-11.395,8.226-20.27,19.353-21.073a20.674,20.674,0,0,1,21.859,17.953c.393,2.707.059,5.522.059,8.57,1.275,0,2.21-.01,3.142,0,2.662.028,2.908.25,2.912,2.877q.021,10.978.007,21.959C-1160.894,176.824-1160.863,181.07-1160.905,185.317Z" transform="translate(1338.833 -14.58)" fill="#fff"/>
        </g>
      </g>
    </g>
    <path id="Path_503" data-name="Path 503" d="M-1003.976,459.319h-209.251a54.614,54.614,0,0,1-47.165-27.231l-104.625-181.221a54.6,54.6,0,0,1,0-54.459l104.625-181.221a54.614,54.614,0,0,1,47.165-27.231h209.251a54.613,54.613,0,0,1,47.165,27.231l104.629,181.221a54.6,54.6,0,0,1,0,54.459L-956.811,432.088A54.613,54.613,0,0,1-1003.976,459.319ZM-1213.227,15.756a26.736,26.736,0,0,0-23.089,13.331l-104.63,181.221a26.733,26.733,0,0,0,0,26.658l104.63,181.221a26.736,26.736,0,0,0,23.089,13.331h209.251a26.741,26.741,0,0,0,23.092-13.331l104.626-181.221a26.732,26.732,0,0,0,0-26.658L-980.884,29.087a26.741,26.741,0,0,0-23.092-13.331Z" transform="translate(3408.6 -4184.637)" fill="#fff"/>
  </g>
</svg>
